<?xml version="1.0" encoding="UTF-8" standalone="no"?><!DOCTYPE svg PUBLIC "-//W3C//DTD SVG 1.1//EN" "http://www.w3.org/Graphics/SVG/1.1/DTD/svg11.dtd"><svg width="100%" height="100%" viewBox="0 0 1024 1024" version="1.1" xmlns="http://www.w3.org/2000/svg" xmlns:xlink="http://www.w3.org/1999/xlink" xml:space="preserve" xmlns:serif="http://www.serif.com/" style="fill-rule:evenodd;clip-rule:evenodd;stroke-linejoin:round;stroke-miterlimit:2;"><rect x="215.971" y="21.526" width="53.357" height="981.974"/><path d="M269.328,950.143l262.168,0l0,53.357l-262.168,0l0,-53.357Z"/><path d="M51.283,326.277l141.088,0l0,53.357l-141.088,0l0,-53.357Z"/><path d="M242.65,326.277l167.767,0l0,53.357l-167.767,0l0,-53.357Z"/><rect x="530.47" y="988.109" width="425.317" height="15.391"/><rect x="257.785" y="21.526" width="698.002" height="15.391"/><rect x="395.538" y="516.104" width="512.535" height="15.391"/><path d="M940.395,593.062l15.391,0l-0,395.047l-15.391,0l0,-395.047Z"/><path d="M940.395,20.5l15.391,0l-0,425.317l-15.391,0l0,-425.317Z"/><path d="M395.538,326.277l15.391,0l0,197.523l-15.391,0l0,-197.523Z"/><path d="M176.98,326.277l15.391,0l0,197.523l-15.391,0l0,-197.523Z"/><circle cx="184.675" cy="523.287" r="24.626"/><circle cx="892.682" cy="523.8" r="24.626"/><circle cx="947.065" cy="588.062" r="24.626"/><circle cx="948.091" cy="458.643" r="24.626"/><circle cx="611.531" cy="727.48" r="45.148"/><path d="M611.531,715.68l63.874,139.549l-127.749,0l63.874,-139.549Z"/></svg>