<?xml version="1.0" encoding="UTF-8" standalone="no"?>
<!DOCTYPE svg PUBLIC "-//W3C//DTD SVG 1.1//EN" "http://www.w3.org/Graphics/SVG/1.1/DTD/svg11.dtd">
<svg width="100%" height="100%" viewBox="0 0 1024 1024" version="1.1" xmlns="http://www.w3.org/2000/svg" xmlns:xlink="http://www.w3.org/1999/xlink" xml:space="preserve" xmlns:serif="http://www.serif.com/" style="fill-rule:evenodd;clip-rule:evenodd;stroke-linecap:round;stroke-linejoin:round;stroke-miterlimit:1.5;">
    <g transform="matrix(0.799694,0,0,0.799694,273.296369,87.748)">
        <g transform="matrix(2.209918,0,0,2.209918,-228.049592,-264.664826)">
            <path d="M119.831,268.28C98.231,259.479 157.033,278.25 174.891,321.397C190.334,358.71 159.384,413.058 202.76,441.271C287.297,496.257 358.312,294.597 358.312,294.597C358.312,294.597 378.984,294.617 413.325,293.859" style="fill:none;stroke:rgb(97,211,151);stroke-width:8.96px;"/>
        </g>
        <g transform="matrix(6.353816,0,0,6.353816,-346.42641,-2440.144189)">
            <path d="M189.338,539.578C179.479,539.578 171.946,537.286 166.739,532.704C161.531,528.122 158.928,520.762 158.928,510.625L158.928,396.691C158.928,395.58 159.31,394.712 160.073,394.087C160.837,393.462 161.635,393.15 162.469,393.15C163.441,393.15 164.309,393.462 165.072,394.087C165.836,394.712 166.218,395.58 166.218,396.691L166.218,441.265L194.337,441.265C195.309,441.265 196.142,441.612 196.836,442.306C197.531,443 197.878,443.903 197.878,445.014C197.878,445.986 197.531,446.819 196.836,447.513C196.142,448.208 195.309,448.555 194.337,448.555L166.218,448.555L166.218,510.625C166.218,518.54 167.954,524.129 171.425,527.393C174.897,530.656 180.868,532.287 189.338,532.287L194.129,532.287C195.101,532.287 195.934,532.6 196.628,533.225C197.322,533.85 197.67,534.717 197.67,535.828C197.67,536.8 197.322,537.668 196.628,538.432C195.934,539.196 195.101,539.578 194.129,539.578L189.338,539.578Z" style="fill:rgb(244,176,73);fill-rule:nonzero;"/>
        </g>
        <g transform="matrix(0.823112,0.330238,-0.330238,0.823112,-209.735683,-353.190657)">
            <g transform="matrix(0.937198,0,0,0.9407,44.253404,27.768669)">
                <path d="M712,555.12L712,803.011C712,832.329 688.109,856.131 658.682,856.131L351.318,856.131C321.891,856.131 298,832.329 298,803.011L298,555.12C298,525.802 321.891,502 351.318,502L658.682,502C688.109,502 712,525.802 712,555.12Z" style="fill:rgb(97,211,151);"/>
            </g>
            <g transform="matrix(0.159463,0.039372,-0.157108,0.63631,287.618619,157.861341)">
                <path d="M712,517.563L712,840.568C712,849.157 684.174,856.131 649.9,856.131L360.1,856.131C325.826,856.131 298,849.157 298,840.568L298,517.563C298,508.973 325.826,502 360.1,502L649.9,502C684.174,502 712,508.973 712,517.563Z" style="fill:rgb(97,211,151);"/>
            </g>
            <g transform="matrix(0.223176,-0,0,0.559408,326.325838,575.04571)">
                <path d="M712,526.775L712,831.356C712,845.029 684.174,856.131 649.9,856.131L360.1,856.131C325.826,856.131 298,845.029 298,831.356L298,526.775C298,513.101 325.826,502 360.1,502L649.9,502C684.174,502 712,513.101 712,526.775Z" style="fill:rgb(97,211,151);"/>
            </g>
            <g transform="matrix(0.223176,-0,0,0.559408,502.229849,574.620076)">
                <path d="M712,526.775L712,831.356C712,845.029 684.174,856.131 649.9,856.131L360.1,856.131C325.826,856.131 298,845.029 298,831.356L298,526.775C298,513.101 325.826,502 360.1,502L649.9,502C684.174,502 712,513.101 712,526.775Z" style="fill:rgb(97,211,151);"/>
            </g>
            <g transform="matrix(1.499755,0.370297,-0.370297,1.499755,-404.798872,333.339714)">
                <circle cx="461.5" cy="179.5" r="17.5" style="fill:rgb(97,211,151);stroke:rgb(97,211,151);stroke-width:14.83px;"/>
            </g>
            <g transform="matrix(0.140245,-0.085498,0.341166,0.559624,494.162205,256.49107)">
                <path d="M712,517.563L712,840.568C712,849.157 684.174,856.131 649.9,856.131L360.1,856.131C325.826,856.131 298,849.157 298,840.568L298,517.563C298,508.973 325.826,502 360.1,502L649.9,502C684.174,502 712,508.973 712,517.563Z" style="fill:rgb(97,211,151);"/>
            </g>
            <g transform="matrix(1.31901,-0.804112,0.804112,1.31901,131.173715,871.693473)">
                <circle cx="461.5" cy="179.5" r="17.5" style="fill:rgb(97,211,151);stroke:rgb(97,211,151);stroke-width:14.83px;"/>
            </g>
            <g transform="matrix(0.181587,0,0,0.25904,560.0132,218.352177)">
                <path d="M712,545.532L712,812.598C712,836.625 684.174,856.131 649.9,856.131L360.1,856.131C325.826,856.131 298,836.625 298,812.598L298,545.532C298,521.506 325.826,502 360.1,502L649.9,502C684.174,502 712,521.506 712,545.532Z" style="fill:rgb(97,211,151);"/>
            </g>
            <g transform="matrix(0.181587,0,0,0.25904,295.607615,218.352177)">
                <path d="M712,545.532L712,812.598C712,836.625 684.174,856.131 649.9,856.131L360.1,856.131C325.826,856.131 298,836.625 298,812.598L298,545.532C298,521.506 325.826,502 360.1,502L649.9,502C684.174,502 712,521.506 712,545.532Z" style="fill:rgb(97,211,151);"/>
            </g>
            <g transform="matrix(0.051505,0,0,0.244312,492.969037,45.261322)">
                <path d="M712,515.092L712,843.039C712,850.265 684.174,856.131 649.9,856.131L360.1,856.131C325.826,856.131 298,850.265 298,843.039L298,515.092C298,507.866 325.826,502 360.1,502L649.9,502C684.174,502 712,507.866 712,515.092Z" style="fill:rgb(97,211,151);"/>
            </g>
            <g transform="matrix(1.066152,0,0,1.09336,26.950073,-42.56589)">
                <circle cx="461.5" cy="179.5" r="17.5" style="fill:rgb(97,211,151);stroke:rgb(97,211,151);stroke-width:21.22px;"/>
            </g>
            <g transform="matrix(1.066152,0,0,1.09336,-24.266172,-65.438453)">
                <path d="M372,493C372,493 371.946,467 371.795,434.948C371.639,401.743 372.672,360.897 389.743,328.143C414.118,281.374 451.13,264.429 509.538,263.992C570.826,263.534 606.1,284.285 629.802,328C651.314,367.677 646.06,409.614 646.643,436.947C647.034,455.299 647.295,493 647.295,493L372,493Z" style="fill:rgb(31,31,31);stroke:rgb(97,211,151);stroke-width:21.22px;"/>
            </g>
            <g transform="matrix(-0.237785,0,0,-0.176653,638.6795,474.633833)">
                <path d="M372,493C372,493 371.946,467 371.795,434.948C371.639,401.743 372.672,360.897 389.743,328.143C414.118,281.374 451.13,264.429 509.538,263.992C570.826,263.534 606.1,284.285 629.802,328C651.314,367.677 646.06,409.614 646.643,436.947C647.034,455.299 647.295,493 647.295,493L372,493Z" style="fill:rgb(244,176,73);stroke:rgb(244,176,73);stroke-width:109.38px;"/>
            </g>
            <g transform="matrix(1,0,0,1,-10.000287,142.492483)">
                <circle cx="461.5" cy="179.5" r="17.5" style="fill:rgb(244,176,73);stroke:rgb(244,176,73);stroke-width:22.91px;"/>
            </g>
            <g transform="matrix(1,0,0,1,122.999713,142.492483)">
                <circle cx="461.5" cy="179.5" r="17.5" style="fill:rgb(244,176,73);stroke:rgb(244,176,73);stroke-width:22.91px;"/>
            </g>
            <g transform="matrix(1.126471,0,0,1,-72.905582,-7)">
                <path d="M550.308,756L498,756L511.077,686L537.231,686L550.308,756Z" style="fill:rgb(244,176,73);stroke:rgb(244,176,73);stroke-width:21.51px;"/>
            </g>
            <g transform="matrix(1,0,0,1,42.769214,23.796142)">
                <circle cx="474.769" cy="642.769" r="32.769" style="fill:rgb(244,176,73);stroke:rgb(244,176,73);stroke-width:22.91px;"/>
            </g>
        </g>
    </g>
</svg>
