<?xml version="1.0" encoding="UTF-8" standalone="no"?>
<!DOCTYPE svg PUBLIC "-//W3C//DTD SVG 1.1//EN" "http://www.w3.org/Graphics/SVG/1.1/DTD/svg11.dtd">
<svg width="100%" height="100%" viewBox="0 0 1200 630" version="1.1" xmlns="http://www.w3.org/2000/svg" xmlns:xlink="http://www.w3.org/1999/xlink" xml:space="preserve" xmlns:serif="http://www.serif.com/" style="fill-rule:evenodd;clip-rule:evenodd;stroke-linecap:round;stroke-linejoin:round;stroke-miterlimit:1.5;">
    <path d="M168.006,368C301.538,347.762 184.928,248.076 230.596,249.485C256.015,250.269 272.664,179.183 292.231,189.101C313.639,199.952 319.76,250.779 367.273,261.459C375.673,263.347 389.713,260.598 394.431,271.326C399.677,283.253 421.861,251.014 439.609,244.772C451.742,240.505 456.067,267.172 492.953,229.509C503.241,219.004 539.128,205.352 549.568,219.213C589.411,272.11 605.153,225.524 639.254,226.827C686.132,228.619 664.782,259.96 690.254,259.392C698.148,259.216 693.573,268.195 707.867,266.392C732.261,263.315 720.992,236.607 753.867,227.847C787.638,218.849 785.265,243.202 811.795,227.392C834.761,213.705 862.913,255.454 882.213,271.205C924.125,305.409 930.426,266.637 949.745,259.864C962.641,255.343 965.162,228.189 970.102,228.743C975.645,229.365 984.128,244.685 998.341,250.485C1012.514,256.268 1032.419,252.518 1036.924,261.141" style="fill:none;stroke:rgb(97,211,151);stroke-width:3.1px;"/>
    <g transform="matrix(0.328528,-0.082892,0.082892,0.328528,-56.645242,178.154808)">
        <g transform="matrix(0.937198,0,0,0.9407,44.253404,27.768669)">
            <path d="M712,555.12L712,803.011C712,832.329 688.109,856.131 658.682,856.131L351.318,856.131C321.891,856.131 298,832.329 298,803.011L298,555.12C298,525.802 321.891,502 351.318,502L658.682,502C688.109,502 712,525.802 712,555.12Z" style="fill:rgb(97,211,151);"/>
        </g>
        <g transform="matrix(0.223176,0,0,0.559408,326.325838,575.04571)">
            <path d="M712,526.775L712,831.356C712,845.029 684.174,856.131 649.9,856.131L360.1,856.131C325.826,856.131 298,845.029 298,831.356L298,526.775C298,513.101 325.826,502 360.1,502L649.9,502C684.174,502 712,513.101 712,526.775Z" style="fill:rgb(97,211,151);"/>
        </g>
        <g transform="matrix(0.223176,0,0,0.559408,502.229849,574.620076)">
            <path d="M712,526.775L712,831.356C712,845.029 684.174,856.131 649.9,856.131L360.1,856.131C325.826,856.131 298,845.029 298,831.356L298,526.775C298,513.101 325.826,502 360.1,502L649.9,502C684.174,502 712,513.101 712,526.775Z" style="fill:rgb(97,211,151);"/>
        </g>
        <g transform="matrix(0.164251,0.000069,-0.000275,0.655418,691.863095,196.224813)">
            <path d="M712,517.563L712,840.568C712,849.157 684.174,856.131 649.9,856.131L360.1,856.131C325.826,856.131 298,849.157 298,840.568L298,517.563C298,508.973 325.826,502 360.1,502L649.9,502C684.174,502 712,508.973 712,517.563Z" style="fill:rgb(97,211,151);"/>
        </g>
        <g transform="matrix(1.544792,0.000651,-0.000651,1.544792,60.110398,538.022176)">
            <circle cx="461.5" cy="179.5" r="17.5" style="fill:rgb(97,211,151);stroke:rgb(97,211,151);stroke-width:23.98px;"/>
        </g>
        <g transform="matrix(0.164251,0.000069,-0.000275,0.655418,176.305603,200.747697)">
            <path d="M712,517.563L712,840.568C712,849.157 684.174,856.131 649.9,856.131L360.1,856.131C325.826,856.131 298,849.157 298,840.568L298,517.563C298,508.973 325.826,502 360.1,502L649.9,502C684.174,502 712,508.973 712,517.563Z" style="fill:rgb(97,211,151);"/>
        </g>
        <g transform="matrix(1.544792,0.000651,-0.000651,1.544792,-455.447094,542.545061)">
            <circle cx="461.5" cy="179.5" r="17.5" style="fill:rgb(97,211,151);stroke:rgb(97,211,151);stroke-width:23.98px;"/>
        </g>
        <g transform="matrix(0.181587,0,0,0.25904,560.0132,218.352177)">
            <path d="M712,545.532L712,812.598C712,836.625 684.174,856.131 649.9,856.131L360.1,856.131C325.826,856.131 298,836.625 298,812.598L298,545.532C298,521.506 325.826,502 360.1,502L649.9,502C684.174,502 712,521.506 712,545.532Z" style="fill:rgb(97,211,151);"/>
        </g>
        <g transform="matrix(0.181587,0,0,0.25904,295.607615,218.352177)">
            <path d="M712,545.532L712,812.598C712,836.625 684.174,856.131 649.9,856.131L360.1,856.131C325.826,856.131 298,836.625 298,812.598L298,545.532C298,521.506 325.826,502 360.1,502L649.9,502C684.174,502 712,521.506 712,545.532Z" style="fill:rgb(97,211,151);"/>
        </g>
        <g transform="matrix(0.051505,0,0,0.244312,487.272129,31.648376)">
            <path d="M712,515.092L712,843.039C712,850.265 684.174,856.131 649.9,856.131L360.1,856.131C325.826,856.131 298,850.265 298,843.039L298,515.092C298,507.866 325.826,502 360.1,502L649.9,502C684.174,502 712,507.866 712,515.092Z" style="fill:rgb(97,211,151);"/>
        </g>
        <g transform="matrix(1.066152,0,0,1.09336,21.253165,-56.178836)">
            <circle cx="461.5" cy="179.5" r="17.5" style="fill:rgb(97,211,151);stroke:rgb(97,211,151);stroke-width:34.3px;"/>
        </g>
        <g transform="matrix(1.066152,0,0,1.09336,-29.96308,-79.051399)">
            <path d="M372,493C372,493 371.946,467 371.795,434.948C371.639,401.743 372.672,360.897 389.743,328.143C414.118,281.374 451.13,264.429 509.538,263.992C570.826,263.534 606.1,284.285 629.802,328C651.314,367.677 646.06,409.614 646.643,436.947C647.034,455.299 647.295,493 647.295,493L372,493Z" style="fill:rgb(31,31,31);stroke:rgb(97,211,151);stroke-width:34.3px;"/>
        </g>
        <g transform="matrix(-0.237785,0,0,-0.176653,632.982592,461.020887)">
            <path d="M372,493C372,493 371.946,467 371.795,434.948C371.639,401.743 372.672,360.897 389.743,328.143C414.118,281.374 451.13,264.429 509.538,263.992C570.826,263.534 606.1,284.285 629.802,328C651.314,367.677 646.06,409.614 646.643,436.947C647.034,455.299 647.295,493 647.295,493L372,493Z" style="fill:rgb(244,176,73);stroke:rgb(244,176,73);stroke-width:176.82px;"/>
        </g>
        <g transform="matrix(1,0,0,1,-15.697195,128.879537)">
            <circle cx="461.5" cy="179.5" r="17.5" style="fill:rgb(244,176,73);stroke:rgb(244,176,73);stroke-width:37.04px;"/>
        </g>
        <g transform="matrix(1,0,0,1,117.302805,128.879537)">
            <circle cx="461.5" cy="179.5" r="17.5" style="fill:rgb(244,176,73);stroke:rgb(244,176,73);stroke-width:37.04px;"/>
        </g>
        <g transform="matrix(1.126471,0,0,1,-72.905582,-7)">
            <path d="M550.308,756L498,756L511.077,686L537.231,686L550.308,756Z" style="fill:rgb(244,176,73);stroke:rgb(244,176,73);stroke-width:34.77px;"/>
        </g>
        <g transform="matrix(1,0,0,1,42.769214,23.796142)">
            <circle cx="474.769" cy="642.769" r="32.769" style="fill:rgb(244,176,73);stroke:rgb(244,176,73);stroke-width:37.04px;"/>
        </g>
    </g>
    <g transform="matrix(1.228212,0,0,1.228212,137.94661,-338.148114)">
        <g transform="matrix(96,0,0,96,741.088043,496.925134)">
        </g>
        <text x="66.016px" y="496.925px" style="font-family:'Dosis-ExtraLight', 'Dosis';font-weight:200;font-size:96px;fill:rgb(244,176,73);">AI agent dashboar<tspan x="696.16px " y="496.925px ">d</tspan></text>
    </g>
</svg>
