<?xml version="1.0" encoding="UTF-8" standalone="no"?>
<!DOCTYPE svg PUBLIC "-//W3C//DTD SVG 1.1//EN" "http://www.w3.org/Graphics/SVG/1.1/DTD/svg11.dtd">
<svg width="100%" height="100%" viewBox="0 0 1200 630" version="1.1" xmlns="http://www.w3.org/2000/svg" xmlns:xlink="http://www.w3.org/1999/xlink" xml:space="preserve" xmlns:serif="http://www.serif.com/" style="fill-rule:evenodd;clip-rule:evenodd;stroke-linecap:round;stroke-linejoin:round;stroke-miterlimit:1.5;">
    <path d="M168.006,368C301.538,347.762 184.928,248.076 230.596,249.485C256.015,250.269 272.664,179.183 292.231,189.101C313.639,199.952 319.76,250.779 367.273,261.459C375.673,263.347 389.713,260.598 394.431,271.326C399.677,283.253 421.861,251.014 439.609,244.772C451.742,240.505 456.067,267.172 492.953,229.509C503.241,219.004 539.128,205.352 549.568,219.213C589.411,272.11 605.153,225.524 639.254,226.827C686.132,228.619 664.782,259.96 690.254,259.392C698.148,259.216 693.573,268.195 707.867,266.392C732.261,263.315 720.992,236.607 753.867,227.847C787.638,218.849 785.265,243.202 811.795,227.392C834.761,213.705 862.913,255.454 882.213,271.205C924.125,305.409 930.426,266.637 949.745,259.864C962.641,255.343 965.162,228.189 970.102,228.743C975.645,229.365 984.128,244.685 998.341,250.485C1012.514,256.268 1032.419,252.518 1036.924,261.141" style="fill:none;stroke:rgb(97,211,151);stroke-width:3.1px;"/>
    <g transform="matrix(0.328528,-0.082892,0.082892,0.328528,-56.645242,178.154808)">
        <g transform="matrix(0.937198,0,0,0.9407,44.253404,27.768669)">
            <path d="M712,555.12L712,803.011C712,832.329 688.109,856.131 658.682,856.131L351.318,856.131C321.891,856.131 298,832.329 298,803.011L298,555.12C298,525.802 321.891,502 351.318,502L658.682,502C688.109,502 712,525.802 712,555.12Z" style="fill:rgb(97,211,151);"/>
        </g>
        <g transform="matrix(0.223176,0,0,0.559408,326.325838,575.04571)">
            <path d="M712,526.775L712,831.356C712,845.029 684.174,856.131 649.9,856.131L360.1,856.131C325.826,856.131 298,845.029 298,831.356L298,526.775C298,513.101 325.826,502 360.1,502L649.9,502C684.174,502 712,513.101 712,526.775Z" style="fill:rgb(97,211,151);"/>
        </g>
        <g transform="matrix(0.223176,0,0,0.559408,502.229849,574.620076)">
            <path d="M712,526.775L712,831.356C712,845.029 684.174,856.131 649.9,856.131L360.1,856.131C325.826,856.131 298,845.029 298,831.356L298,526.775C298,513.101 325.826,502 360.1,502L649.9,502C684.174,502 712,513.101 712,526.775Z" style="fill:rgb(97,211,151);"/>
        </g>
        <g transform="matrix(0.164251,0.000069,-0.000275,0.655418,691.863095,196.224813)">
            <path d="M712,517.563L712,840.568C712,849.157 684.174,856.131 649.9,856.131L360.1,856.131C325.826,856.131 298,849.157 298,840.568L298,517.563C298,508.973 325.826,502 360.1,502L649.9,502C684.174,502 712,508.973 712,517.563Z" style="fill:rgb(97,211,151);"/>
        </g>
        <g transform="matrix(1.544792,0.000651,-0.000651,1.544792,60.110398,538.022176)">
            <circle cx="461.5" cy="179.5" r="17.5" style="fill:rgb(97,211,151);stroke:rgb(97,211,151);stroke-width:23.98px;"/>
        </g>
        <g transform="matrix(0.164251,0.000069,-0.000275,0.655418,176.305603,200.747697)">
            <path d="M712,517.563L712,840.568C712,849.157 684.174,856.131 649.9,856.131L360.1,856.131C325.826,856.131 298,849.157 298,840.568L298,517.563C298,508.973 325.826,502 360.1,502L649.9,502C684.174,502 712,508.973 712,517.563Z" style="fill:rgb(97,211,151);"/>
        </g>
        <g transform="matrix(1.544792,0.000651,-0.000651,1.544792,-455.447094,542.545061)">
            <circle cx="461.5" cy="179.5" r="17.5" style="fill:rgb(97,211,151);stroke:rgb(97,211,151);stroke-width:23.98px;"/>
        </g>
        <g transform="matrix(0.181587,0,0,0.25904,560.0132,218.352177)">
            <path d="M712,545.532L712,812.598C712,836.625 684.174,856.131 649.9,856.131L360.1,856.131C325.826,856.131 298,836.625 298,812.598L298,545.532C298,521.506 325.826,502 360.1,502L649.9,502C684.174,502 712,521.506 712,545.532Z" style="fill:rgb(97,211,151);"/>
        </g>
        <g transform="matrix(0.181587,0,0,0.25904,295.607615,218.352177)">
            <path d="M712,545.532L712,812.598C712,836.625 684.174,856.131 649.9,856.131L360.1,856.131C325.826,856.131 298,836.625 298,812.598L298,545.532C298,521.506 325.826,502 360.1,502L649.9,502C684.174,502 712,521.506 712,545.532Z" style="fill:rgb(97,211,151);"/>
        </g>
        <g transform="matrix(0.051505,0,0,0.244312,487.272129,31.648376)">
            <path d="M712,515.092L712,843.039C712,850.265 684.174,856.131 649.9,856.131L360.1,856.131C325.826,856.131 298,850.265 298,843.039L298,515.092C298,507.866 325.826,502 360.1,502L649.9,502C684.174,502 712,507.866 712,515.092Z" style="fill:rgb(97,211,151);"/>
        </g>
        <g transform="matrix(1.066152,0,0,1.09336,21.253165,-56.178836)">
            <circle cx="461.5" cy="179.5" r="17.5" style="fill:rgb(97,211,151);stroke:rgb(97,211,151);stroke-width:34.3px;"/>
        </g>
        <g transform="matrix(1.066152,0,0,1.09336,-29.96308,-79.051399)">
            <path d="M372,493C372,493 371.946,467 371.795,434.948C371.639,401.743 372.672,360.897 389.743,328.143C414.118,281.374 451.13,264.429 509.538,263.992C570.826,263.534 606.1,284.285 629.802,328C651.314,367.677 646.06,409.614 646.643,436.947C647.034,455.299 647.295,493 647.295,493L372,493Z" style="fill:rgb(31,31,31);stroke:rgb(97,211,151);stroke-width:34.3px;"/>
        </g>
        <g transform="matrix(-0.237785,0,0,-0.176653,632.982592,461.020887)">
            <path d="M372,493C372,493 371.946,467 371.795,434.948C371.639,401.743 372.672,360.897 389.743,328.143C414.118,281.374 451.13,264.429 509.538,263.992C570.826,263.534 606.1,284.285 629.802,328C651.314,367.677 646.06,409.614 646.643,436.947C647.034,455.299 647.295,493 647.295,493L372,493Z" style="fill:rgb(244,176,73);stroke:rgb(244,176,73);stroke-width:176.82px;"/>
        </g>
        <g transform="matrix(1,0,0,1,-15.697195,128.879537)">
            <circle cx="461.5" cy="179.5" r="17.5" style="fill:rgb(244,176,73);stroke:rgb(244,176,73);stroke-width:37.04px;"/>
        </g>
        <g transform="matrix(1,0,0,1,117.302805,128.879537)">
            <circle cx="461.5" cy="179.5" r="17.5" style="fill:rgb(244,176,73);stroke:rgb(244,176,73);stroke-width:37.04px;"/>
        </g>
        <g transform="matrix(1.126471,0,0,1,-72.905582,-7)">
            <path d="M550.308,756L498,756L511.077,686L537.231,686L550.308,756Z" style="fill:rgb(244,176,73);stroke:rgb(244,176,73);stroke-width:34.77px;"/>
        </g>
        <g transform="matrix(1,0,0,1,42.769214,23.796142)">
            <circle cx="474.769" cy="642.769" r="32.769" style="fill:rgb(244,176,73);stroke:rgb(244,176,73);stroke-width:37.04px;"/>
        </g>
    </g>
    <g transform="matrix(1.228212,0,0,1.228212,137.94661,-338.148114)">
        <g transform="matrix(96,0,0,96,741.088043,496.925134)">
        </g>
        <path d="M70.14 496.93L70.14 496.93Q69.76 496.93 69.33 496.73Q68.90 496.54 68.66 496.20Q68.42 495.87 68.42 495.39L68.42 495.39Q68.42 495.00 68.51 494.81L68.51 494.81L89.34 427.52Q89.54 426.75 90.02 426.46Q90.50 426.17 91.07 426.17L91.07 426.17Q91.65 426.17 92.18 426.51Q92.70 426.85 92.90 427.52L92.90 427.52L113.54 494.81Q113.63 495.00 113.63 495.29L113.63 495.29Q113.63 495.68 113.34 496.06Q113.06 496.44 112.62 496.69Q112.19 496.93 111.71 496.93L111.71 496.93Q111.23 496.93 110.80 496.64Q110.37 496.35 110.18 495.68L110.18 495.68L105.28 479.93L76.67 479.93L71.87 495.68Q71.68 496.35 71.20 496.64Q70.72 496.93 70.14 496.93ZM91.07 433.47L77.73 476.48L104.22 476.48L91.07 433.47ZM125.73 496.93L125.73 496.93Q125.06 496.93 124.53 496.49Q124.00 496.06 124.00 495.20L124.00 495.20L124.00 428.38Q124.00 427.52 124.53 427.13Q125.06 426.75 125.73 426.75L125.73 426.75Q126.40 426.75 126.93 427.13Q127.46 427.52 127.46 428.38L127.46 428.38L127.46 495.20Q127.46 496.06 126.93 496.49Q126.40 496.93 125.73 496.93ZM171.33 497.50L171.33 497.50Q165.76 497.50 161.87 494.38Q157.98 491.26 157.98 484.83L157.98 484.83Q157.98 479.74 160.82 477.00Q163.65 474.27 168.69 473.21Q173.73 472.16 180.35 472.16L180.35 472.16L185.73 472.16L185.73 469.47Q185.73 465.82 184.48 462.37Q183.23 458.91 180.45 456.65Q177.66 454.40 173.06 454.40L173.06 454.40Q170.08 454.40 168.06 455.02Q166.05 455.64 164.85 456.32Q163.65 456.99 163.07 456.99L163.07 456.99Q162.30 456.99 161.82 456.27Q161.34 455.55 161.34 455.07L161.34 455.07Q161.34 454.11 163.12 453.20Q164.90 452.29 167.63 451.66Q170.37 451.04 173.25 451.04L173.25 451.04Q179.20 451.04 182.66 453.68Q186.11 456.32 187.60 460.49Q189.09 464.67 189.09 469.47L189.09 469.47L189.09 495.20Q189.09 495.87 188.66 496.40Q188.22 496.93 187.46 496.93L187.46 496.93Q186.78 496.93 186.26 496.40Q185.73 495.87 185.73 495.20L185.73 495.20L185.73 490.20Q183.33 492.99 179.73 495.25Q176.13 497.50 171.33 497.50ZM171.23 494.14L171.23 494.14Q174.88 494.14 178.19 492.37Q181.50 490.59 183.62 488.09Q185.73 485.60 185.73 483.58L185.73 483.58L185.73 475.52L180.45 475.52Q175.55 475.52 171.18 476.09Q166.82 476.67 164.08 478.64Q161.34 480.61 161.34 484.83L161.34 484.83Q161.34 489.63 164.22 491.88Q167.10 494.14 171.23 494.14ZM216.93 519.68L216.93 519.68Q211.36 519.68 207.18 518.14Q203.01 516.61 200.66 513.82Q198.30 511.04 198.30 507.29L198.30 507.29Q198.30 502.88 201.04 500.33Q203.78 497.79 207.04 496.64L207.04 496.64Q204.45 495.87 202.82 494.38Q201.18 492.89 201.18 489.82L201.18 489.82Q201.18 487.13 202.48 485.65Q203.78 484.16 205.89 483.20L205.89 483.20Q203.49 481.09 202.19 477.97Q200.90 474.85 200.90 471.10L200.90 471.10L200.90 466.78Q200.90 462.17 202.82 458.62Q204.74 455.07 208.24 453.05Q211.74 451.04 216.35 451.04L216.35 451.04Q219.90 451.04 222.78 452.24Q225.66 453.44 227.78 455.64L227.78 455.64Q229.12 453.15 231.14 451.47Q233.15 449.79 234.98 449.79L234.98 449.79Q236.03 449.79 236.51 450.37Q236.99 450.94 236.99 451.71L236.99 451.71Q236.99 452.57 236.46 453.05Q235.94 453.53 235.26 453.53L235.26 453.53Q234.02 453.53 232.43 454.40Q230.85 455.26 229.50 457.95L229.50 457.95Q230.75 459.68 231.33 461.98Q231.90 464.29 231.90 466.78L231.90 466.78L231.90 471.10Q231.90 475.61 229.94 479.26Q227.97 482.91 224.42 484.97Q220.86 487.04 216.26 487.04L216.26 487.04Q211.84 487.04 208.38 485.02L208.38 485.02Q206.94 485.69 205.74 486.70Q204.54 487.71 204.54 489.63L204.54 489.63Q204.54 492.03 206.75 493.09Q208.96 494.14 212.42 494.53Q215.87 494.91 219.71 495.29Q223.55 495.68 227.01 496.73Q230.46 497.79 232.67 500.09Q234.88 502.40 234.88 506.72L234.88 506.72Q234.88 510.85 232.67 513.73Q230.46 516.61 226.48 518.14Q222.50 519.68 216.93 519.68ZM216.93 516.61L216.93 516.61Q224.03 516.61 227.78 513.92Q231.52 511.23 231.52 506.81L231.52 506.81Q231.52 503.36 229.36 501.58Q227.20 499.81 223.94 499.09Q220.67 498.37 217.36 498.13Q214.05 497.88 211.74 497.60L211.74 497.60Q207.90 498.65 204.78 500.81Q201.66 502.97 201.66 507.00L201.66 507.00Q201.66 511.23 205.65 513.92Q209.63 516.61 216.93 516.61ZM216.45 483.68L216.45 483.68Q222.11 483.68 225.33 480.08Q228.54 476.48 228.54 471.10L228.54 471.10L228.54 466.78Q228.54 461.50 225.33 457.95Q222.11 454.40 216.35 454.40L216.35 454.40Q210.59 454.40 207.42 457.95Q204.26 461.50 204.26 466.78L204.26 466.78L204.26 471.00Q204.26 476.38 207.47 480.03Q210.69 483.68 216.45 483.68ZM262.34 497.50L262.34 497.50Q256.67 497.50 252.30 495.29Q247.94 493.09 245.44 489.20Q242.94 485.31 242.94 480.03L242.94 480.03L242.94 468.03Q242.94 463.42 245.30 459.53Q247.65 455.64 251.54 453.34Q255.42 451.04 260.03 451.04L260.03 451.04Q264.54 451.04 268.43 453.29Q272.32 455.55 274.67 459.44Q277.02 463.32 277.02 468.32L277.02 468.32Q277.02 471.77 275.87 473.31Q274.72 474.85 272.94 475.18Q271.17 475.52 269.06 475.52L269.06 475.52L246.30 475.52L246.30 480.03Q246.30 486.56 250.91 490.35Q255.52 494.14 262.53 494.14L262.53 494.14Q266.56 494.14 268.67 493.13Q270.78 492.13 271.89 491.17Q272.99 490.20 273.86 490.20L273.86 490.20Q274.34 490.20 274.72 490.49Q275.10 490.78 275.34 491.17Q275.58 491.55 275.58 491.93L275.58 491.93Q275.58 492.80 274 494.14Q272.42 495.49 269.44 496.49Q266.46 497.50 262.34 497.50ZM246.30 468.03L246.30 472.16L267.90 472.16Q271.46 472.16 272.56 471.49Q273.66 470.81 273.66 468.61L273.66 468.61Q273.66 465.15 271.98 461.88Q270.30 458.62 267.23 456.51Q264.16 454.40 260.03 454.40L260.03 454.40Q256.19 454.40 253.07 456.32Q249.95 458.24 248.13 461.31Q246.30 464.38 246.30 468.03L246.30 468.03ZM288.93 496.93L288.93 496.93Q288.26 496.93 287.78 496.40Q287.30 495.87 287.30 495.20L287.30 495.20L287.30 453.25Q287.30 452.48 287.78 452.05Q288.26 451.61 288.93 451.61L288.93 451.61Q289.70 451.61 290.18 452.05Q290.66 452.48 290.66 453.25L290.66 453.25L290.66 458.33Q292.29 455.55 295.50 453.29Q298.72 451.04 303.52 451.04L303.52 451.04Q308.22 451.04 312.16 453.39Q316.10 455.74 318.45 459.63Q320.80 463.52 320.80 468.32L320.80 468.32L320.80 495.20Q320.80 496.06 320.27 496.49Q319.74 496.93 319.07 496.93L319.07 496.93Q318.50 496.93 317.97 496.49Q317.44 496.06 317.44 495.20L317.44 495.20L317.44 468.32Q317.44 464.76 315.57 461.60Q313.70 458.43 310.62 456.41Q307.55 454.40 303.81 454.40L303.81 454.40Q300.54 454.40 297.52 456.08Q294.50 457.76 292.58 460.83Q290.66 463.90 290.66 468.32L290.66 468.32L290.66 495.20Q290.66 495.87 290.18 496.40Q289.70 496.93 288.93 496.93ZM349.50 496.93L347.30 496.93Q340.48 496.93 336.88 493.76Q333.28 490.59 333.28 483.58L333.28 483.58L333.28 431.07Q333.28 430.30 333.81 429.87Q334.34 429.44 334.91 429.44L334.91 429.44Q335.58 429.44 336.11 429.87Q336.64 430.30 336.64 431.07L336.64 431.07L336.64 451.61L349.60 451.61Q350.27 451.61 350.75 452.09Q351.23 452.57 351.23 453.34L351.23 453.34Q351.23 454.01 350.75 454.49Q350.27 454.97 349.60 454.97L349.60 454.97L336.64 454.97L336.64 483.58Q336.64 489.05 339.04 491.31Q341.44 493.56 347.30 493.56L347.30 493.56L349.50 493.56Q350.18 493.56 350.66 494.00Q351.14 494.43 351.14 495.20L351.14 495.20Q351.14 495.87 350.66 496.40Q350.18 496.93 349.50 496.93L349.50 496.93ZM394.14 497.50L394.14 497.50Q389.63 497.50 385.70 495.05Q381.76 492.61 379.41 488.57Q377.06 484.54 377.06 480.03L377.06 480.03L377.06 468.32Q377.06 463.52 379.41 459.63Q381.76 455.74 385.70 453.39Q389.63 451.04 394.34 451.04L394.34 451.04Q399.14 451.04 402.40 453.29Q405.66 455.55 407.20 458.33L407.20 458.33L407.20 424.83Q407.20 424.06 407.73 423.63Q408.26 423.20 408.93 423.20L408.93 423.20Q409.70 423.20 410.13 423.63Q410.56 424.06 410.56 424.83L410.56 424.83L410.56 495.20Q410.56 495.87 410.13 496.40Q409.70 496.93 408.93 496.93L408.93 496.93Q408.26 496.93 407.73 496.40Q407.20 495.87 407.20 495.20L407.20 495.20L407.20 490.20Q405.66 493.18 402.11 495.34Q398.56 497.50 394.14 497.50ZM393.95 494.14L393.95 494.14Q397.79 494.14 400.77 492.17Q403.74 490.20 405.47 487.71Q407.20 485.21 407.20 483.58L407.20 483.58L407.20 468.32Q407.20 463.90 405.28 460.83Q403.36 457.76 400.34 456.08Q397.31 454.40 394.05 454.40L394.05 454.40Q390.30 454.40 387.23 456.41Q384.16 458.43 382.29 461.60Q380.42 464.76 380.42 468.32L380.42 468.32L380.42 480.03Q380.42 483.58 382.29 486.85Q384.16 490.11 387.23 492.13Q390.30 494.14 393.95 494.14ZM433.89 497.50L433.89 497.50Q428.32 497.50 424.43 494.38Q420.54 491.26 420.54 484.83L420.54 484.83Q420.54 479.74 423.38 477.00Q426.21 474.27 431.25 473.21Q436.29 472.16 442.91 472.16L442.91 472.16L448.29 472.16L448.29 469.47Q448.29 465.82 447.04 462.37Q445.79 458.91 443.01 456.65Q440.22 454.40 435.62 454.40L435.62 454.40Q432.64 454.40 430.62 455.02Q428.61 455.64 427.41 456.32Q426.21 456.99 425.63 456.99L425.63 456.99Q424.86 456.99 424.38 456.27Q423.90 455.55 423.90 455.07L423.90 455.07Q423.90 454.11 425.68 453.20Q427.46 452.29 430.19 451.66Q432.93 451.04 435.81 451.04L435.81 451.04Q441.76 451.04 445.22 453.68Q448.67 456.32 450.16 460.49Q451.65 464.67 451.65 469.47L451.65 469.47L451.65 495.20Q451.65 495.87 451.22 496.40Q450.78 496.93 450.02 496.93L450.02 496.93Q449.34 496.93 448.82 496.40Q448.29 495.87 448.29 495.20L448.29 495.20L448.29 490.20Q445.89 492.99 442.29 495.25Q438.69 497.50 433.89 497.50ZM433.79 494.14L433.79 494.14Q437.44 494.14 440.75 492.37Q444.06 490.59 446.18 488.09Q448.29 485.60 448.29 483.58L448.29 483.58L448.29 475.52L443.01 475.52Q438.11 475.52 433.74 476.09Q429.38 476.67 426.64 478.64Q423.90 480.61 423.90 484.83L423.90 484.83Q423.90 489.63 426.78 491.88Q429.66 494.14 433.79 494.14ZM475.46 497.50L475.46 497.50Q471.14 497.50 468.02 496.40Q464.90 495.29 463.17 493.85Q461.44 492.41 461.44 491.26L461.44 491.26Q461.44 490.78 461.63 490.44Q461.82 490.11 462.16 489.87Q462.50 489.63 462.78 489.63L462.78 489.63Q463.65 489.63 464.85 490.73Q466.05 491.84 468.45 492.99Q470.85 494.14 475.36 494.14L475.36 494.14Q481.41 494.14 484.00 491.79Q486.59 489.44 486.59 486.17L486.59 486.17Q486.59 482.43 484.86 480.37Q483.14 478.30 480.35 477.20Q477.57 476.09 474.50 475.23Q471.42 474.37 468.64 473.17Q465.86 471.97 464.13 469.71Q462.40 467.45 462.40 463.52L462.40 463.52Q462.40 460.64 463.89 457.76Q465.38 454.88 468.50 452.96Q471.62 451.04 476.61 451.04L476.61 451.04Q479.49 451.04 482.18 451.66Q484.86 452.29 486.59 453.20Q488.32 454.11 488.32 455.07L488.32 455.07Q488.32 455.36 488.08 455.84Q487.84 456.32 487.50 456.65Q487.17 456.99 486.69 456.99L486.69 456.99Q486.11 456.99 484.86 456.32Q483.62 455.64 481.60 455.02Q479.58 454.40 476.70 454.40L476.70 454.40Q472.67 454.40 470.27 455.88Q467.87 457.37 466.82 459.44Q465.76 461.50 465.76 463.42L465.76 463.42Q465.76 466.59 467.49 468.32Q469.22 470.05 472.00 471.00Q474.78 471.97 477.86 472.83Q480.93 473.69 483.71 475.09Q486.50 476.48 488.22 479.02Q489.95 481.56 489.95 485.98L489.95 485.98Q489.95 491.26 486.11 494.38Q482.27 497.50 475.46 497.50ZM501.86 496.93L501.86 496.93Q501.18 496.93 500.70 496.40Q500.22 495.87 500.22 495.20L500.22 495.20L500.22 424.83Q500.22 424.06 500.70 423.63Q501.18 423.20 501.86 423.20L501.86 423.20Q502.62 423.20 503.10 423.63Q503.58 424.06 503.58 424.83L503.58 424.83L503.58 458.33Q505.22 455.55 508.43 453.29Q511.65 451.04 516.45 451.04L516.45 451.04Q521.15 451.04 525.09 453.39Q529.02 455.74 531.38 459.63Q533.73 463.52 533.73 468.32L533.73 468.32L533.73 495.20Q533.73 496.06 533.20 496.49Q532.67 496.93 532 496.93L532 496.93Q531.42 496.93 530.90 496.49Q530.37 496.06 530.37 495.20L530.37 495.20L530.37 468.32Q530.37 464.76 528.50 461.60Q526.62 458.43 523.55 456.41Q520.48 454.40 516.74 454.40L516.74 454.40Q513.47 454.40 510.45 456.08Q507.42 457.76 505.50 460.83Q503.58 463.90 503.58 468.32L503.58 468.32L503.58 495.20Q503.58 495.87 503.10 496.40Q502.62 496.93 501.86 496.93ZM562.91 497.50L562.91 497.50Q558.50 497.50 554.99 495.34Q551.49 493.18 549.86 490.20L549.86 490.20L549.86 495.20Q549.86 495.87 549.38 496.40Q548.90 496.93 548.13 496.93L548.13 496.93Q547.46 496.93 546.98 496.40Q546.50 495.87 546.50 495.20L546.50 495.20L546.50 424.83Q546.50 424.06 546.98 423.63Q547.46 423.20 548.13 423.20L548.13 423.20Q548.90 423.20 549.38 423.63Q549.86 424.06 549.86 424.83L549.86 424.83L549.86 458.33Q551.49 455.55 554.70 453.29Q557.92 451.04 562.72 451.04L562.72 451.04Q567.42 451.04 571.36 453.39Q575.30 455.74 577.65 459.63Q580.00 463.52 580.00 468.32L580.00 468.32L580.00 480.03Q580.00 484.54 577.65 488.57Q575.30 492.61 571.41 495.05Q567.52 497.50 562.91 497.50ZM563.10 494.14L563.10 494.14Q566.75 494.14 569.82 492.13Q572.90 490.11 574.77 486.85Q576.64 483.58 576.64 480.03L576.64 480.03L576.64 468.32Q576.64 464.76 574.77 461.60Q572.90 458.43 569.82 456.41Q566.75 454.40 563.01 454.40L563.01 454.40Q559.74 454.40 556.72 456.08Q553.70 457.76 551.78 460.83Q549.86 463.90 549.86 468.32L549.86 468.32L549.86 483.58Q549.86 485.21 551.58 487.71Q553.31 490.20 556.34 492.17Q559.36 494.14 563.10 494.14ZM606.59 497.50L606.59 497.50Q602.08 497.50 598.19 495.05Q594.30 492.61 591.95 488.62Q589.60 484.64 589.60 480.03L589.60 480.03L589.60 468.32Q589.60 463.71 591.90 459.77Q594.21 455.84 598.10 453.44Q601.98 451.04 606.59 451.04L606.59 451.04Q611.20 451.04 615.09 453.39Q618.98 455.74 621.33 459.63Q623.68 463.52 623.68 468.32L623.68 468.32L623.68 480.03Q623.68 484.54 621.33 488.57Q618.98 492.61 615.09 495.05Q611.20 497.50 606.59 497.50ZM606.59 494.14L606.59 494.14Q610.43 494.14 613.50 492.13Q616.58 490.11 618.45 486.85Q620.32 483.58 620.32 480.03L620.32 480.03L620.32 468.32Q620.32 464.76 618.50 461.60Q616.67 458.43 613.55 456.41Q610.43 454.40 606.59 454.40L606.59 454.40Q602.75 454.40 599.68 456.41Q596.61 458.43 594.78 461.60Q592.96 464.76 592.96 468.32L592.96 468.32L592.96 480.03Q592.96 483.58 594.78 486.85Q596.61 490.11 599.73 492.13Q602.85 494.14 606.59 494.14ZM645.18 497.50L645.18 497.50Q639.62 497.50 635.73 494.38Q631.84 491.26 631.84 484.83L631.84 484.83Q631.84 479.74 634.67 477.00Q637.50 474.27 642.54 473.21Q647.58 472.16 654.21 472.16L654.21 472.16L659.58 472.16L659.58 469.47Q659.58 465.82 658.34 462.37Q657.09 458.91 654.30 456.65Q651.52 454.40 646.91 454.40L646.91 454.40Q643.94 454.40 641.92 455.02Q639.90 455.64 638.70 456.32Q637.50 456.99 636.93 456.99L636.93 456.99Q636.16 456.99 635.68 456.27Q635.20 455.55 635.20 455.07L635.20 455.07Q635.20 454.11 636.98 453.20Q638.75 452.29 641.49 451.66Q644.22 451.04 647.10 451.04L647.10 451.04Q653.06 451.04 656.51 453.68Q659.97 456.32 661.46 460.49Q662.94 464.67 662.94 469.47L662.94 469.47L662.94 495.20Q662.94 495.87 662.51 496.40Q662.08 496.93 661.31 496.93L661.31 496.93Q660.64 496.93 660.11 496.40Q659.58 495.87 659.58 495.20L659.58 495.20L659.58 490.20Q657.18 492.99 653.58 495.25Q649.98 497.50 645.18 497.50ZM645.09 494.14L645.09 494.14Q648.74 494.14 652.05 492.37Q655.36 490.59 657.47 488.09Q659.58 485.60 659.58 483.58L659.58 483.58L659.58 475.52L654.30 475.52Q649.41 475.52 645.04 476.09Q640.67 476.67 637.94 478.64Q635.20 480.61 635.20 484.83L635.20 484.83Q635.20 489.63 638.08 491.88Q640.96 494.14 645.09 494.14ZM677.25 496.93L677.25 496.93Q676.58 496.93 676.10 496.40Q675.62 495.87 675.62 495.20L675.62 495.20L675.62 453.25Q675.62 452.48 676.10 452.05Q676.58 451.61 677.25 451.61L677.25 451.61Q678.02 451.61 678.50 452.05Q678.98 452.48 678.98 453.25L678.98 453.25L678.98 458.33Q680.13 456.41 681.95 454.78Q683.78 453.15 686.37 452.09Q688.96 451.04 692.32 451.04L692.32 451.04L695.87 451.04Q696.54 451.04 697.02 451.52Q697.50 452.00 697.50 452.76L697.50 452.76Q697.50 453.44 697.02 453.92Q696.54 454.40 695.87 454.40L695.87 454.40L692.32 454.40Q688.96 454.40 685.89 456.08Q682.82 457.76 680.90 460.83Q678.98 463.90 678.98 468.32L678.98 468.32L678.98 495.20Q678.98 495.87 678.50 496.40Q678.02 496.93 677.25 496.93ZM718.05 497.50L718.05 497.50Q713.54 497.50 709.60 495.05Q705.66 492.61 703.31 488.57Q700.96 484.54 700.96 480.03L700.96 480.03L700.96 468.32Q700.96 463.52 703.31 459.63Q705.66 455.74 709.60 453.39Q713.54 451.04 718.24 451.04L718.24 451.04Q723.04 451.04 726.30 453.29Q729.57 455.55 731.10 458.33L731.10 458.33L731.10 424.83Q731.10 424.06 731.63 423.63Q732.16 423.20 732.83 423.20L732.83 423.20Q733.60 423.20 734.03 423.63Q734.46 424.06 734.46 424.83L734.46 424.83L734.46 495.20Q734.46 495.87 734.03 496.40Q733.60 496.93 732.83 496.93L732.83 496.93Q732.16 496.93 731.63 496.40Q731.10 495.87 731.10 495.20L731.10 495.20L731.10 490.20Q729.57 493.18 726.02 495.34Q722.46 497.50 718.05 497.50ZM717.86 494.14L717.86 494.14Q721.70 494.14 724.67 492.17Q727.65 490.20 729.38 487.71Q731.10 485.21 731.10 483.58L731.10 483.58L731.10 468.32Q731.10 463.90 729.18 460.83Q727.26 457.76 724.24 456.08Q721.22 454.40 717.95 454.40L717.95 454.40Q714.21 454.40 711.14 456.41Q708.06 458.43 706.19 461.60Q704.32 464.76 704.32 468.32L704.32 468.32L704.32 480.03Q704.32 483.58 706.19 486.85Q708.06 490.11 711.14 492.13Q714.21 494.14 717.86 494.14Z" style="fill:rgb(244,176,73);"/>
    </g>
</svg>
