<?xml version="1.0" encoding="UTF-8" standalone="no"?>
<!DOCTYPE svg PUBLIC "-//W3C//DTD SVG 1.1//EN" "http://www.w3.org/Graphics/SVG/1.1/DTD/svg11.dtd">
<svg width="100%" height="100%" viewBox="0 0 563 261" version="1.1" xmlns="http://www.w3.org/2000/svg" xmlns:xlink="http://www.w3.org/1999/xlink" xml:space="preserve" xmlns:serif="http://www.serif.com/" style="fill-rule:evenodd;clip-rule:evenodd;stroke-linecap:round;stroke-linejoin:round;stroke-miterlimit:1.5;">
    <g transform="matrix(1,0,0,1,-37.648309,-24.488371)">
        <g transform="matrix(1,0,0,1,-269,-137)">
            <path d="M309.648,375.459C338.667,381.982 350.041,320.9 372.936,315C384.379,312.051 379.7,389.714 409.54,383.893C416.627,382.511 461.218,325.213 471.254,325.596C518.132,327.388 549.887,349.875 563.867,346.392C588.261,340.315 588.992,319.76 606.867,315C615.655,312.66 622.926,321.043 635.299,324.572C670.476,334.603 658.581,200.597 715.584,242.205C759.362,274.159 809.809,232.01 821.745,263.01" style="fill:none;stroke:rgb(97,211,151);stroke-width:4.1px;"/>
        </g>
        <g transform="matrix(13.997663,0,0,13.997663,-1045.655237,-7073.542025)">
            <g transform="matrix(11.223832,0,0,11.223832,105.22685,523.034759)">
            </g>
            <text x="76.965px" y="523.035px" style="font-family:'Dosis-ExtraLight', 'Dosis';font-weight:200;font-size:11.224px;fill:rgb(244,176,73);">sign-in</text>
        </g>
        <g transform="matrix(-0.252968,-0.072748,0.072748,-0.252968,623.913199,325.452863)">
            <g transform="matrix(0.937198,0,0,0.9407,54.662214,-29.392558)">
                <path d="M712,555.12L712,803.011C712,832.329 688.109,856.131 658.682,856.131L351.318,856.131C321.891,856.131 298,832.329 298,803.011L298,555.12C298,525.802 321.891,502 351.318,502L658.682,502C688.109,502 712,525.802 712,555.12Z" style="fill:rgb(97,211,151);"/>
            </g>
            <g transform="matrix(0.223176,-0,0,0.559408,336.745354,521.53109)">
                <path d="M712,526.775L712,831.356C712,845.029 684.174,856.131 649.9,856.131L360.1,856.131C325.826,856.131 298,845.029 298,831.356L298,526.775C298,513.101 325.826,502 360.1,502L649.9,502C684.174,502 712,513.101 712,526.775Z" style="fill:rgb(97,211,151);"/>
            </g>
            <g transform="matrix(0.223176,-0,0,0.559408,512.649365,521.105456)">
                <path d="M712,526.775L712,831.356C712,845.029 684.174,856.131 649.9,856.131L360.1,856.131C325.826,856.131 298,845.029 298,831.356L298,526.775C298,513.101 325.826,502 360.1,502L649.9,502C684.174,502 712,513.101 712,526.775Z" style="fill:rgb(97,211,151);"/>
            </g>
            <g transform="matrix(1.544492,-0.030444,-0.030444,-1.544492,-431.239289,547.583314)">
                <circle cx="461.5" cy="179.5" r="17.5" style="fill:rgb(97,211,151);stroke:rgb(97,211,151);stroke-width:9.59px;"/>
            </g>
            <g transform="matrix(0.164219,-0.003237,-0.012917,-0.655291,205.433751,871.438344)">
                <path d="M712,517.563L712,840.568C712,849.157 684.174,856.131 649.9,856.131L360.1,856.131C325.826,856.131 298,849.157 298,840.568L298,517.563C298,508.973 325.826,502 360.1,502L649.9,502C684.174,502 712,508.973 712,517.563Z" style="fill:rgb(97,211,151);"/>
            </g>
            <g transform="matrix(0.164232,-0.002504,-0.009994,-0.655342,698.498938,861.343036)">
                <path d="M712,517.563L712,840.568C712,849.157 684.174,856.131 649.9,856.131L360.1,856.131C325.826,856.131 298,849.157 298,840.568L298,517.563C298,508.973 325.826,502 360.1,502L649.9,502C684.174,502 712,508.973 712,517.563Z" style="fill:rgb(97,211,151);"/>
            </g>
            <g transform="matrix(1.544613,-0.023555,-0.023555,-1.544613,63.276762,534.651394)">
                <circle cx="461.5" cy="179.5" r="17.5" style="fill:rgb(97,211,151);stroke:rgb(97,211,151);stroke-width:9.59px;"/>
            </g>
            <g transform="matrix(0.181587,0,0,0.25904,563.806555,151.486005)">
                <path d="M712,545.532L712,812.598C712,836.625 684.174,856.131 649.9,856.131L360.1,856.131C325.826,856.131 298,836.625 298,812.598L298,545.532C298,521.506 325.826,502 360.1,502L649.9,502C684.174,502 712,521.506 712,545.532Z" style="fill:rgb(97,211,151);"/>
            </g>
            <g transform="matrix(0.181587,0,0,0.25904,299.40097,151.486005)">
                <path d="M712,545.532L712,812.598C712,836.625 684.174,856.131 649.9,856.131L360.1,856.131C325.826,856.131 298,836.625 298,812.598L298,545.532C298,521.506 325.826,502 360.1,502L649.9,502C684.174,502 712,521.506 712,545.532Z" style="fill:rgb(97,211,151);"/>
            </g>
            <g transform="matrix(0.051505,0,0,0.244312,496.762393,-21.604851)">
                <path d="M712,515.092L712,843.039C712,850.265 684.174,856.131 649.9,856.131L360.1,856.131C325.826,856.131 298,850.265 298,843.039L298,515.092C298,507.866 325.826,502 360.1,502L649.9,502C684.174,502 712,507.866 712,515.092Z" style="fill:rgb(97,211,151);"/>
            </g>
            <g transform="matrix(1.066152,0,0,1.09336,30.743429,-109.432063)">
                <circle cx="461.5" cy="179.5" r="17.5" style="fill:rgb(97,211,151);stroke:rgb(97,211,151);stroke-width:13.72px;"/>
            </g>
            <g transform="matrix(1.066152,0,0,1.09336,-20.472816,-132.304625)">
                <path d="M372,493C372,493 371.946,467 371.795,434.948C371.639,401.743 372.672,360.897 389.743,328.143C414.118,281.374 451.13,264.429 509.538,263.992C570.826,263.534 606.1,284.285 629.802,328C651.314,367.677 646.06,409.614 646.643,436.947C647.034,455.299 647.295,493 647.295,493L372,493Z" style="fill:rgb(31,31,31);stroke:rgb(97,211,151);stroke-width:13.72px;"/>
            </g>
            <g transform="matrix(-0.237785,0,0,-0.176653,642.472856,407.767661)">
                <path d="M372,493C372,493 371.946,467 371.795,434.948C371.639,401.743 372.672,360.897 389.743,328.143C414.118,281.374 451.13,264.429 509.538,263.992C570.826,263.534 606.1,284.285 629.802,328C651.314,367.677 646.06,409.614 646.643,436.947C647.034,455.299 647.295,493 647.295,493L372,493Z" style="fill:rgb(244,176,73);stroke:rgb(244,176,73);stroke-width:70.74px;"/>
            </g>
            <g transform="matrix(1,0,0,1,-6.206931,75.626311)">
                <circle cx="461.5" cy="179.5" r="17.5" style="fill:rgb(244,176,73);stroke:rgb(244,176,73);stroke-width:14.82px;"/>
            </g>
            <g transform="matrix(1,0,0,1,126.793069,75.626311)">
                <circle cx="461.5" cy="179.5" r="17.5" style="fill:rgb(244,176,73);stroke:rgb(244,176,73);stroke-width:14.82px;"/>
            </g>
            <g transform="matrix(1.126471,0,0,1,-72.905582,-7)">
                <path d="M550.308,756L498,756L511.077,686L537.231,686L550.308,756Z" style="fill:rgb(244,176,73);stroke:rgb(244,176,73);stroke-width:13.91px;"/>
            </g>
            <g transform="matrix(1,0,0,1,42.769214,23.796142)">
                <circle cx="474.769" cy="642.769" r="32.769" style="fill:rgb(244,176,73);stroke:rgb(244,176,73);stroke-width:14.82px;"/>
            </g>
        </g>
    </g>
</svg>
