<?xml version="1.0" encoding="UTF-8" standalone="no"?>
<!DOCTYPE svg PUBLIC "-//W3C//DTD SVG 1.1//EN" "http://www.w3.org/Graphics/SVG/1.1/DTD/svg11.dtd">
<svg width="100%" height="100%" viewBox="0 0 563 261" version="1.1" xmlns="http://www.w3.org/2000/svg" xmlns:xlink="http://www.w3.org/1999/xlink" xml:space="preserve" xmlns:serif="http://www.serif.com/" style="fill-rule:evenodd;clip-rule:evenodd;stroke-linecap:round;stroke-linejoin:round;stroke-miterlimit:1.5;">
    <g transform="matrix(1,0,0,1,-37.648309,-24.488371)">
        <g transform="matrix(1,0,0,1,-269,-137)">
            <path d="M309.648,375.459C338.667,381.982 350.041,320.9 372.936,315C384.379,312.051 379.7,389.714 409.54,383.893C416.627,382.511 461.218,325.213 471.254,325.596C518.132,327.388 549.887,349.875 563.867,346.392C588.261,340.315 588.992,319.76 606.867,315C615.655,312.66 622.926,321.043 635.299,324.572C670.476,334.603 658.581,200.597 715.584,242.205C759.362,274.159 809.809,232.01 821.745,263.01" style="fill:none;stroke:rgb(97,211,151);stroke-width:4.1px;"/>
        </g>
        <g transform="matrix(13.997663,0,0,13.997663,-1045.655237,-7073.542025)">
            <g transform="matrix(11.223832,0,0,11.223832,105.22685,523.034759)">
            </g>
            <path d="M79.03 523.10L79.03 523.10Q78.53 523.10 78.16 522.97Q77.80 522.84 77.59 522.68Q77.39 522.51 77.39 522.37L77.39 522.37Q77.39 522.32 77.41 522.28Q77.44 522.24 77.48 522.21Q77.51 522.18 77.55 522.18L77.55 522.18Q77.65 522.18 77.79 522.31Q77.93 522.44 78.21 522.57Q78.49 522.71 79.02 522.71L79.02 522.71Q79.73 522.71 80.03 522.43Q80.33 522.16 80.33 521.78L80.33 521.78Q80.33 521.34 80.13 521.10Q79.93 520.86 79.60 520.73Q79.28 520.60 78.92 520.50Q78.56 520.40 78.23 520.26Q77.91 520.12 77.71 519.85Q77.50 519.59 77.50 519.13L77.50 519.13Q77.50 518.79 77.68 518.46Q77.85 518.12 78.22 517.89Q78.58 517.67 79.16 517.67L79.16 517.67Q79.50 517.67 79.82 517.74Q80.13 517.82 80.33 517.92Q80.53 518.03 80.53 518.14L80.53 518.14Q80.53 518.18 80.51 518.23Q80.48 518.29 80.44 518.33Q80.40 518.37 80.34 518.37L80.34 518.37Q80.28 518.37 80.13 518.29Q79.98 518.21 79.75 518.14Q79.51 518.06 79.18 518.06L79.18 518.06Q78.70 518.06 78.42 518.24Q78.14 518.41 78.02 518.65Q77.90 518.89 77.90 519.12L77.90 519.12Q77.90 519.49 78.10 519.69Q78.30 519.89 78.63 520.00Q78.95 520.12 79.31 520.22Q79.67 520.32 80.00 520.48Q80.32 520.64 80.52 520.94Q80.73 521.24 80.73 521.76L80.73 521.76Q80.73 522.37 80.28 522.74Q79.83 523.10 79.03 523.10ZM82.12 515.99L82.12 515.99Q81.97 515.99 81.86 515.88Q81.76 515.77 81.76 515.63L81.76 515.63Q81.76 515.48 81.86 515.38Q81.97 515.28 82.12 515.28L82.12 515.28Q82.26 515.28 82.36 515.38Q82.46 515.48 82.46 515.63L82.46 515.63Q82.46 515.77 82.36 515.88Q82.26 515.99 82.12 515.99ZM82.11 523.03L82.11 523.03Q82.03 523.03 81.97 522.97Q81.91 522.91 81.91 522.83L81.91 522.83L81.91 517.93Q81.91 517.84 81.97 517.79Q82.03 517.74 82.11 517.74L82.11 517.74Q82.20 517.74 82.25 517.79Q82.31 517.84 82.31 517.93L82.31 517.93L82.31 522.83Q82.31 522.91 82.25 522.97Q82.20 523.03 82.11 523.03ZM85.61 525.70L85.61 525.70Q84.96 525.70 84.47 525.52Q83.98 525.34 83.71 525.01Q83.43 524.68 83.43 524.25L83.43 524.25Q83.43 523.73 83.75 523.43Q84.07 523.14 84.45 523.00L84.45 523.00Q84.15 522.91 83.96 522.74Q83.77 522.56 83.77 522.20L83.77 522.20Q83.77 521.89 83.92 521.72Q84.07 521.54 84.32 521.43L84.32 521.43Q84.04 521.18 83.88 520.82Q83.73 520.45 83.73 520.02L83.73 520.02L83.73 519.51Q83.73 518.97 83.96 518.56Q84.18 518.14 84.59 517.91Q85.00 517.67 85.54 517.67L85.54 517.67Q85.96 517.67 86.29 517.81Q86.63 517.95 86.88 518.21L86.88 518.21Q87.03 517.92 87.27 517.72Q87.50 517.52 87.72 517.52L87.72 517.52Q87.84 517.52 87.90 517.59Q87.95 517.66 87.95 517.75L87.95 517.75Q87.95 517.85 87.89 517.91Q87.83 517.96 87.75 517.96L87.75 517.96Q87.61 517.96 87.42 518.06Q87.23 518.16 87.08 518.48L87.08 518.48Q87.22 518.68 87.29 518.95Q87.36 519.22 87.36 519.51L87.36 519.51L87.36 520.02Q87.36 520.54 87.13 520.97Q86.90 521.40 86.48 521.64Q86.07 521.88 85.53 521.88L85.53 521.88Q85.01 521.88 84.61 521.64L84.61 521.64Q84.44 521.72 84.30 521.84Q84.16 521.96 84.16 522.18L84.16 522.18Q84.16 522.46 84.42 522.59Q84.68 522.71 85.08 522.75Q85.48 522.80 85.93 522.84Q86.38 522.89 86.79 523.01Q87.19 523.14 87.45 523.41Q87.71 523.67 87.71 524.18L87.71 524.18Q87.71 524.66 87.45 525.00Q87.19 525.34 86.72 525.52Q86.26 525.70 85.61 525.70ZM85.61 525.34L85.61 525.34Q86.44 525.34 86.88 525.02Q87.31 524.71 87.31 524.19L87.31 524.19Q87.31 523.79 87.06 523.58Q86.81 523.37 86.43 523.29Q86.05 523.20 85.66 523.18Q85.27 523.15 85.00 523.11L85.00 523.11Q84.55 523.24 84.19 523.49Q83.82 523.74 83.82 524.21L83.82 524.21Q83.82 524.71 84.29 525.02Q84.75 525.34 85.61 525.34ZM85.55 521.49L85.55 521.49Q86.21 521.49 86.59 521.07Q86.97 520.64 86.97 520.02L86.97 520.02L86.97 519.51Q86.97 518.89 86.59 518.48Q86.21 518.06 85.54 518.06L85.54 518.06Q84.87 518.06 84.50 518.48Q84.13 518.89 84.13 519.51L84.13 519.51L84.13 520.00Q84.13 520.63 84.50 521.06Q84.88 521.49 85.55 521.49ZM89.03 523.03L89.03 523.03Q88.95 523.03 88.90 522.97Q88.84 522.91 88.84 522.83L88.84 522.83L88.84 517.93Q88.84 517.84 88.90 517.79Q88.95 517.74 89.03 517.74L89.03 517.74Q89.12 517.74 89.18 517.79Q89.23 517.84 89.23 517.93L89.23 517.93L89.23 518.52Q89.42 518.20 89.80 517.93Q90.18 517.67 90.74 517.67L90.74 517.67Q91.29 517.67 91.75 517.94Q92.21 518.22 92.48 518.67Q92.76 519.13 92.76 519.69L92.76 519.69L92.76 522.83Q92.76 522.93 92.70 522.98Q92.63 523.03 92.56 523.03L92.56 523.03Q92.49 523.03 92.43 522.98Q92.36 522.93 92.36 522.83L92.36 522.83L92.36 519.69Q92.36 519.27 92.15 518.90Q91.93 518.53 91.57 518.30Q91.21 518.06 90.77 518.06L90.77 518.06Q90.39 518.06 90.04 518.26Q89.68 518.46 89.46 518.81Q89.23 519.17 89.23 519.69L89.23 519.69L89.23 522.83Q89.23 522.91 89.18 522.97Q89.12 523.03 89.03 523.03ZM97.15 520.53L94.23 520.53Q94.15 520.53 94.09 520.48Q94.04 520.42 94.04 520.34L94.04 520.34Q94.04 520.25 94.09 520.20Q94.15 520.14 94.23 520.14L94.23 520.14L97.15 520.14Q97.22 520.14 97.29 520.20Q97.35 520.25 97.35 520.34L97.35 520.34Q97.35 520.42 97.29 520.48Q97.22 520.53 97.15 520.53L97.15 520.53ZM98.87 515.99L98.87 515.99Q98.73 515.99 98.62 515.88Q98.52 515.77 98.52 515.63L98.52 515.63Q98.52 515.48 98.62 515.38Q98.73 515.28 98.87 515.28L98.87 515.28Q99.02 515.28 99.12 515.38Q99.22 515.48 99.22 515.63L99.22 515.63Q99.22 515.77 99.12 515.88Q99.02 515.99 98.87 515.99ZM98.86 523.03L98.86 523.03Q98.78 523.03 98.73 522.97Q98.67 522.91 98.67 522.83L98.67 522.83L98.67 517.93Q98.67 517.84 98.73 517.79Q98.78 517.74 98.86 517.74L98.86 517.74Q98.95 517.74 99.01 517.79Q99.07 517.84 99.07 517.93L99.07 517.93L99.07 522.83Q99.07 522.91 99.01 522.97Q98.95 523.03 98.86 523.03ZM100.78 523.03L100.78 523.03Q100.70 523.03 100.65 522.97Q100.59 522.91 100.59 522.83L100.59 522.83L100.59 517.93Q100.59 517.84 100.65 517.79Q100.70 517.74 100.78 517.74L100.78 517.74Q100.87 517.74 100.93 517.79Q100.98 517.84 100.98 517.93L100.98 517.93L100.98 518.52Q101.18 518.20 101.55 517.93Q101.93 517.67 102.49 517.67L102.49 517.67Q103.04 517.67 103.50 517.94Q103.96 518.22 104.23 518.67Q104.51 519.13 104.51 519.69L104.51 519.69L104.51 522.83Q104.51 522.93 104.45 522.98Q104.39 523.03 104.31 523.03L104.31 523.03Q104.24 523.03 104.18 522.98Q104.12 522.93 104.12 522.83L104.12 522.83L104.12 519.69Q104.12 519.27 103.90 518.90Q103.68 518.53 103.32 518.30Q102.96 518.06 102.52 518.06L102.52 518.06Q102.14 518.06 101.79 518.26Q101.43 518.46 101.21 518.81Q100.98 519.17 100.98 519.69L100.98 519.69L100.98 522.83Q100.98 522.91 100.93 522.97Q100.87 523.03 100.78 523.03Z" style="fill:rgb(244,176,73);"/>
        </g>
        <g transform="matrix(-0.252968,-0.072748,0.072748,-0.252968,623.913199,325.452863)">
            <g transform="matrix(0.937198,0,0,0.9407,54.662214,-29.392558)">
                <path d="M712,555.12L712,803.011C712,832.329 688.109,856.131 658.682,856.131L351.318,856.131C321.891,856.131 298,832.329 298,803.011L298,555.12C298,525.802 321.891,502 351.318,502L658.682,502C688.109,502 712,525.802 712,555.12Z" style="fill:rgb(97,211,151);"/>
            </g>
            <g transform="matrix(0.223176,-0,0,0.559408,336.745354,521.53109)">
                <path d="M712,526.775L712,831.356C712,845.029 684.174,856.131 649.9,856.131L360.1,856.131C325.826,856.131 298,845.029 298,831.356L298,526.775C298,513.101 325.826,502 360.1,502L649.9,502C684.174,502 712,513.101 712,526.775Z" style="fill:rgb(97,211,151);"/>
            </g>
            <g transform="matrix(0.223176,-0,0,0.559408,512.649365,521.105456)">
                <path d="M712,526.775L712,831.356C712,845.029 684.174,856.131 649.9,856.131L360.1,856.131C325.826,856.131 298,845.029 298,831.356L298,526.775C298,513.101 325.826,502 360.1,502L649.9,502C684.174,502 712,513.101 712,526.775Z" style="fill:rgb(97,211,151);"/>
            </g>
            <g transform="matrix(1.544492,-0.030444,-0.030444,-1.544492,-431.239289,547.583314)">
                <circle cx="461.5" cy="179.5" r="17.5" style="fill:rgb(97,211,151);stroke:rgb(97,211,151);stroke-width:9.59px;"/>
            </g>
            <g transform="matrix(0.164219,-0.003237,-0.012917,-0.655291,205.433751,871.438344)">
                <path d="M712,517.563L712,840.568C712,849.157 684.174,856.131 649.9,856.131L360.1,856.131C325.826,856.131 298,849.157 298,840.568L298,517.563C298,508.973 325.826,502 360.1,502L649.9,502C684.174,502 712,508.973 712,517.563Z" style="fill:rgb(97,211,151);"/>
            </g>
            <g transform="matrix(0.164232,-0.002504,-0.009994,-0.655342,698.498938,861.343036)">
                <path d="M712,517.563L712,840.568C712,849.157 684.174,856.131 649.9,856.131L360.1,856.131C325.826,856.131 298,849.157 298,840.568L298,517.563C298,508.973 325.826,502 360.1,502L649.9,502C684.174,502 712,508.973 712,517.563Z" style="fill:rgb(97,211,151);"/>
            </g>
            <g transform="matrix(1.544613,-0.023555,-0.023555,-1.544613,63.276762,534.651394)">
                <circle cx="461.5" cy="179.5" r="17.5" style="fill:rgb(97,211,151);stroke:rgb(97,211,151);stroke-width:9.59px;"/>
            </g>
            <g transform="matrix(0.181587,0,0,0.25904,563.806555,151.486005)">
                <path d="M712,545.532L712,812.598C712,836.625 684.174,856.131 649.9,856.131L360.1,856.131C325.826,856.131 298,836.625 298,812.598L298,545.532C298,521.506 325.826,502 360.1,502L649.9,502C684.174,502 712,521.506 712,545.532Z" style="fill:rgb(97,211,151);"/>
            </g>
            <g transform="matrix(0.181587,0,0,0.25904,299.40097,151.486005)">
                <path d="M712,545.532L712,812.598C712,836.625 684.174,856.131 649.9,856.131L360.1,856.131C325.826,856.131 298,836.625 298,812.598L298,545.532C298,521.506 325.826,502 360.1,502L649.9,502C684.174,502 712,521.506 712,545.532Z" style="fill:rgb(97,211,151);"/>
            </g>
            <g transform="matrix(0.051505,0,0,0.244312,496.762393,-21.604851)">
                <path d="M712,515.092L712,843.039C712,850.265 684.174,856.131 649.9,856.131L360.1,856.131C325.826,856.131 298,850.265 298,843.039L298,515.092C298,507.866 325.826,502 360.1,502L649.9,502C684.174,502 712,507.866 712,515.092Z" style="fill:rgb(97,211,151);"/>
            </g>
            <g transform="matrix(1.066152,0,0,1.09336,30.743429,-109.432063)">
                <circle cx="461.5" cy="179.5" r="17.5" style="fill:rgb(97,211,151);stroke:rgb(97,211,151);stroke-width:13.72px;"/>
            </g>
            <g transform="matrix(1.066152,0,0,1.09336,-20.472816,-132.304625)">
                <path d="M372,493C372,493 371.946,467 371.795,434.948C371.639,401.743 372.672,360.897 389.743,328.143C414.118,281.374 451.13,264.429 509.538,263.992C570.826,263.534 606.1,284.285 629.802,328C651.314,367.677 646.06,409.614 646.643,436.947C647.034,455.299 647.295,493 647.295,493L372,493Z" style="fill:rgb(31,31,31);stroke:rgb(97,211,151);stroke-width:13.72px;"/>
            </g>
            <g transform="matrix(-0.237785,0,0,-0.176653,642.472856,407.767661)">
                <path d="M372,493C372,493 371.946,467 371.795,434.948C371.639,401.743 372.672,360.897 389.743,328.143C414.118,281.374 451.13,264.429 509.538,263.992C570.826,263.534 606.1,284.285 629.802,328C651.314,367.677 646.06,409.614 646.643,436.947C647.034,455.299 647.295,493 647.295,493L372,493Z" style="fill:rgb(244,176,73);stroke:rgb(244,176,73);stroke-width:70.74px;"/>
            </g>
            <g transform="matrix(1,0,0,1,-6.206931,75.626311)">
                <circle cx="461.5" cy="179.5" r="17.5" style="fill:rgb(244,176,73);stroke:rgb(244,176,73);stroke-width:14.82px;"/>
            </g>
            <g transform="matrix(1,0,0,1,126.793069,75.626311)">
                <circle cx="461.5" cy="179.5" r="17.5" style="fill:rgb(244,176,73);stroke:rgb(244,176,73);stroke-width:14.82px;"/>
            </g>
            <g transform="matrix(1.126471,0,0,1,-72.905582,-7)">
                <path d="M550.308,756L498,756L511.077,686L537.231,686L550.308,756Z" style="fill:rgb(244,176,73);stroke:rgb(244,176,73);stroke-width:13.91px;"/>
            </g>
            <g transform="matrix(1,0,0,1,42.769214,23.796142)">
                <circle cx="474.769" cy="642.769" r="32.769" style="fill:rgb(244,176,73);stroke:rgb(244,176,73);stroke-width:14.82px;"/>
            </g>
        </g>
    </g>
</svg>
