<?xml version="1.0" encoding="UTF-8" standalone="no"?>
<!DOCTYPE svg PUBLIC "-//W3C//DTD SVG 1.1//EN" "http://www.w3.org/Graphics/SVG/1.1/DTD/svg11.dtd">
<svg width="100%" height="100%" viewBox="0 0 981 249" version="1.1" xmlns="http://www.w3.org/2000/svg" xmlns:xlink="http://www.w3.org/1999/xlink" xml:space="preserve" xmlns:serif="http://www.serif.com/" style="fill-rule:evenodd;clip-rule:evenodd;stroke-linecap:round;stroke-linejoin:round;stroke-miterlimit:1.5;">
    <g transform="matrix(1,0,0,1,-13.244158,-101.334527)">
        <g transform="matrix(1,0,0,1,-269,-137)">
            <path d="M304.648,430.459C333.667,436.982 317.041,410.9 339.936,405C348.629,402.76 349.289,388.977 367.953,383.774C373.86,382.128 392.367,388.54 399.54,387.14C403.555,386.357 426.753,380.071 438.4,378.519C447.313,377.332 454.903,377.43 459.254,377.596C478.429,378.329 477.214,394.711 483.039,405.306C491.455,420.612 502.605,431.45 510.867,429.392C523.16,426.33 526.648,401.368 559.245,392.591C577.498,387.676 597,407.361 605.867,405C614.655,402.66 615.926,383.612 628.299,387.14C635.086,389.076 636.044,415.318 656.128,423.14C677.643,431.52 706.099,409.196 716.946,410.879C735.294,413.725 762.949,338.966 782.469,345.98C811.641,356.46 842.127,396.127 864.779,405.43C885.278,413.848 882.524,431.311 893.544,434.206C909.75,438.463 925.142,402.181 940.879,404.848C959.101,407.935 987.873,384.495 1002.395,387.14C1015.475,389.523 1054.311,373.723 1062.213,376.205C1069.298,378.431 1085.81,378.207 1094.802,376.166C1106.808,373.441 1128.143,347.907 1146.811,350.625C1166.364,353.472 1183.675,384.013 1215.174,354.785" style="fill:none;stroke:rgb(97,211,151);stroke-width:4.1px;"/>
        </g>
        <g transform="matrix(0.246865,0.091339,-0.091339,0.246865,838.854093,39.122)">
            <g transform="matrix(0.937198,0,0,0.9407,54.662214,-29.392558)">
                <path d="M712,555.12L712,803.011C712,832.329 688.109,856.131 658.682,856.131L351.318,856.131C321.891,856.131 298,832.329 298,803.011L298,555.12C298,525.802 321.891,502 351.318,502L658.682,502C688.109,502 712,525.802 712,555.12Z" style="fill:rgb(97,211,151);"/>
            </g>
            <g transform="matrix(0.21515,0.059311,-0.148669,0.539292,388.081459,505.914853)">
                <path d="M712,526.775L712,831.356C712,845.029 684.174,856.131 649.9,856.131L360.1,856.131C325.826,856.131 298,845.029 298,831.356L298,526.775C298,513.101 325.826,502 360.1,502L649.9,502C684.174,502 712,513.101 712,526.775Z" style="fill:rgb(97,211,151);"/>
            </g>
            <g transform="matrix(0.209576,-0.076718,0.192299,0.525318,431.688861,589.069902)">
                <path d="M712,526.775L712,831.356C712,845.029 684.174,856.131 649.9,856.131L360.1,856.131C325.826,856.131 298,845.029 298,831.356L298,526.775C298,513.101 325.826,502 360.1,502L649.9,502C684.174,502 712,513.101 712,526.775Z" style="fill:rgb(97,211,151);"/>
            </g>
            <g transform="matrix(1.544785,-0.004662,0.004662,1.544785,-433.684809,486.359354)">
                <circle cx="461.5" cy="179.5" r="17.5" style="fill:rgb(97,211,151);stroke:rgb(97,211,151);stroke-width:9.59px;"/>
            </g>
            <g transform="matrix(0.16425,-0.000496,0.001978,0.655415,195.464334,148.119799)">
                <path d="M712,517.563L712,840.568C712,849.157 684.174,856.131 649.9,856.131L360.1,856.131C325.826,856.131 298,849.157 298,840.568L298,517.563C298,508.973 325.826,502 360.1,502L649.9,502C684.174,502 712,508.973 712,517.563Z" style="fill:rgb(97,211,151);"/>
            </g>
            <g transform="matrix(0.164247,-0.001228,0.004901,0.6554,688.631606,147.007779)">
                <path d="M712,517.563L712,840.568C712,849.157 684.174,856.131 649.9,856.131L360.1,856.131C325.826,856.131 298,849.157 298,840.568L298,517.563C298,508.973 325.826,502 360.1,502L649.9,502C684.174,502 712,508.973 712,517.563Z" style="fill:rgb(97,211,151);"/>
            </g>
            <g transform="matrix(1.544749,-0.011552,0.011552,1.544749,60.997413,488.050242)">
                <circle cx="461.5" cy="179.5" r="17.5" style="fill:rgb(97,211,151);stroke:rgb(97,211,151);stroke-width:9.59px;"/>
            </g>
            <g transform="matrix(0.181587,0,0,0.25904,563.806555,151.486005)">
                <path d="M712,545.532L712,812.598C712,836.625 684.174,856.131 649.9,856.131L360.1,856.131C325.826,856.131 298,836.625 298,812.598L298,545.532C298,521.506 325.826,502 360.1,502L649.9,502C684.174,502 712,521.506 712,545.532Z" style="fill:rgb(97,211,151);"/>
            </g>
            <g transform="matrix(0.181587,0,0,0.25904,299.40097,151.486005)">
                <path d="M712,545.532L712,812.598C712,836.625 684.174,856.131 649.9,856.131L360.1,856.131C325.826,856.131 298,836.625 298,812.598L298,545.532C298,521.506 325.826,502 360.1,502L649.9,502C684.174,502 712,521.506 712,545.532Z" style="fill:rgb(97,211,151);"/>
            </g>
            <g transform="matrix(0.051505,0,0,0.244312,496.762393,-21.604851)">
                <path d="M712,515.092L712,843.039C712,850.265 684.174,856.131 649.9,856.131L360.1,856.131C325.826,856.131 298,850.265 298,843.039L298,515.092C298,507.866 325.826,502 360.1,502L649.9,502C684.174,502 712,507.866 712,515.092Z" style="fill:rgb(97,211,151);"/>
            </g>
            <g transform="matrix(1.066152,0,0,1.09336,30.743429,-109.432063)">
                <circle cx="461.5" cy="179.5" r="17.5" style="fill:rgb(97,211,151);stroke:rgb(97,211,151);stroke-width:13.72px;"/>
            </g>
            <g transform="matrix(1.066152,0,0,1.09336,-20.472816,-132.304625)">
                <path d="M372,493C372,493 371.946,467 371.795,434.948C371.639,401.743 372.672,360.897 389.743,328.143C414.118,281.374 451.13,264.429 509.538,263.992C570.826,263.534 606.1,284.285 629.802,328C651.314,367.677 646.06,409.614 646.643,436.947C647.034,455.299 647.295,493 647.295,493L372,493Z" style="fill:rgb(31,31,31);stroke:rgb(97,211,151);stroke-width:13.72px;"/>
            </g>
            <g transform="matrix(-0.237785,0,0,-0.176653,642.472856,407.767661)">
                <path d="M372,493C372,493 371.946,467 371.795,434.948C371.639,401.743 372.672,360.897 389.743,328.143C414.118,281.374 451.13,264.429 509.538,263.992C570.826,263.534 606.1,284.285 629.802,328C651.314,367.677 646.06,409.614 646.643,436.947C647.034,455.299 647.295,493 647.295,493L372,493Z" style="fill:rgb(244,176,73);stroke:rgb(244,176,73);stroke-width:70.74px;"/>
            </g>
            <g transform="matrix(1,0,0,1,-6.206931,75.626311)">
                <circle cx="461.5" cy="179.5" r="17.5" style="fill:rgb(244,176,73);stroke:rgb(244,176,73);stroke-width:14.82px;"/>
            </g>
            <g transform="matrix(1,0,0,1,126.793069,75.626311)">
                <circle cx="461.5" cy="179.5" r="17.5" style="fill:rgb(244,176,73);stroke:rgb(244,176,73);stroke-width:14.82px;"/>
            </g>
            <g transform="matrix(1.126471,0,0,1,-72.905582,-7)">
                <path d="M550.308,756L498,756L511.077,686L537.231,686L550.308,756Z" style="fill:rgb(244,176,73);stroke:rgb(244,176,73);stroke-width:13.91px;"/>
            </g>
            <g transform="matrix(1,0,0,1,42.769214,23.796142)">
                <circle cx="474.769" cy="642.769" r="32.769" style="fill:rgb(244,176,73);stroke:rgb(244,176,73);stroke-width:14.82px;"/>
            </g>
        </g>
        <g transform="matrix(1,0,0,1,-59.194411,-212.711167)">
            <g transform="matrix(128,0,0,128,876.138569,511.542766)">
            </g>
            <text x="70.507px" y="511.543px" style="font-family:'Dosis-ExtraLight', 'Dosis';font-weight:200;font-size:128px;fill:rgb(244,176,73);stroke:rgb(244,176,73);stroke-width:1px;stroke-linecap:butt;stroke-miterlimit:2;">verify an AI agent</text>
        </g>
    </g>
</svg>
