<?xml version="1.0" encoding="UTF-8" standalone="no"?>
<!DOCTYPE svg PUBLIC "-//W3C//DTD SVG 1.1//EN" "http://www.w3.org/Graphics/SVG/1.1/DTD/svg11.dtd">
<svg width="100%" height="100%" viewBox="0 0 981 249" version="1.1" xmlns="http://www.w3.org/2000/svg" xmlns:xlink="http://www.w3.org/1999/xlink" xml:space="preserve" xmlns:serif="http://www.serif.com/" style="fill-rule:evenodd;clip-rule:evenodd;stroke-linecap:round;stroke-linejoin:round;stroke-miterlimit:1.5;">
    <g transform="matrix(1,0,0,1,-13.244158,-101.334527)">
        <g transform="matrix(1,0,0,1,-269,-137)">
            <path d="M304.648,430.459C333.667,436.982 317.041,410.9 339.936,405C348.629,402.76 349.289,388.977 367.953,383.774C373.86,382.128 392.367,388.54 399.54,387.14C403.555,386.357 426.753,380.071 438.4,378.519C447.313,377.332 454.903,377.43 459.254,377.596C478.429,378.329 477.214,394.711 483.039,405.306C491.455,420.612 502.605,431.45 510.867,429.392C523.16,426.33 526.648,401.368 559.245,392.591C577.498,387.676 597,407.361 605.867,405C614.655,402.66 615.926,383.612 628.299,387.14C635.086,389.076 636.044,415.318 656.128,423.14C677.643,431.52 706.099,409.196 716.946,410.879C735.294,413.725 762.949,338.966 782.469,345.98C811.641,356.46 842.127,396.127 864.779,405.43C885.278,413.848 882.524,431.311 893.544,434.206C909.75,438.463 925.142,402.181 940.879,404.848C959.101,407.935 987.873,384.495 1002.395,387.14C1015.475,389.523 1054.311,373.723 1062.213,376.205C1069.298,378.431 1085.81,378.207 1094.802,376.166C1106.808,373.441 1128.143,347.907 1146.811,350.625C1166.364,353.472 1183.675,384.013 1215.174,354.785" style="fill:none;stroke:rgb(97,211,151);stroke-width:4.1px;"/>
        </g>
        <g transform="matrix(0.246865,0.091339,-0.091339,0.246865,838.854093,39.122)">
            <g transform="matrix(0.937198,0,0,0.9407,54.662214,-29.392558)">
                <path d="M712,555.12L712,803.011C712,832.329 688.109,856.131 658.682,856.131L351.318,856.131C321.891,856.131 298,832.329 298,803.011L298,555.12C298,525.802 321.891,502 351.318,502L658.682,502C688.109,502 712,525.802 712,555.12Z" style="fill:rgb(97,211,151);"/>
            </g>
            <g transform="matrix(0.21515,0.059311,-0.148669,0.539292,388.081459,505.914853)">
                <path d="M712,526.775L712,831.356C712,845.029 684.174,856.131 649.9,856.131L360.1,856.131C325.826,856.131 298,845.029 298,831.356L298,526.775C298,513.101 325.826,502 360.1,502L649.9,502C684.174,502 712,513.101 712,526.775Z" style="fill:rgb(97,211,151);"/>
            </g>
            <g transform="matrix(0.209576,-0.076718,0.192299,0.525318,431.688861,589.069902)">
                <path d="M712,526.775L712,831.356C712,845.029 684.174,856.131 649.9,856.131L360.1,856.131C325.826,856.131 298,845.029 298,831.356L298,526.775C298,513.101 325.826,502 360.1,502L649.9,502C684.174,502 712,513.101 712,526.775Z" style="fill:rgb(97,211,151);"/>
            </g>
            <g transform="matrix(1.544785,-0.004662,0.004662,1.544785,-433.684809,486.359354)">
                <circle cx="461.5" cy="179.5" r="17.5" style="fill:rgb(97,211,151);stroke:rgb(97,211,151);stroke-width:9.59px;"/>
            </g>
            <g transform="matrix(0.16425,-0.000496,0.001978,0.655415,195.464334,148.119799)">
                <path d="M712,517.563L712,840.568C712,849.157 684.174,856.131 649.9,856.131L360.1,856.131C325.826,856.131 298,849.157 298,840.568L298,517.563C298,508.973 325.826,502 360.1,502L649.9,502C684.174,502 712,508.973 712,517.563Z" style="fill:rgb(97,211,151);"/>
            </g>
            <g transform="matrix(0.164247,-0.001228,0.004901,0.6554,688.631606,147.007779)">
                <path d="M712,517.563L712,840.568C712,849.157 684.174,856.131 649.9,856.131L360.1,856.131C325.826,856.131 298,849.157 298,840.568L298,517.563C298,508.973 325.826,502 360.1,502L649.9,502C684.174,502 712,508.973 712,517.563Z" style="fill:rgb(97,211,151);"/>
            </g>
            <g transform="matrix(1.544749,-0.011552,0.011552,1.544749,60.997413,488.050242)">
                <circle cx="461.5" cy="179.5" r="17.5" style="fill:rgb(97,211,151);stroke:rgb(97,211,151);stroke-width:9.59px;"/>
            </g>
            <g transform="matrix(0.181587,0,0,0.25904,563.806555,151.486005)">
                <path d="M712,545.532L712,812.598C712,836.625 684.174,856.131 649.9,856.131L360.1,856.131C325.826,856.131 298,836.625 298,812.598L298,545.532C298,521.506 325.826,502 360.1,502L649.9,502C684.174,502 712,521.506 712,545.532Z" style="fill:rgb(97,211,151);"/>
            </g>
            <g transform="matrix(0.181587,0,0,0.25904,299.40097,151.486005)">
                <path d="M712,545.532L712,812.598C712,836.625 684.174,856.131 649.9,856.131L360.1,856.131C325.826,856.131 298,836.625 298,812.598L298,545.532C298,521.506 325.826,502 360.1,502L649.9,502C684.174,502 712,521.506 712,545.532Z" style="fill:rgb(97,211,151);"/>
            </g>
            <g transform="matrix(0.051505,0,0,0.244312,496.762393,-21.604851)">
                <path d="M712,515.092L712,843.039C712,850.265 684.174,856.131 649.9,856.131L360.1,856.131C325.826,856.131 298,850.265 298,843.039L298,515.092C298,507.866 325.826,502 360.1,502L649.9,502C684.174,502 712,507.866 712,515.092Z" style="fill:rgb(97,211,151);"/>
            </g>
            <g transform="matrix(1.066152,0,0,1.09336,30.743429,-109.432063)">
                <circle cx="461.5" cy="179.5" r="17.5" style="fill:rgb(97,211,151);stroke:rgb(97,211,151);stroke-width:13.72px;"/>
            </g>
            <g transform="matrix(1.066152,0,0,1.09336,-20.472816,-132.304625)">
                <path d="M372,493C372,493 371.946,467 371.795,434.948C371.639,401.743 372.672,360.897 389.743,328.143C414.118,281.374 451.13,264.429 509.538,263.992C570.826,263.534 606.1,284.285 629.802,328C651.314,367.677 646.06,409.614 646.643,436.947C647.034,455.299 647.295,493 647.295,493L372,493Z" style="fill:rgb(31,31,31);stroke:rgb(97,211,151);stroke-width:13.72px;"/>
            </g>
            <g transform="matrix(-0.237785,0,0,-0.176653,642.472856,407.767661)">
                <path d="M372,493C372,493 371.946,467 371.795,434.948C371.639,401.743 372.672,360.897 389.743,328.143C414.118,281.374 451.13,264.429 509.538,263.992C570.826,263.534 606.1,284.285 629.802,328C651.314,367.677 646.06,409.614 646.643,436.947C647.034,455.299 647.295,493 647.295,493L372,493Z" style="fill:rgb(244,176,73);stroke:rgb(244,176,73);stroke-width:70.74px;"/>
            </g>
            <g transform="matrix(1,0,0,1,-6.206931,75.626311)">
                <circle cx="461.5" cy="179.5" r="17.5" style="fill:rgb(244,176,73);stroke:rgb(244,176,73);stroke-width:14.82px;"/>
            </g>
            <g transform="matrix(1,0,0,1,126.793069,75.626311)">
                <circle cx="461.5" cy="179.5" r="17.5" style="fill:rgb(244,176,73);stroke:rgb(244,176,73);stroke-width:14.82px;"/>
            </g>
            <g transform="matrix(1.126471,0,0,1,-72.905582,-7)">
                <path d="M550.308,756L498,756L511.077,686L537.231,686L550.308,756Z" style="fill:rgb(244,176,73);stroke:rgb(244,176,73);stroke-width:13.91px;"/>
            </g>
            <g transform="matrix(1,0,0,1,42.769214,23.796142)">
                <circle cx="474.769" cy="642.769" r="32.769" style="fill:rgb(244,176,73);stroke:rgb(244,176,73);stroke-width:14.82px;"/>
            </g>
        </g>
        <g transform="matrix(1,0,0,1,-59.194411,-212.711167)">
            <g transform="matrix(128,0,0,128,876.138569,511.542766)">
            </g>
            <path d="M95.59 512.31L95.59 512.31Q94.70 512.31 94.19 511.93Q93.68 511.54 93.42 510.78L93.42 510.78L73.45 455.22Q73.32 454.97 73.13 454.39Q72.94 453.81 72.94 453.43L72.94 453.43Q72.94 452.79 73.26 452.28Q73.58 451.77 74.09 451.45Q74.60 451.13 75.24 451.13L75.24 451.13Q75.88 451.13 76.52 451.51Q77.16 451.89 77.42 452.54L77.42 452.54L95.59 502.84L113.64 453.30Q113.90 452.54 114.22 451.83Q114.54 451.13 115.82 451.13L115.82 451.13Q116.46 451.13 116.97 451.38Q117.48 451.64 117.87 452.15Q118.25 452.66 118.25 453.30L118.25 453.30Q118.25 453.81 118.06 454.39Q117.87 454.97 117.74 455.22L117.74 455.22L97.77 510.78Q97.52 511.42 96.94 511.86Q96.36 512.31 95.59 512.31ZM153.07 512.31L153.07 512.31Q145.52 512.31 139.69 509.37Q133.87 506.42 130.54 501.24Q127.21 496.06 127.21 489.01L127.21 489.01L127.21 473.01Q127.21 466.87 130.35 461.69Q133.48 456.50 138.67 453.43Q143.85 450.36 150.00 450.36L150.00 450.36Q156.01 450.36 161.19 453.37Q166.38 456.38 169.52 461.56Q172.65 466.74 172.65 473.40L172.65 473.40Q172.65 478.01 171.12 480.06Q169.58 482.10 167.21 482.55Q164.84 483.00 162.03 483.00L162.03 483.00L131.69 483.00L131.69 489.01Q131.69 497.72 137.84 502.77Q143.98 507.83 153.32 507.83L153.32 507.83Q158.70 507.83 161.52 506.49Q164.33 505.14 165.80 503.86Q167.28 502.58 168.43 502.58L168.43 502.58Q169.07 502.58 169.58 502.97Q170.09 503.35 170.41 503.86Q170.73 504.38 170.73 504.89L170.73 504.89Q170.73 506.04 168.62 507.83Q166.51 509.62 162.54 510.97Q158.57 512.31 153.07 512.31ZM131.69 473.01L131.69 478.52L160.49 478.52Q165.23 478.52 166.70 477.62Q168.17 476.73 168.17 473.78L168.17 473.78Q168.17 469.18 165.93 464.82Q163.69 460.47 159.59 457.66Q155.50 454.84 150.00 454.84L150.00 454.84Q144.88 454.84 140.72 457.40Q136.56 459.96 134.12 464.06Q131.69 468.15 131.69 473.01L131.69 473.01ZM188.52 511.54L188.52 511.54Q187.63 511.54 186.99 510.84Q186.35 510.13 186.35 509.24L186.35 509.24L186.35 453.30Q186.35 452.28 186.99 451.70Q187.63 451.13 188.52 451.13L188.52 451.13Q189.55 451.13 190.19 451.70Q190.83 452.28 190.83 453.30L190.83 453.30L190.83 460.09Q192.36 457.53 194.80 455.35Q197.23 453.18 200.68 451.77Q204.14 450.36 208.62 450.36L208.62 450.36L213.36 450.36Q214.25 450.36 214.89 451.00Q215.53 451.64 215.53 452.66L215.53 452.66Q215.53 453.56 214.89 454.20Q214.25 454.84 213.36 454.84L213.36 454.84L208.62 454.84Q204.14 454.84 200.04 457.08Q195.95 459.32 193.39 463.42Q190.83 467.51 190.83 473.40L190.83 473.40L190.83 509.24Q190.83 510.13 190.19 510.84Q189.55 511.54 188.52 511.54ZM228.08 431.16L228.08 431.16Q226.41 431.16 225.19 429.94Q223.98 428.73 223.98 427.06L223.98 427.06Q223.98 425.40 225.19 424.25Q226.41 423.10 228.08 423.10L228.08 423.10Q229.74 423.10 230.89 424.25Q232.04 425.40 232.04 427.06L232.04 427.06Q232.04 428.73 230.89 429.94Q229.74 431.16 228.08 431.16ZM227.95 511.54L227.95 511.54Q227.05 511.54 226.41 510.84Q225.77 510.13 225.77 509.24L225.77 509.24L225.77 453.30Q225.77 452.28 226.41 451.70Q227.05 451.13 227.95 451.13L227.95 451.13Q228.97 451.13 229.61 451.70Q230.25 452.28 230.25 453.30L230.25 453.30L230.25 509.24Q230.25 510.13 229.61 510.84Q228.97 511.54 227.95 511.54ZM249.84 511.54L249.84 511.54Q248.94 511.54 248.36 510.90Q247.79 510.26 247.79 509.37L247.79 509.37L247.79 436.02Q247.79 429.88 250.92 424.69Q254.06 419.51 259.24 416.38Q264.43 413.24 270.57 413.24L270.57 413.24L271.85 413.24Q272.88 413.24 273.51 413.88Q274.16 414.52 274.16 415.54L274.16 415.54Q274.16 416.44 273.51 417.08Q272.88 417.72 271.85 417.72L271.85 417.72L270.57 417.72Q265.45 417.72 261.29 420.34Q257.13 422.97 254.76 427.13Q252.40 431.29 252.27 436.02L252.27 436.02L252.27 451.13L271.85 451.13Q272.88 451.13 273.51 451.77Q274.16 452.41 274.16 453.30L274.16 453.30Q274.16 454.20 273.51 454.90Q272.88 455.61 271.85 455.61L271.85 455.61L252.27 455.61L252.27 509.37Q252.27 510.26 251.56 510.90Q250.86 511.54 249.84 511.54ZM280.56 541.88L280.56 541.88Q279.66 541.88 279.02 541.24Q278.38 540.60 278.38 539.70L278.38 539.70Q278.38 538.81 278.83 538.10Q279.27 537.40 280.30 537.40L280.30 537.40Q283.75 537.40 286.51 534.90Q289.26 532.41 291.50 528.25Q293.74 524.09 295.53 519.29Q297.32 514.49 298.99 509.88L298.99 509.88L278.51 453.30Q278.25 452.79 278.25 452.54L278.25 452.54Q278.25 451.89 278.57 451.45Q278.89 451.00 279.47 450.68Q280.04 450.36 280.68 450.36L280.68 450.36Q281.32 450.36 281.96 450.74Q282.60 451.13 282.73 451.77L282.73 451.77L301.29 502.97L319.72 451.77Q319.98 451.13 320.56 450.74Q321.13 450.36 321.77 450.36L321.77 450.36Q322.41 450.36 322.92 450.62Q323.44 450.87 323.75 451.32Q324.07 451.77 324.07 452.54L324.07 452.54Q324.07 453.05 323.95 453.30L323.95 453.30L303.47 509.88Q301.80 514.62 299.63 520.18Q297.45 525.75 294.70 530.68Q291.95 535.61 288.43 538.74Q284.91 541.88 280.56 541.88ZM374.38 512.31L374.38 512.31Q366.96 512.31 361.77 508.15Q356.59 503.99 356.59 495.42L356.59 495.42Q356.59 488.63 360.36 484.98Q364.14 481.33 370.86 479.93Q377.58 478.52 386.41 478.52L386.41 478.52L393.58 478.52L393.58 474.94Q393.58 470.07 391.92 465.46Q390.25 460.86 386.54 457.85Q382.83 454.84 376.68 454.84L376.68 454.84Q372.72 454.84 370.03 455.67Q367.34 456.50 365.74 457.40Q364.14 458.30 363.37 458.30L363.37 458.30Q362.35 458.30 361.71 457.34Q361.07 456.38 361.07 455.74L361.07 455.74Q361.07 454.45 363.44 453.24Q365.80 452.02 369.45 451.19Q373.10 450.36 376.94 450.36L376.94 450.36Q384.88 450.36 389.48 453.88Q394.09 457.40 396.08 462.97Q398.06 468.54 398.06 474.94L398.06 474.94L398.06 509.24Q398.06 510.13 397.48 510.84Q396.91 511.54 395.88 511.54L395.88 511.54Q394.99 511.54 394.28 510.84Q393.58 510.13 393.58 509.24L393.58 509.24L393.58 502.58Q390.38 506.30 385.58 509.30Q380.78 512.31 374.38 512.31ZM374.25 507.83L374.25 507.83Q379.12 507.83 383.53 505.46Q387.95 503.10 390.76 499.77Q393.58 496.44 393.58 493.75L393.58 493.75L393.58 483.00L386.54 483.00Q380.01 483.00 374.19 483.77Q368.36 484.54 364.72 487.16Q361.07 489.78 361.07 495.42L361.07 495.42Q361.07 501.81 364.91 504.82Q368.75 507.83 374.25 507.83ZM417.13 511.54L417.13 511.54Q416.24 511.54 415.60 510.84Q414.96 510.13 414.96 509.24L414.96 509.24L414.96 453.30Q414.96 452.28 415.60 451.70Q416.24 451.13 417.13 451.13L417.13 451.13Q418.16 451.13 418.80 451.70Q419.44 452.28 419.44 453.30L419.44 453.30L419.44 460.09Q421.61 456.38 425.90 453.37Q430.19 450.36 436.59 450.36L436.59 450.36Q442.86 450.36 448.11 453.50Q453.36 456.63 456.49 461.81Q459.63 467.00 459.63 473.40L459.63 473.40L459.63 509.24Q459.63 510.39 458.92 510.97Q458.22 511.54 457.32 511.54L457.32 511.54Q456.56 511.54 455.85 510.97Q455.15 510.39 455.15 509.24L455.15 509.24L455.15 473.40Q455.15 468.66 452.65 464.44Q450.16 460.22 446.06 457.53Q441.96 454.84 436.97 454.84L436.97 454.84Q432.62 454.84 428.59 457.08Q424.56 459.32 422.00 463.42Q419.44 467.51 419.44 473.40L419.44 473.40L419.44 509.24Q419.44 510.13 418.80 510.84Q418.16 511.54 417.13 511.54ZM498.92 511.54L498.92 511.54Q498.41 511.54 497.84 511.29Q497.26 511.03 496.94 510.58Q496.62 510.13 496.62 509.50L496.62 509.50Q496.62 508.98 496.75 508.73L496.75 508.73L524.52 419.00Q524.78 417.98 525.42 417.59Q526.06 417.21 526.83 417.21L526.83 417.21Q527.60 417.21 528.30 417.65Q529.00 418.10 529.26 419.00L529.26 419.00L556.78 508.73Q556.91 508.98 556.91 509.37L556.91 509.37Q556.91 509.88 556.52 510.39Q556.14 510.90 555.56 511.22Q554.99 511.54 554.35 511.54L554.35 511.54Q553.71 511.54 553.13 511.16Q552.56 510.78 552.30 509.88L552.30 509.88L545.77 488.89L507.63 488.89L501.23 509.88Q500.97 510.78 500.33 511.16Q499.69 511.54 498.92 511.54ZM526.83 426.94L509.04 484.28L544.36 484.28L526.83 426.94ZM573.04 511.54L573.04 511.54Q572.14 511.54 571.44 510.97Q570.73 510.39 570.73 509.24L570.73 509.24L570.73 420.15Q570.73 419.00 571.44 418.49Q572.14 417.98 573.04 417.98L573.04 417.98Q573.93 417.98 574.64 418.49Q575.34 419.00 575.34 420.15L575.34 420.15L575.34 509.24Q575.34 510.39 574.64 510.97Q573.93 511.54 573.04 511.54ZM633.84 512.31L633.84 512.31Q626.41 512.31 621.23 508.15Q616.04 503.99 616.04 495.42L616.04 495.42Q616.04 488.63 619.82 484.98Q623.60 481.33 630.32 479.93Q637.04 478.52 645.87 478.52L645.87 478.52L653.04 478.52L653.04 474.94Q653.04 470.07 651.37 465.46Q649.71 460.86 646.00 457.85Q642.28 454.84 636.14 454.84L636.14 454.84Q632.17 454.84 629.48 455.67Q626.80 456.50 625.20 457.40Q623.60 458.30 622.83 458.30L622.83 458.30Q621.80 458.30 621.16 457.34Q620.52 456.38 620.52 455.74L620.52 455.74Q620.52 454.45 622.89 453.24Q625.26 452.02 628.91 451.19Q632.56 450.36 636.40 450.36L636.40 450.36Q644.33 450.36 648.94 453.88Q653.55 457.40 655.53 462.97Q657.52 468.54 657.52 474.94L657.52 474.94L657.52 509.24Q657.52 510.13 656.94 510.84Q656.36 511.54 655.34 511.54L655.34 511.54Q654.44 511.54 653.74 510.84Q653.04 510.13 653.04 509.24L653.04 509.24L653.04 502.58Q649.84 506.30 645.04 509.30Q640.24 512.31 633.84 512.31ZM633.71 507.83L633.71 507.83Q638.57 507.83 642.99 505.46Q647.40 503.10 650.22 499.77Q653.04 496.44 653.04 493.75L653.04 493.75L653.04 483.00L646.00 483.00Q639.47 483.00 633.64 483.77Q627.82 484.54 624.17 487.16Q620.52 489.78 620.52 495.42L620.52 495.42Q620.52 501.81 624.36 504.82Q628.20 507.83 633.71 507.83ZM694.64 541.88L694.64 541.88Q687.21 541.88 681.64 539.83Q676.08 537.78 672.94 534.07Q669.80 530.36 669.80 525.37L669.80 525.37Q669.80 519.48 673.45 516.09Q677.10 512.70 681.45 511.16L681.45 511.16Q678.00 510.13 675.82 508.15Q673.64 506.17 673.64 502.07L673.64 502.07Q673.64 498.49 675.37 496.50Q677.10 494.52 679.92 493.24L679.92 493.24Q676.72 490.42 674.99 486.26Q673.26 482.10 673.26 477.11L673.26 477.11L673.26 471.35Q673.26 465.21 675.82 460.47Q678.38 455.74 683.05 453.05Q687.72 450.36 693.87 450.36L693.87 450.36Q698.60 450.36 702.44 451.96Q706.28 453.56 709.10 456.50L709.10 456.50Q710.89 453.18 713.58 450.94Q716.27 448.69 718.70 448.69L718.70 448.69Q720.11 448.69 720.75 449.46Q721.39 450.23 721.39 451.25L721.39 451.25Q721.39 452.41 720.68 453.05Q719.98 453.69 719.08 453.69L719.08 453.69Q717.42 453.69 715.31 454.84Q713.20 455.99 711.40 459.57L711.40 459.57Q713.07 461.88 713.84 464.95Q714.60 468.02 714.60 471.35L714.60 471.35L714.60 477.11Q714.60 483.13 711.98 487.99Q709.36 492.86 704.62 495.61Q699.88 498.36 693.74 498.36L693.74 498.36Q687.85 498.36 683.24 495.67L683.24 495.67Q681.32 496.57 679.72 497.91Q678.12 499.25 678.12 501.81L678.12 501.81Q678.12 505.01 681.07 506.42Q684.01 507.83 688.62 508.34Q693.23 508.86 698.35 509.37Q703.47 509.88 708.08 511.29Q712.68 512.70 715.63 515.77Q718.57 518.84 718.57 524.60L718.57 524.60Q718.57 530.10 715.63 533.94Q712.68 537.78 707.37 539.83Q702.06 541.88 694.64 541.88ZM694.64 537.78L694.64 537.78Q704.11 537.78 709.10 534.20Q714.09 530.62 714.09 524.73L714.09 524.73Q714.09 520.12 711.21 517.75Q708.33 515.38 703.98 514.42Q699.63 513.46 695.21 513.14Q690.80 512.82 687.72 512.44L687.72 512.44Q682.60 513.85 678.44 516.73Q674.28 519.61 674.28 524.98L674.28 524.98Q674.28 530.62 679.60 534.20Q684.91 537.78 694.64 537.78ZM694.00 493.88L694.00 493.88Q701.55 493.88 705.84 489.08Q710.12 484.28 710.12 477.11L710.12 477.11L710.12 471.35Q710.12 464.31 705.84 459.57Q701.55 454.84 693.87 454.84L693.87 454.84Q686.19 454.84 681.96 459.57Q677.74 464.31 677.74 471.35L677.74 471.35L677.74 476.98Q677.74 484.15 682.03 489.01Q686.32 493.88 694.00 493.88ZM755.18 512.31L755.18 512.31Q747.63 512.31 741.80 509.37Q735.98 506.42 732.65 501.24Q729.32 496.06 729.32 489.01L729.32 489.01L729.32 473.01Q729.32 466.87 732.46 461.69Q735.60 456.50 740.78 453.43Q745.96 450.36 752.11 450.36L752.11 450.36Q758.12 450.36 763.31 453.37Q768.49 456.38 771.63 461.56Q774.76 466.74 774.76 473.40L774.76 473.40Q774.76 478.01 773.23 480.06Q771.69 482.10 769.32 482.55Q766.96 483.00 764.14 483.00L764.14 483.00L733.80 483.00L733.80 489.01Q733.80 497.72 739.95 502.77Q746.09 507.83 755.44 507.83L755.44 507.83Q760.81 507.83 763.63 506.49Q766.44 505.14 767.92 503.86Q769.39 502.58 770.54 502.58L770.54 502.58Q771.18 502.58 771.69 502.97Q772.20 503.35 772.52 503.86Q772.84 504.38 772.84 504.89L772.84 504.89Q772.84 506.04 770.73 507.83Q768.62 509.62 764.65 510.97Q760.68 512.31 755.18 512.31ZM733.80 473.01L733.80 478.52L762.60 478.52Q767.34 478.52 768.81 477.62Q770.28 476.73 770.28 473.78L770.28 473.78Q770.28 469.18 768.04 464.82Q765.80 460.47 761.71 457.66Q757.61 454.84 752.11 454.84L752.11 454.84Q746.99 454.84 742.83 457.40Q738.67 459.96 736.24 464.06Q733.80 468.15 733.80 473.01L733.80 473.01ZM790.64 511.54L790.64 511.54Q789.74 511.54 789.10 510.84Q788.46 510.13 788.46 509.24L788.46 509.24L788.46 453.30Q788.46 452.28 789.10 451.70Q789.74 451.13 790.64 451.13L790.64 451.13Q791.66 451.13 792.30 451.70Q792.94 452.28 792.94 453.30L792.94 453.30L792.94 460.09Q795.12 456.38 799.40 453.37Q803.69 450.36 810.09 450.36L810.09 450.36Q816.36 450.36 821.61 453.50Q826.86 456.63 830.00 461.81Q833.13 467.00 833.13 473.40L833.13 473.40L833.13 509.24Q833.13 510.39 832.43 510.97Q831.72 511.54 830.83 511.54L830.83 511.54Q830.06 511.54 829.36 510.97Q828.65 510.39 828.65 509.24L828.65 509.24L828.65 473.40Q828.65 468.66 826.16 464.44Q823.66 460.22 819.56 457.53Q815.47 454.84 810.48 454.84L810.48 454.84Q806.12 454.84 802.09 457.08Q798.06 459.32 795.50 463.42Q792.94 467.51 792.94 473.40L792.94 473.40L792.94 509.24Q792.94 510.13 792.30 510.84Q791.66 511.54 790.64 511.54ZM871.40 511.54L868.46 511.54Q859.37 511.54 854.57 507.32Q849.77 503.10 849.77 493.75L849.77 493.75L849.77 423.74Q849.77 422.71 850.48 422.13Q851.18 421.56 851.95 421.56L851.95 421.56Q852.84 421.56 853.55 422.13Q854.25 422.71 854.25 423.74L854.25 423.74L854.25 451.13L871.53 451.13Q872.43 451.13 873.07 451.77Q873.71 452.41 873.71 453.43L873.71 453.43Q873.71 454.33 873.07 454.97Q872.43 455.61 871.53 455.61L871.53 455.61L854.25 455.61L854.25 493.75Q854.25 501.05 857.45 504.06Q860.65 507.06 868.46 507.06L868.46 507.06L871.40 507.06Q872.30 507.06 872.94 507.64Q873.58 508.22 873.58 509.24L873.58 509.24Q873.58 510.13 872.94 510.84Q872.30 511.54 871.40 511.54L871.40 511.54Z" style="fill:rgb(244,176,73);stroke:rgb(244,176,73);stroke-width:1px;stroke-linecap:butt;stroke-miterlimit:2;"/>
        </g>
    </g>
</svg>
