<?xml version="1.0" encoding="UTF-8" standalone="no"?>
<!DOCTYPE svg PUBLIC "-//W3C//DTD SVG 1.1//EN" "http://www.w3.org/Graphics/SVG/1.1/DTD/svg11.dtd">
<svg width="100%" height="100%" viewBox="0 0 1200 630" version="1.1" xmlns="http://www.w3.org/2000/svg" xmlns:xlink="http://www.w3.org/1999/xlink" xml:space="preserve" xmlns:serif="http://www.serif.com/" style="fill-rule:evenodd;clip-rule:evenodd;stroke-linecap:round;stroke-linejoin:round;stroke-miterlimit:1.5;">
    <path d="M159,235C102.532,279.762 135.928,367.877 181.596,369.286C207.015,370.07 203.664,394.474 240.231,417.392C260.568,430.138 298.76,358.779 346.273,369.459C395.059,380.426 385.238,464.273 478.254,467.827C525.132,469.619 564.435,432.602 582.254,414.392C595.148,401.216 607.334,381.45 620.867,386.392C656.261,399.315 638.992,474.607 671.867,465.847C705.638,456.849 687.265,402.202 713.795,386.392C736.761,372.705 758.765,392.464 777.213,409.205C828.125,455.409 862.809,432.864 877.745,418.864C915.641,383.343 937.933,381.45 985.102,392.743C1018.574,400.757 1039.793,430.057 1086.88,417.731" style="fill:none;stroke:rgb(97,211,151);stroke-width:5.83px;"/>
    <g transform="matrix(1.084697,0,0,1.084697,9.208029,-112.806353)">
        <path d="M189.338,539.578C179.479,539.578 171.946,537.286 166.739,532.704C161.531,528.122 158.928,520.762 158.928,510.625L158.928,396.691C158.928,395.58 159.31,394.712 160.073,394.087C160.837,393.462 161.635,393.15 162.469,393.15C163.441,393.15 164.309,393.462 165.072,394.087C165.836,394.712 166.218,395.58 166.218,396.691L166.218,441.265L194.337,441.265C195.309,441.265 196.142,441.612 196.836,442.306C197.531,443 197.878,443.903 197.878,445.014C197.878,445.986 197.531,446.819 196.836,447.513C196.142,448.208 195.309,448.555 194.337,448.555L166.218,448.555L166.218,510.625C166.218,518.54 167.954,524.129 171.425,527.393C174.897,530.656 180.868,532.287 189.338,532.287L194.129,532.287C195.101,532.287 195.934,532.6 196.628,533.225C197.322,533.85 197.67,534.717 197.67,535.828C197.67,536.8 197.322,537.668 196.628,538.432C195.934,539.196 195.101,539.578 194.129,539.578L189.338,539.578Z" style="fill:rgb(244,176,73);fill-rule:nonzero;"/>
        <path d="M252.242,540.827C244.049,540.827 236.793,539.23 230.475,536.037C224.157,532.843 219.193,528.434 215.583,522.81C211.972,517.186 210.167,510.556 210.167,502.919L210.167,476.882C210.167,470.217 211.868,464.072 215.27,458.449C218.672,452.825 223.185,448.347 228.809,445.014C234.433,441.681 240.577,440.015 247.243,440.015C253.769,440.015 259.844,441.647 265.468,444.91C271.092,448.173 275.605,452.617 279.007,458.24C282.409,463.864 284.11,470.286 284.11,477.507C284.11,482.506 283.277,486.116 281.61,488.338C279.944,490.56 277.826,491.914 275.258,492.4C272.689,492.886 269.877,493.129 266.822,493.129L217.457,493.129L217.457,502.919C217.457,512.361 220.79,519.825 227.455,525.31C234.12,530.795 242.521,533.537 252.658,533.537C258.49,533.537 262.934,532.808 265.989,531.35C269.044,529.892 271.369,528.469 272.966,527.08C274.563,525.692 275.987,524.997 277.236,524.997C277.931,524.997 278.555,525.206 279.111,525.622C279.666,526.039 280.118,526.525 280.465,527.08C280.812,527.636 280.986,528.191 280.986,528.746C280.986,529.996 279.84,531.593 277.549,533.537C275.258,535.481 271.96,537.182 267.655,538.64C263.35,540.098 258.213,540.827 252.242,540.827ZM217.457,485.839L264.322,485.839C269.46,485.839 272.828,485.353 274.424,484.381C276.021,483.409 276.82,481.326 276.82,478.132C276.82,473.133 275.605,468.273 273.175,463.552C270.745,458.831 267.308,454.942 262.864,451.888C258.421,448.833 253.214,447.305 247.243,447.305C241.688,447.305 236.655,448.694 232.142,451.471C227.629,454.248 224.053,457.858 221.415,462.302C218.776,466.746 217.457,471.606 217.457,476.882L217.457,485.839Z" style="fill:rgb(244,176,73);fill-rule:nonzero;"/>
        <path d="M336.391,539.578C326.532,539.578 318.998,537.286 313.791,532.704C308.584,528.122 305.98,520.762 305.98,510.625L305.98,396.691C305.98,395.58 306.362,394.712 307.126,394.087C307.89,393.462 308.688,393.15 309.521,393.15C310.493,393.15 311.361,393.462 312.125,394.087C312.889,394.712 313.27,395.58 313.27,396.691L313.27,441.265L341.39,441.265C342.362,441.265 343.195,441.612 343.889,442.306C344.583,443 344.931,443.903 344.931,445.014C344.931,445.986 344.583,446.819 343.889,447.513C343.195,448.208 342.362,448.555 341.39,448.555L313.27,448.555L313.27,510.625C313.27,518.54 315.006,524.129 318.478,527.393C321.949,530.656 327.92,532.287 336.391,532.287L341.181,532.287C342.153,532.287 342.986,532.6 343.681,533.225C344.375,533.85 344.722,534.717 344.722,535.828C344.722,536.8 344.375,537.668 343.681,538.432C342.986,539.196 342.153,539.578 341.181,539.578L336.391,539.578Z" style="fill:rgb(244,176,73);fill-rule:nonzero;"/>
        <path d="M366.801,539.578C365.829,539.578 364.996,539.196 364.301,538.432C363.607,537.668 363.26,536.8 363.26,535.828L363.26,383.152C363.26,382.041 363.607,381.173 364.301,380.548C364.996,379.923 365.829,379.611 366.801,379.611C367.912,379.611 368.814,379.923 369.509,380.548C370.203,381.173 370.55,382.041 370.55,383.152L370.55,455.845C372.911,451.818 376.417,448.173 381.069,444.91C385.721,441.647 391.518,440.015 398.461,440.015C405.265,440.015 411.514,441.716 417.207,445.118C422.9,448.52 427.448,453.033 430.85,458.657C434.252,464.281 435.953,470.564 435.953,477.507L435.953,535.828C435.953,537.078 435.571,538.015 434.808,538.64C434.044,539.265 433.176,539.578 432.204,539.578C431.371,539.578 430.572,539.265 429.809,538.64C429.045,538.015 428.663,537.078 428.663,535.828L428.663,477.507C428.663,472.369 427.309,467.509 424.601,462.927C421.894,458.345 418.318,454.595 413.874,451.679C409.431,448.763 404.501,447.305 399.086,447.305C394.365,447.305 389.817,448.52 385.443,450.95C381.069,453.38 377.493,456.817 374.716,461.261C371.939,465.704 370.55,471.12 370.55,477.507L370.55,535.828C370.55,536.8 370.203,537.668 369.509,538.432C368.814,539.196 367.912,539.578 366.801,539.578Z" style="fill:rgb(244,176,73);fill-rule:nonzero;"/>
        <path d="M501.981,540.827C493.788,540.827 486.533,539.23 480.215,536.037C473.897,532.843 468.932,528.434 465.322,522.81C461.712,517.186 459.907,510.556 459.907,502.919L459.907,476.882C459.907,470.217 461.608,464.072 465.01,458.449C468.412,452.825 472.925,448.347 478.548,445.014C484.172,441.681 490.317,440.015 496.982,440.015C503.509,440.015 509.584,441.647 515.207,444.91C520.831,448.173 525.344,452.617 528.746,458.24C532.148,463.864 533.849,470.286 533.849,477.507C533.849,482.506 533.016,486.116 531.35,488.338C529.684,490.56 527.566,491.914 524.997,492.4C522.428,492.886 519.616,493.129 516.561,493.129L467.197,493.129L467.197,502.919C467.197,512.361 470.529,519.825 477.195,525.31C483.86,530.795 492.261,533.537 502.398,533.537C508.23,533.537 512.673,532.808 515.728,531.35C518.783,529.892 521.109,528.469 522.706,527.08C524.303,525.692 525.726,524.997 526.976,524.997C527.67,524.997 528.295,525.206 528.85,525.622C529.406,526.039 529.857,526.525 530.204,527.08C530.551,527.636 530.725,528.191 530.725,528.746C530.725,529.996 529.579,531.593 527.288,533.537C524.997,535.481 521.699,537.182 517.395,538.64C513.09,540.098 507.952,540.827 501.981,540.827ZM467.197,485.839L514.062,485.839C519.2,485.839 522.567,485.353 524.164,484.381C525.761,483.409 526.559,481.326 526.559,478.132C526.559,473.133 525.344,468.273 522.914,463.552C520.484,458.831 517.047,454.942 512.604,451.888C508.16,448.833 502.953,447.305 496.982,447.305C491.428,447.305 486.394,448.694 481.881,451.471C477.368,454.248 473.792,457.858 471.154,462.302C468.516,466.746 467.197,471.606 467.197,476.882L467.197,485.839Z" style="fill:rgb(244,176,73);fill-rule:nonzero;"/>
        <path d="M559.677,539.578C558.705,539.578 557.872,539.196 557.178,538.432C556.484,537.668 556.136,536.8 556.136,535.828L556.136,444.806C556.136,443.695 556.484,442.827 557.178,442.202C557.872,441.577 558.705,441.265 559.677,441.265C560.788,441.265 561.691,441.577 562.385,442.202C563.079,442.827 563.427,443.695 563.427,444.806L563.427,455.845C565.093,453.068 567.245,450.499 569.884,448.138C572.522,445.778 575.716,443.834 579.465,442.306C583.214,440.779 587.519,440.015 592.379,440.015L600.086,440.015C601.058,440.015 601.891,440.362 602.585,441.056C603.279,441.751 603.626,442.653 603.626,443.764C603.626,444.736 603.279,445.569 602.585,446.264C601.891,446.958 601.058,447.305 600.086,447.305L592.379,447.305C587.519,447.305 582.867,448.52 578.423,450.95C573.98,453.38 570.37,456.817 567.592,461.261C564.815,465.704 563.427,471.12 563.427,477.507L563.427,535.828C563.427,536.8 563.079,537.668 562.385,538.432C561.691,539.196 560.788,539.578 559.677,539.578Z" style="fill:rgb(244,176,73);fill-rule:nonzero;"/>
        <path d="M613.624,540.827C611.403,540.827 609.597,540.064 608.209,538.536C606.82,537.009 606.126,535.273 606.126,533.329C606.126,531.246 606.82,529.475 608.209,528.017C609.597,526.559 611.403,525.83 613.624,525.83C615.568,525.83 617.269,526.559 618.728,528.017C620.186,529.475 620.915,531.246 620.915,533.329C620.915,535.273 620.186,537.009 618.728,538.536C617.269,540.064 615.568,540.827 613.624,540.827Z" style="fill:rgb(244,176,73);fill-rule:nonzero;"/>
        <path d="M647.992,539.578C647.02,539.578 646.187,539.196 645.493,538.432C644.798,537.668 644.451,536.8 644.451,535.828L644.451,444.806C644.451,443.695 644.798,442.827 645.493,442.202C646.187,441.577 647.02,441.265 647.992,441.265C649.103,441.265 650.006,441.577 650.7,442.202C651.394,442.827 651.741,443.695 651.741,444.806L651.741,455.845C654.102,451.818 657.608,448.173 662.26,444.91C666.912,441.647 672.709,440.015 679.652,440.015C686.456,440.015 692.705,441.716 698.398,445.118C704.092,448.52 708.639,453.033 712.041,458.657C715.443,464.281 717.144,470.564 717.144,477.507L717.144,535.828C717.144,537.078 716.763,538.015 715.999,538.64C715.235,539.265 714.367,539.578 713.395,539.578C712.562,539.578 711.764,539.265 711,538.64C710.236,538.015 709.854,537.078 709.854,535.828L709.854,477.507C709.854,472.369 708.5,467.509 705.793,462.927C703.085,458.345 699.509,454.595 695.066,451.679C690.622,448.763 685.693,447.305 680.277,447.305C675.556,447.305 671.008,448.52 666.634,450.95C662.26,453.38 658.684,456.817 655.907,461.261C653.13,465.704 651.741,471.12 651.741,477.507L651.741,535.828C651.741,536.8 651.394,537.668 650.7,538.432C650.006,539.196 649.103,539.578 647.992,539.578Z" style="fill:rgb(244,176,73);fill-rule:nonzero;"/>
        <path d="M766.717,540.827C758.664,540.827 751.825,538.571 746.201,534.058C740.577,529.545 737.765,522.637 737.765,513.333C737.765,505.973 739.813,500.315 743.91,496.357C748.006,492.4 753.699,489.657 760.989,488.13C768.28,486.602 776.715,485.839 786.297,485.839L797.961,485.839L797.961,480.007C797.961,474.73 797.058,469.592 795.253,464.593C793.448,459.594 790.532,455.463 786.505,452.2C782.478,448.937 777.132,447.305 770.467,447.305C766.162,447.305 762.552,447.756 759.636,448.659C756.72,449.562 754.394,450.499 752.658,451.471C750.922,452.443 749.638,452.929 748.805,452.929C747.694,452.929 746.791,452.408 746.097,451.367C745.402,450.325 745.055,449.457 745.055,448.763C745.055,447.375 746.34,446.021 748.909,444.702C751.478,443.382 754.741,442.271 758.698,441.369C762.656,440.466 766.717,440.015 770.883,440.015C779.493,440.015 786.297,441.924 791.296,445.743C796.295,449.562 799.87,454.491 802.023,460.532C804.175,466.572 805.251,473.064 805.251,480.007L805.251,535.828C805.251,536.8 804.939,537.668 804.314,538.432C803.689,539.196 802.821,539.578 801.71,539.578C800.738,539.578 799.87,539.196 799.106,538.432C798.343,537.668 797.961,536.8 797.961,535.828L797.961,524.997C794.489,529.024 790.15,532.669 784.943,535.932C779.736,539.196 773.66,540.827 766.717,540.827ZM766.509,533.537C771.786,533.537 776.819,532.253 781.61,529.684C786.401,527.115 790.324,524.025 793.379,520.415C796.433,516.805 797.961,513.541 797.961,510.625L797.961,493.129L786.505,493.129C779.423,493.129 772.723,493.545 766.405,494.379C760.087,495.212 754.949,497.052 750.992,499.898C747.034,502.745 745.055,507.223 745.055,513.333C745.055,520.276 747.138,525.379 751.304,528.642C755.47,531.906 760.538,533.537 766.509,533.537Z" style="fill:rgb(244,176,73);fill-rule:nonzero;"/>
        <path d="M836.286,539.578C835.314,539.578 834.481,539.196 833.787,538.432C833.092,537.668 832.745,536.8 832.745,535.828L832.745,444.806C832.745,443.695 833.092,442.827 833.787,442.202C834.481,441.577 835.314,441.265 836.286,441.265C837.397,441.265 838.3,441.577 838.994,442.202C839.688,442.827 840.035,443.695 840.035,444.806L840.035,455.845C842.396,451.818 845.902,448.173 850.554,444.91C855.206,441.647 861.003,440.015 867.946,440.015C875.167,440.015 881.52,441.959 887.005,445.847C892.49,449.735 896.551,454.734 899.19,460.844C902.8,453.762 907.487,448.52 913.249,445.118C919.012,441.716 924.879,440.015 930.85,440.015C936.682,440.015 942.202,441.473 947.409,444.389C952.616,447.305 956.851,451.54 960.115,457.095C963.378,462.649 965.009,469.453 965.009,477.507L965.009,535.828C965.009,536.8 964.662,537.668 963.968,538.432C963.274,539.196 962.371,539.578 961.26,539.578C960.288,539.578 959.455,539.196 958.761,538.432C958.066,537.668 957.719,536.8 957.719,535.828L957.719,477.507C957.719,470.842 956.365,465.287 953.658,460.844C950.95,456.4 947.513,453.033 943.347,450.742C939.181,448.451 934.946,447.305 930.642,447.305C925.92,447.305 921.442,448.52 917.207,450.95C912.972,453.38 909.465,456.748 906.688,461.052C903.911,465.357 902.522,470.425 902.522,476.257L902.522,536.037C902.522,537.286 902.141,538.189 901.377,538.744C900.613,539.3 899.745,539.578 898.773,539.578C897.94,539.578 897.142,539.3 896.378,538.744C895.614,538.189 895.232,537.286 895.232,536.037L895.232,476.466C895.232,470.911 894.017,465.947 891.587,461.573C889.157,457.199 885.929,453.727 881.902,451.159C877.875,448.59 873.362,447.305 868.363,447.305C863.78,447.305 859.302,448.52 854.928,450.95C850.554,453.38 846.978,456.817 844.201,461.261C841.424,465.704 840.035,471.12 840.035,477.507L840.035,535.828C840.035,536.8 839.688,537.668 838.994,538.432C838.3,539.196 837.397,539.578 836.286,539.578Z" style="fill:rgb(244,176,73);fill-rule:nonzero;"/>
        <path d="M1031.037,540.827C1022.844,540.827 1015.589,539.23 1009.271,536.037C1002.953,532.843 997.989,528.434 994.378,522.81C990.768,517.186 988.963,510.556 988.963,502.919L988.963,476.882C988.963,470.217 990.664,464.072 994.066,458.449C997.468,452.825 1001.981,448.347 1007.605,445.014C1013.228,441.681 1019.373,440.015 1026.038,440.015C1032.565,440.015 1038.64,441.647 1044.264,444.91C1049.887,448.173 1054.4,452.617 1057.802,458.24C1061.205,463.864 1062.906,470.286 1062.906,477.507C1062.906,482.506 1062.072,486.116 1060.406,488.338C1058.74,490.56 1056.622,491.914 1054.053,492.4C1051.484,492.886 1048.672,493.129 1045.618,493.129L996.253,493.129L996.253,502.919C996.253,512.361 999.585,519.825 1006.251,525.31C1012.916,530.795 1021.317,533.537 1031.454,533.537C1037.286,533.537 1041.729,532.808 1044.784,531.35C1047.839,529.892 1050.165,528.469 1051.762,527.08C1053.359,525.692 1054.782,524.997 1056.032,524.997C1056.726,524.997 1057.351,525.206 1057.907,525.622C1058.462,526.039 1058.913,526.525 1059.26,527.08C1059.608,527.636 1059.781,528.191 1059.781,528.746C1059.781,529.996 1058.636,531.593 1056.344,533.537C1054.053,535.481 1050.755,537.182 1046.451,538.64C1042.146,540.098 1037.008,540.827 1031.037,540.827ZM996.253,485.839L1043.118,485.839C1048.256,485.839 1051.623,485.353 1053.22,484.381C1054.817,483.409 1055.615,481.326 1055.615,478.132C1055.615,473.133 1054.4,468.273 1051.97,463.552C1049.54,458.831 1046.104,454.942 1041.66,451.888C1037.216,448.833 1032.009,447.305 1026.038,447.305C1020.484,447.305 1015.45,448.694 1010.937,451.471C1006.424,454.248 1002.849,457.858 1000.21,462.302C997.572,466.746 996.253,471.606 996.253,476.882L996.253,485.839Z" style="fill:rgb(244,176,73);fill-rule:nonzero;"/>
    </g>
    <g transform="matrix(-0.216053,0.381875,-0.381875,-0.216053,547.957027,126.54681)">
        <g transform="matrix(0.937198,0,0,0.9407,44.253404,27.768669)">
            <path d="M712,555.12L712,803.011C712,832.329 688.109,856.131 658.682,856.131L351.318,856.131C321.891,856.131 298,832.329 298,803.011L298,555.12C298,525.802 321.891,502 351.318,502L658.682,502C688.109,502 712,525.802 712,555.12Z" style="fill:rgb(97,211,151);"/>
        </g>
        <g transform="matrix(0.160984,0.032598,-0.130076,0.642381,252.145265,198.305579)">
            <path d="M712,517.563L712,840.568C712,849.157 684.174,856.131 649.9,856.131L360.1,856.131C325.826,856.131 298,849.157 298,840.568L298,517.563C298,508.973 325.826,502 360.1,502L649.9,502C684.174,502 712,508.973 712,517.563Z" style="fill:rgb(97,211,151);"/>
        </g>
        <g transform="matrix(0.223176,0,0,0.559408,326.325838,575.04571)">
            <path d="M712,526.775L712,831.356C712,845.029 684.174,856.131 649.9,856.131L360.1,856.131C325.826,856.131 298,845.029 298,831.356L298,526.775C298,513.101 325.826,502 360.1,502L649.9,502C684.174,502 712,513.101 712,526.775Z" style="fill:rgb(97,211,151);"/>
        </g>
        <g transform="matrix(0.223176,0,0,0.559408,502.229849,574.620076)">
            <path d="M712,526.775L712,831.356C712,845.029 684.174,856.131 649.9,856.131L360.1,856.131C325.826,856.131 298,845.029 298,831.356L298,526.775C298,513.101 325.826,502 360.1,502L649.9,502C684.174,502 712,513.101 712,526.775Z" style="fill:rgb(97,211,151);"/>
        </g>
        <g transform="matrix(1.514064,0.306584,-0.306584,1.514064,-432.237604,402.889865)">
            <circle cx="461.5" cy="179.5" r="17.5" style="fill:rgb(97,211,151);stroke:rgb(97,211,151);stroke-width:23.98px;"/>
        </g>
        <g transform="matrix(0.1563,-0.050485,0.201451,0.623691,581.809421,250.652575)">
            <path d="M712,517.563L712,840.568C712,849.157 684.174,856.131 649.9,856.131L360.1,856.131C325.826,856.131 298,849.157 298,840.568L298,517.563C298,508.973 325.826,502 360.1,502L649.9,502C684.174,502 712,508.973 712,517.563Z" style="fill:rgb(97,211,151);"/>
        </g>
        <g transform="matrix(1.470013,-0.47481,0.47481,1.470013,85.524898,764.399899)">
            <circle cx="461.5" cy="179.5" r="17.5" style="fill:rgb(97,211,151);stroke:rgb(97,211,151);stroke-width:23.98px;"/>
        </g>
        <g transform="matrix(0.181587,0,0,0.25904,560.0132,218.352177)">
            <path d="M712,545.532L712,812.598C712,836.625 684.174,856.131 649.9,856.131L360.1,856.131C325.826,856.131 298,836.625 298,812.598L298,545.532C298,521.506 325.826,502 360.1,502L649.9,502C684.174,502 712,521.506 712,545.532Z" style="fill:rgb(97,211,151);"/>
        </g>
        <g transform="matrix(0.181587,0,0,0.25904,295.607615,218.352177)">
            <path d="M712,545.532L712,812.598C712,836.625 684.174,856.131 649.9,856.131L360.1,856.131C325.826,856.131 298,836.625 298,812.598L298,545.532C298,521.506 325.826,502 360.1,502L649.9,502C684.174,502 712,521.506 712,545.532Z" style="fill:rgb(97,211,151);"/>
        </g>
        <g transform="matrix(0.051505,0,0,0.244312,492.969037,45.261322)">
            <path d="M712,515.092L712,843.039C712,850.265 684.174,856.131 649.9,856.131L360.1,856.131C325.826,856.131 298,850.265 298,843.039L298,515.092C298,507.866 325.826,502 360.1,502L649.9,502C684.174,502 712,507.866 712,515.092Z" style="fill:rgb(97,211,151);"/>
        </g>
        <g transform="matrix(1.066152,0,0,1.09336,26.950073,-42.56589)">
            <circle cx="461.5" cy="179.5" r="17.5" style="fill:rgb(97,211,151);stroke:rgb(97,211,151);stroke-width:34.3px;"/>
        </g>
        <g transform="matrix(1.066152,0,0,1.09336,-24.266172,-65.438453)">
            <path d="M372,493C372,493 371.946,467 371.795,434.948C371.639,401.743 372.672,360.897 389.743,328.143C414.118,281.374 451.13,264.429 509.538,263.992C570.826,263.534 606.1,284.285 629.802,328C651.314,367.677 646.06,409.614 646.643,436.947C647.034,455.299 647.295,493 647.295,493L372,493Z" style="fill:rgb(31,31,31);stroke:rgb(97,211,151);stroke-width:34.3px;"/>
        </g>
        <g transform="matrix(-0.237785,0,0,-0.176653,638.6795,474.633833)">
            <path d="M372,493C372,493 371.946,467 371.795,434.948C371.639,401.743 372.672,360.897 389.743,328.143C414.118,281.374 451.13,264.429 509.538,263.992C570.826,263.534 606.1,284.285 629.802,328C651.314,367.677 646.06,409.614 646.643,436.947C647.034,455.299 647.295,493 647.295,493L372,493Z" style="fill:rgb(244,176,73);stroke:rgb(244,176,73);stroke-width:176.82px;"/>
        </g>
        <g transform="matrix(1,0,0,1,-10.000287,142.492483)">
            <circle cx="461.5" cy="179.5" r="17.5" style="fill:rgb(244,176,73);stroke:rgb(244,176,73);stroke-width:37.04px;"/>
        </g>
        <g transform="matrix(1,0,0,1,122.999713,142.492483)">
            <circle cx="461.5" cy="179.5" r="17.5" style="fill:rgb(244,176,73);stroke:rgb(244,176,73);stroke-width:37.04px;"/>
        </g>
        <g transform="matrix(1.126471,0,0,1,-72.905582,-7)">
            <path d="M550.308,756L498,756L511.077,686L537.231,686L550.308,756Z" style="fill:rgb(244,176,73);stroke:rgb(244,176,73);stroke-width:34.77px;"/>
        </g>
        <g transform="matrix(1,0,0,1,42.769214,23.796142)">
            <circle cx="474.769" cy="642.769" r="32.769" style="fill:rgb(244,176,73);stroke:rgb(244,176,73);stroke-width:37.04px;"/>
        </g>
    </g>
    <g transform="matrix(0.993437,0,0,0.993437,66.259754,13.954331)">
        <g transform="matrix(48,0,0,48,1105.138941,514.191176)">
        </g>
        <path d="M124.88 514.48L124.88 514.48Q121.91 514.48 119.96 513.33Q118.02 512.18 117.06 510.21Q116.10 508.24 116.10 505.74L116.10 505.74L116.10 499.98Q116.10 497.54 117.03 495.54Q117.97 493.55 119.94 492.40Q121.91 491.25 124.88 491.25L124.88 491.25Q126.80 491.25 128.22 491.75Q129.63 492.26 130.40 492.90Q131.17 493.55 131.17 494.08L131.17 494.08Q131.17 494.27 131.05 494.46Q130.93 494.66 130.74 494.78Q130.55 494.90 130.31 494.90L130.31 494.90Q129.92 494.90 129.37 494.39Q128.82 493.89 127.81 493.41Q126.80 492.93 124.88 492.93L124.88 492.93Q121.43 492.93 119.60 494.82Q117.78 496.72 117.78 499.98L117.78 499.98L117.78 505.74Q117.78 509.01 119.60 510.90Q121.43 512.80 124.93 512.80L124.93 512.80Q126.95 512.80 128.03 512.30Q129.11 511.79 129.66 511.31Q130.21 510.83 130.64 510.83L130.64 510.83Q130.88 510.83 131.05 510.95Q131.22 511.07 131.34 511.24Q131.46 511.41 131.46 511.65L131.46 511.65Q131.46 512.13 130.67 512.80Q129.88 513.47 128.41 513.98Q126.95 514.48 124.88 514.48ZM141.25 514.48L141.25 514.48Q138.47 514.48 136.52 512.92Q134.58 511.36 134.58 508.14L134.58 508.14Q134.58 505.60 136.00 504.23Q137.41 502.86 139.93 502.34Q142.45 501.81 145.76 501.81L145.76 501.81L148.45 501.81L148.45 500.46Q148.45 498.64 147.83 496.91Q147.20 495.18 145.81 494.06Q144.42 492.93 142.12 492.93L142.12 492.93Q140.63 492.93 139.62 493.24Q138.61 493.55 138.01 493.89Q137.41 494.22 137.12 494.22L137.12 494.22Q136.74 494.22 136.50 493.86Q136.26 493.50 136.26 493.26L136.26 493.26Q136.26 492.78 137.15 492.33Q138.03 491.87 139.40 491.56Q140.77 491.25 142.21 491.25L142.21 491.25Q145.19 491.25 146.91 492.57Q148.64 493.89 149.39 495.98Q150.13 498.06 150.13 500.46L150.13 500.46L150.13 513.33Q150.13 513.66 149.91 513.93Q149.70 514.19 149.31 514.19L149.31 514.19Q148.98 514.19 148.72 513.93Q148.45 513.66 148.45 513.33L148.45 513.33L148.45 510.83Q147.25 512.22 145.45 513.35Q143.65 514.48 141.25 514.48ZM141.20 512.80L141.20 512.80Q143.03 512.80 144.68 511.91Q146.34 511.02 147.40 509.78Q148.45 508.53 148.45 507.52L148.45 507.52L148.45 503.49L145.81 503.49Q143.36 503.49 141.18 503.78Q139.00 504.06 137.63 505.05Q136.26 506.03 136.26 508.14L136.26 508.14Q136.26 510.54 137.70 511.67Q139.14 512.80 141.20 512.80ZM164.48 514.19L163.38 514.19Q159.97 514.19 158.17 512.61Q156.37 511.02 156.37 507.52L156.37 507.52L156.37 481.26Q156.37 480.88 156.63 480.66Q156.90 480.45 157.19 480.45L157.19 480.45Q157.52 480.45 157.79 480.66Q158.05 480.88 158.05 481.26L158.05 481.26L158.05 491.54L164.53 491.54Q164.87 491.54 165.11 491.78Q165.35 492.02 165.35 492.40L165.35 492.40Q165.35 492.74 165.11 492.98Q164.87 493.22 164.53 493.22L164.53 493.22L158.05 493.22L158.05 507.52Q158.05 510.26 159.25 511.38Q160.45 512.51 163.38 512.51L163.38 512.51L164.48 512.51Q164.82 512.51 165.06 512.73Q165.30 512.94 165.30 513.33L165.30 513.33Q165.30 513.66 165.06 513.93Q164.82 514.19 164.48 514.19L164.48 514.19ZM177.01 514.48L177.01 514.48Q174.04 514.48 172.09 513.33Q170.15 512.18 169.19 510.21Q168.23 508.24 168.23 505.74L168.23 505.74L168.23 499.98Q168.23 497.54 169.16 495.54Q170.10 493.55 172.07 492.40Q174.04 491.25 177.01 491.25L177.01 491.25Q178.93 491.25 180.35 491.75Q181.76 492.26 182.53 492.90Q183.30 493.55 183.30 494.08L183.30 494.08Q183.30 494.27 183.18 494.46Q183.06 494.66 182.87 494.78Q182.68 494.90 182.44 494.90L182.44 494.90Q182.05 494.90 181.50 494.39Q180.95 493.89 179.94 493.41Q178.93 492.93 177.01 492.93L177.01 492.93Q173.56 492.93 171.73 494.82Q169.91 496.72 169.91 499.98L169.91 499.98L169.91 505.74Q169.91 509.01 171.73 510.90Q173.56 512.80 177.06 512.80L177.06 512.80Q179.08 512.80 180.16 512.30Q181.24 511.79 181.79 511.31Q182.34 510.83 182.77 510.83L182.77 510.83Q183.01 510.83 183.18 510.95Q183.35 511.07 183.47 511.24Q183.59 511.41 183.59 511.65L183.59 511.65Q183.59 512.13 182.80 512.80Q182.00 513.47 180.54 513.98Q179.08 514.48 177.01 514.48ZM189.16 514.19L189.16 514.19Q188.82 514.19 188.58 513.93Q188.34 513.66 188.34 513.33L188.34 513.33L188.34 478.14Q188.34 477.76 188.58 477.54Q188.82 477.33 189.16 477.33L189.16 477.33Q189.54 477.33 189.78 477.54Q190.02 477.76 190.02 478.14L190.02 478.14L190.02 494.90Q190.84 493.50 192.44 492.38Q194.05 491.25 196.45 491.25L196.45 491.25Q198.80 491.25 200.77 492.42Q202.74 493.60 203.92 495.54Q205.09 497.49 205.09 499.89L205.09 499.89L205.09 513.33Q205.09 513.76 204.83 513.98Q204.56 514.19 204.23 514.19L204.23 514.19Q203.94 514.19 203.68 513.98Q203.41 513.76 203.41 513.33L203.41 513.33L203.41 499.89Q203.41 498.11 202.48 496.53Q201.54 494.94 200.00 493.94Q198.47 492.93 196.60 492.93L196.60 492.93Q194.96 492.93 193.45 493.77Q191.94 494.61 190.98 496.14Q190.02 497.68 190.02 499.89L190.02 499.89L190.02 513.33Q190.02 513.66 189.78 513.93Q189.54 514.19 189.16 514.19ZM229.04 514.19L227.94 514.19Q224.53 514.19 222.73 512.61Q220.93 511.02 220.93 507.52L220.93 507.52L220.93 481.26Q220.93 480.88 221.19 480.66Q221.46 480.45 221.75 480.45L221.75 480.45Q222.08 480.45 222.35 480.66Q222.61 480.88 222.61 481.26L222.61 481.26L222.61 491.54L229.09 491.54Q229.43 491.54 229.67 491.78Q229.91 492.02 229.91 492.40L229.91 492.40Q229.91 492.74 229.67 492.98Q229.43 493.22 229.09 493.22L229.09 493.22L222.61 493.22L222.61 507.52Q222.61 510.26 223.81 511.38Q225.01 512.51 227.94 512.51L227.94 512.51L229.04 512.51Q229.38 512.51 229.62 512.73Q229.86 512.94 229.86 513.33L229.86 513.33Q229.86 513.66 229.62 513.93Q229.38 514.19 229.04 514.19L229.04 514.19ZM234.95 514.19L234.95 514.19Q234.61 514.19 234.37 513.93Q234.13 513.66 234.13 513.33L234.13 513.33L234.13 478.14Q234.13 477.76 234.37 477.54Q234.61 477.33 234.95 477.33L234.95 477.33Q235.33 477.33 235.57 477.54Q235.81 477.76 235.81 478.14L235.81 478.14L235.81 494.90Q236.63 493.50 238.24 492.38Q239.84 491.25 242.24 491.25L242.24 491.25Q244.60 491.25 246.56 492.42Q248.53 493.60 249.71 495.54Q250.88 497.49 250.88 499.89L250.88 499.89L250.88 513.33Q250.88 513.76 250.62 513.98Q250.36 514.19 250.02 514.19L250.02 514.19Q249.73 514.19 249.47 513.98Q249.20 513.76 249.20 513.33L249.20 513.33L249.20 499.89Q249.20 498.11 248.27 496.53Q247.33 494.94 245.80 493.94Q244.26 492.93 242.39 492.93L242.39 492.93Q240.76 492.93 239.24 493.77Q237.73 494.61 236.77 496.14Q235.81 497.68 235.81 499.89L235.81 499.89L235.81 513.33Q235.81 513.66 235.57 513.93Q235.33 514.19 234.95 514.19ZM266.10 514.48L266.10 514.48Q263.27 514.48 261.08 513.38Q258.90 512.27 257.65 510.33Q256.40 508.38 256.40 505.74L256.40 505.74L256.40 499.74Q256.40 497.44 257.58 495.50Q258.75 493.55 260.70 492.40Q262.64 491.25 264.95 491.25L264.95 491.25Q267.20 491.25 269.15 492.38Q271.09 493.50 272.27 495.45Q273.44 497.39 273.44 499.89L273.44 499.89Q273.44 501.62 272.87 502.38Q272.29 503.15 271.40 503.32Q270.51 503.49 269.46 503.49L269.46 503.49L258.08 503.49L258.08 505.74Q258.08 509.01 260.39 510.90Q262.69 512.80 266.19 512.80L266.19 512.80Q268.21 512.80 269.27 512.30Q270.32 511.79 270.88 511.31Q271.43 510.83 271.86 510.83L271.86 510.83Q272.10 510.83 272.29 510.98Q272.48 511.12 272.60 511.31Q272.72 511.50 272.72 511.70L272.72 511.70Q272.72 512.13 271.93 512.80Q271.14 513.47 269.65 513.98Q268.16 514.48 266.10 514.48ZM258.08 499.74L258.08 501.81L268.88 501.81Q270.66 501.81 271.21 501.47Q271.76 501.14 271.76 500.03L271.76 500.03Q271.76 498.30 270.92 496.67Q270.08 495.04 268.55 493.98Q267.01 492.93 264.95 492.93L264.95 492.93Q263.03 492.93 261.47 493.89Q259.91 494.85 259.00 496.38Q258.08 497.92 258.08 499.74L258.08 499.74ZM295.86 514.48L295.86 514.48Q293.60 514.48 291.64 513.25Q289.67 512.03 288.49 510.02Q287.31 508.00 287.31 505.74L287.31 505.74L287.31 499.89Q287.31 497.49 288.49 495.54Q289.67 493.60 291.64 492.42Q293.60 491.25 295.96 491.25L295.96 491.25Q298.36 491.25 299.99 492.38Q301.62 493.50 302.39 494.90L302.39 494.90L302.39 478.14Q302.39 477.76 302.65 477.54Q302.92 477.33 303.25 477.33L303.25 477.33Q303.63 477.33 303.85 477.54Q304.07 477.76 304.07 478.14L304.07 478.14L304.07 513.33Q304.07 513.66 303.85 513.93Q303.63 514.19 303.25 514.19L303.25 514.19Q302.92 514.19 302.65 513.93Q302.39 513.66 302.39 513.33L302.39 513.33L302.39 510.83Q301.62 512.32 299.84 513.40Q298.07 514.48 295.86 514.48ZM295.76 512.80L295.76 512.80Q297.68 512.80 299.17 511.82Q300.66 510.83 301.52 509.58Q302.39 508.34 302.39 507.52L302.39 507.52L302.39 499.89Q302.39 497.68 301.43 496.14Q300.47 494.61 298.96 493.77Q297.44 492.93 295.81 492.93L295.81 492.93Q293.94 492.93 292.40 493.94Q290.87 494.94 289.93 496.53Q289.00 498.11 289.00 499.89L289.00 499.89L289.00 505.74Q289.00 507.52 289.93 509.15Q290.87 510.78 292.40 511.79Q293.94 512.80 295.76 512.80ZM311.46 514.19L311.46 514.19Q311.12 514.19 310.88 513.93Q310.64 513.66 310.64 513.33L310.64 513.33L310.64 492.35Q310.64 491.97 310.88 491.75Q311.12 491.54 311.46 491.54L311.46 491.54Q311.84 491.54 312.08 491.75Q312.32 491.97 312.32 492.35L312.32 492.35L312.32 494.90Q312.90 493.94 313.81 493.12Q314.72 492.30 316.02 491.78Q317.31 491.25 319.00 491.25L319.00 491.25L320.77 491.25Q321.11 491.25 321.35 491.49Q321.59 491.73 321.59 492.11L321.59 492.11Q321.59 492.45 321.35 492.69Q321.11 492.93 320.77 492.93L320.77 492.93L319.00 492.93Q317.31 492.93 315.78 493.77Q314.24 494.61 313.28 496.14Q312.32 497.68 312.32 499.89L312.32 499.89L312.32 513.33Q312.32 513.66 312.08 513.93Q311.84 514.19 311.46 514.19ZM326.29 484.05L326.29 484.05Q325.67 484.05 325.21 483.59Q324.75 483.14 324.75 482.51L324.75 482.51Q324.75 481.89 325.21 481.46Q325.67 481.02 326.29 481.02L326.29 481.02Q326.92 481.02 327.35 481.46Q327.78 481.89 327.78 482.51L327.78 482.51Q327.78 483.14 327.35 483.59Q326.92 484.05 326.29 484.05ZM326.24 514.19L326.24 514.19Q325.91 514.19 325.67 513.93Q325.43 513.66 325.43 513.33L325.43 513.33L325.43 492.35Q325.43 491.97 325.67 491.75Q325.91 491.54 326.24 491.54L326.24 491.54Q326.63 491.54 326.87 491.75Q327.11 491.97 327.11 492.35L327.11 492.35L327.11 513.33Q327.11 513.66 326.87 513.93Q326.63 514.19 326.24 514.19ZM334.45 514.19L334.45 514.19Q334.12 514.19 333.90 513.95Q333.68 513.71 333.68 513.38L333.68 513.38L333.68 485.87Q333.68 483.57 334.86 481.62Q336.04 479.68 337.98 478.50Q339.92 477.33 342.23 477.33L342.23 477.33L342.71 477.33Q343.09 477.33 343.33 477.57Q343.57 477.81 343.57 478.19L343.57 478.19Q343.57 478.53 343.33 478.77Q343.09 479.01 342.71 479.01L342.71 479.01L342.23 479.01Q340.31 479.01 338.75 479.99Q337.19 480.98 336.30 482.54Q335.41 484.10 335.36 485.87L335.36 485.87L335.36 491.54L342.71 491.54Q343.09 491.54 343.33 491.78Q343.57 492.02 343.57 492.35L343.57 492.35Q343.57 492.69 343.33 492.95Q343.09 493.22 342.71 493.22L342.71 493.22L335.36 493.22L335.36 513.38Q335.36 513.71 335.10 513.95Q334.84 514.19 334.45 514.19ZM355.52 514.19L354.42 514.19Q351.01 514.19 349.21 512.61Q347.41 511.02 347.41 507.52L347.41 507.52L347.41 481.26Q347.41 480.88 347.68 480.66Q347.94 480.45 348.23 480.45L348.23 480.45Q348.56 480.45 348.83 480.66Q349.09 480.88 349.09 481.26L349.09 481.26L349.09 491.54L355.57 491.54Q355.91 491.54 356.15 491.78Q356.39 492.02 356.39 492.40L356.39 492.40Q356.39 492.74 356.15 492.98Q355.91 493.22 355.57 493.22L355.57 493.22L349.09 493.22L349.09 507.52Q349.09 510.26 350.29 511.38Q351.49 512.51 354.42 512.51L354.42 512.51L355.52 512.51Q355.86 512.51 356.10 512.73Q356.34 512.94 356.34 513.33L356.34 513.33Q356.34 513.66 356.10 513.93Q355.86 514.19 355.52 514.19L355.52 514.19ZM361.96 497.39L361.96 497.39Q361.19 497.39 360.71 496.86Q360.23 496.34 360.23 495.66L360.23 495.66Q360.23 494.94 360.71 494.44Q361.19 493.94 361.96 493.94L361.96 493.94Q362.63 493.94 363.13 494.44Q363.64 494.94 363.64 495.66L363.64 495.66Q363.64 496.34 363.13 496.86Q362.63 497.39 361.96 497.39ZM361.96 514.48L361.96 514.48Q361.19 514.48 360.71 513.95Q360.23 513.42 360.23 512.75L360.23 512.75Q360.23 512.03 360.71 511.53Q361.19 511.02 361.96 511.02L361.96 511.02Q362.63 511.02 363.13 511.53Q363.64 512.03 363.64 512.75L363.64 512.75Q363.64 513.42 363.13 513.95Q362.63 514.48 361.96 514.48ZM385.57 514.48L385.57 514.48Q385.24 514.48 385.04 514.34Q384.85 514.19 384.76 513.90L384.76 513.90L377.27 493.07Q377.22 492.98 377.15 492.76Q377.08 492.54 377.08 492.40L377.08 492.40Q377.08 492.16 377.20 491.97Q377.32 491.78 377.51 491.66Q377.70 491.54 377.94 491.54L377.94 491.54Q378.18 491.54 378.42 491.68Q378.66 491.82 378.76 492.06L378.76 492.06L385.57 510.93L392.34 492.35Q392.44 492.06 392.56 491.80Q392.68 491.54 393.16 491.54L393.16 491.54Q393.40 491.54 393.59 491.63Q393.78 491.73 393.92 491.92Q394.07 492.11 394.07 492.35L394.07 492.35Q394.07 492.54 394.00 492.76Q393.92 492.98 393.88 493.07L393.88 493.07L386.39 513.90Q386.29 514.14 386.08 514.31Q385.86 514.48 385.57 514.48ZM407.12 514.48L407.12 514.48Q404.29 514.48 402.11 513.38Q399.92 512.27 398.68 510.33Q397.43 508.38 397.43 505.74L397.43 505.74L397.43 499.74Q397.43 497.44 398.60 495.50Q399.78 493.55 401.72 492.40Q403.67 491.25 405.97 491.25L405.97 491.25Q408.23 491.25 410.17 492.38Q412.12 493.50 413.29 495.45Q414.47 497.39 414.47 499.89L414.47 499.89Q414.47 501.62 413.89 502.38Q413.32 503.15 412.43 503.32Q411.54 503.49 410.48 503.49L410.48 503.49L399.11 503.49L399.11 505.74Q399.11 509.01 401.41 510.90Q403.72 512.80 407.22 512.80L407.22 512.80Q409.24 512.80 410.29 512.30Q411.35 511.79 411.90 511.31Q412.45 510.83 412.88 510.83L412.88 510.83Q413.12 510.83 413.32 510.98Q413.51 511.12 413.63 511.31Q413.75 511.50 413.75 511.70L413.75 511.70Q413.75 512.13 412.96 512.80Q412.16 513.47 410.68 513.98Q409.19 514.48 407.12 514.48ZM399.11 499.74L399.11 501.81L409.91 501.81Q411.68 501.81 412.24 501.47Q412.79 501.14 412.79 500.03L412.79 500.03Q412.79 498.30 411.95 496.67Q411.11 495.04 409.57 493.98Q408.04 492.93 405.97 492.93L405.97 492.93Q404.05 492.93 402.49 493.89Q400.93 494.85 400.02 496.38Q399.11 497.92 399.11 499.74L399.11 499.74ZM420.42 514.19L420.42 514.19Q420.08 514.19 419.84 513.93Q419.60 513.66 419.60 513.33L419.60 513.33L419.60 492.35Q419.60 491.97 419.84 491.75Q420.08 491.54 420.42 491.54L420.42 491.54Q420.80 491.54 421.04 491.75Q421.28 491.97 421.28 492.35L421.28 492.35L421.28 494.90Q421.86 493.94 422.77 493.12Q423.68 492.30 424.98 491.78Q426.28 491.25 427.96 491.25L427.96 491.25L429.73 491.25Q430.07 491.25 430.31 491.49Q430.55 491.73 430.55 492.11L430.55 492.11Q430.55 492.45 430.31 492.69Q430.07 492.93 429.73 492.93L429.73 492.93L427.96 492.93Q426.28 492.93 424.74 493.77Q423.20 494.61 422.24 496.14Q421.28 497.68 421.28 499.89L421.28 499.89L421.28 513.33Q421.28 513.66 421.04 513.93Q420.80 514.19 420.42 514.19ZM435.25 484.05L435.25 484.05Q434.63 484.05 434.17 483.59Q433.72 483.14 433.72 482.51L433.72 482.51Q433.72 481.89 434.17 481.46Q434.63 481.02 435.25 481.02L435.25 481.02Q435.88 481.02 436.31 481.46Q436.74 481.89 436.74 482.51L436.74 482.51Q436.74 483.14 436.31 483.59Q435.88 484.05 435.25 484.05ZM435.20 514.19L435.20 514.19Q434.87 514.19 434.63 513.93Q434.39 513.66 434.39 513.33L434.39 513.33L434.39 492.35Q434.39 491.97 434.63 491.75Q434.87 491.54 435.20 491.54L435.20 491.54Q435.59 491.54 435.83 491.75Q436.07 491.97 436.07 492.35L436.07 492.35L436.07 513.33Q436.07 513.66 435.83 513.93Q435.59 514.19 435.20 514.19ZM443.41 514.19L443.41 514.19Q443.08 514.19 442.86 513.95Q442.64 513.71 442.64 513.38L442.64 513.38L442.64 485.87Q442.64 483.57 443.82 481.62Q445.00 479.68 446.94 478.50Q448.88 477.33 451.19 477.33L451.19 477.33L451.67 477.33Q452.05 477.33 452.29 477.57Q452.53 477.81 452.53 478.19L452.53 478.19Q452.53 478.53 452.29 478.77Q452.05 479.01 451.67 479.01L451.67 479.01L451.19 479.01Q449.27 479.01 447.71 479.99Q446.15 480.98 445.26 482.54Q444.37 484.10 444.32 485.87L444.32 485.87L444.32 491.54L451.67 491.54Q452.05 491.54 452.29 491.78Q452.53 492.02 452.53 492.35L452.53 492.35Q452.53 492.69 452.29 492.95Q452.05 493.22 451.67 493.22L451.67 493.22L444.32 493.22L444.32 513.38Q444.32 513.71 444.06 513.95Q443.80 514.19 443.41 514.19ZM454.93 525.57L454.93 525.57Q454.60 525.57 454.36 525.33Q454.12 525.09 454.12 524.75L454.12 524.75Q454.12 524.42 454.28 524.15Q454.45 523.89 454.84 523.89L454.84 523.89Q456.13 523.89 457.16 522.95Q458.20 522.01 459.04 520.46Q459.88 518.89 460.55 517.10Q461.22 515.30 461.84 513.57L461.84 513.57L454.16 492.35Q454.07 492.16 454.07 492.06L454.07 492.06Q454.07 491.82 454.19 491.66Q454.31 491.49 454.52 491.37Q454.74 491.25 454.98 491.25L454.98 491.25Q455.22 491.25 455.46 491.39Q455.70 491.54 455.75 491.78L455.75 491.78L462.71 510.98L469.62 491.78Q469.72 491.54 469.93 491.39Q470.15 491.25 470.39 491.25L470.39 491.25Q470.63 491.25 470.82 491.34Q471.01 491.44 471.13 491.61Q471.25 491.78 471.25 492.06L471.25 492.06Q471.25 492.26 471.20 492.35L471.20 492.35L463.52 513.57Q462.90 515.34 462.08 517.43Q461.27 519.52 460.24 521.37Q459.20 523.22 457.88 524.39Q456.56 525.57 454.93 525.57ZM483.83 514.19L483.83 514.19Q483.64 514.19 483.42 514.10Q483.20 514.00 483.08 513.83Q482.96 513.66 482.96 513.42L482.96 513.42Q482.96 513.23 483.01 513.13L483.01 513.13L493.43 479.49Q493.52 479.10 493.76 478.96Q494.00 478.82 494.29 478.82L494.29 478.82Q494.58 478.82 494.84 478.98Q495.11 479.15 495.20 479.49L495.20 479.49L505.52 513.13Q505.57 513.23 505.57 513.38L505.57 513.38Q505.57 513.57 505.43 513.76Q505.28 513.95 505.07 514.07Q504.85 514.19 504.61 514.19L504.61 514.19Q504.37 514.19 504.16 514.05Q503.94 513.90 503.84 513.57L503.84 513.57L501.40 505.70L487.09 505.70L484.69 513.57Q484.60 513.90 484.36 514.05Q484.12 514.19 483.83 514.19ZM494.29 482.46L487.62 503.97L500.87 503.97L494.29 482.46ZM511.62 514.19L511.62 514.19Q511.28 514.19 511.02 513.98Q510.76 513.76 510.76 513.33L510.76 513.33L510.76 479.92Q510.76 479.49 511.02 479.30Q511.28 479.10 511.62 479.10L511.62 479.10Q511.96 479.10 512.22 479.30Q512.48 479.49 512.48 479.92L512.48 479.92L512.48 513.33Q512.48 513.76 512.22 513.98Q511.96 514.19 511.62 514.19ZM534.42 514.48L534.42 514.48Q531.64 514.48 529.69 512.92Q527.75 511.36 527.75 508.14L527.75 508.14Q527.75 505.60 529.16 504.23Q530.58 502.86 533.10 502.34Q535.62 501.81 538.93 501.81L538.93 501.81L541.62 501.81L541.62 500.46Q541.62 498.64 541.00 496.91Q540.37 495.18 538.98 494.06Q537.59 492.93 535.28 492.93L535.28 492.93Q533.80 492.93 532.79 493.24Q531.78 493.55 531.18 493.89Q530.58 494.22 530.29 494.22L530.29 494.22Q529.91 494.22 529.67 493.86Q529.43 493.50 529.43 493.26L529.43 493.26Q529.43 492.78 530.32 492.33Q531.20 491.87 532.57 491.56Q533.94 491.25 535.38 491.25L535.38 491.25Q538.36 491.25 540.08 492.57Q541.81 493.89 542.56 495.98Q543.30 498.06 543.30 500.46L543.30 500.46L543.30 513.33Q543.30 513.66 543.08 513.93Q542.87 514.19 542.48 514.19L542.48 514.19Q542.15 514.19 541.88 513.93Q541.62 513.66 541.62 513.33L541.62 513.33L541.62 510.83Q540.42 512.22 538.62 513.35Q536.82 514.48 534.42 514.48ZM534.37 512.80L534.37 512.80Q536.20 512.80 537.85 511.91Q539.51 511.02 540.56 509.78Q541.62 508.53 541.62 507.52L541.62 507.52L541.62 503.49L538.98 503.49Q536.53 503.49 534.35 503.78Q532.16 504.06 530.80 505.05Q529.43 506.03 529.43 508.14L529.43 508.14Q529.43 510.54 530.87 511.67Q532.31 512.80 534.37 512.80ZM557.22 525.57L557.22 525.57Q554.44 525.57 552.35 524.80Q550.26 524.03 549.08 522.64Q547.91 521.25 547.91 519.38L547.91 519.38Q547.91 517.17 549.28 515.89Q550.64 514.62 552.28 514.05L552.28 514.05Q550.98 513.66 550.16 512.92Q549.35 512.18 549.35 510.64L549.35 510.64Q549.35 509.30 550.00 508.55Q550.64 507.81 551.70 507.33L551.70 507.33Q550.50 506.27 549.85 504.71Q549.20 503.15 549.20 501.28L549.20 501.28L549.20 499.12Q549.20 496.82 550.16 495.04Q551.12 493.26 552.88 492.26Q554.63 491.25 556.93 491.25L556.93 491.25Q558.71 491.25 560.15 491.85Q561.59 492.45 562.64 493.55L562.64 493.55Q563.32 492.30 564.32 491.46Q565.33 490.62 566.24 490.62L566.24 490.62Q566.77 490.62 567.01 490.91Q567.25 491.20 567.25 491.58L567.25 491.58Q567.25 492.02 566.99 492.26Q566.72 492.50 566.39 492.50L566.39 492.50Q565.76 492.50 564.97 492.93Q564.18 493.36 563.51 494.70L563.51 494.70Q564.13 495.57 564.42 496.72Q564.71 497.87 564.71 499.12L564.71 499.12L564.71 501.28Q564.71 503.54 563.72 505.36Q562.74 507.18 560.96 508.22Q559.19 509.25 556.88 509.25L556.88 509.25Q554.68 509.25 552.95 508.24L552.95 508.24Q552.23 508.58 551.63 509.08Q551.03 509.58 551.03 510.54L551.03 510.54Q551.03 511.74 552.13 512.27Q553.24 512.80 554.96 512.99Q556.69 513.18 558.61 513.38Q560.53 513.57 562.26 514.10Q563.99 514.62 565.09 515.77Q566.20 516.93 566.20 519.09L566.20 519.09Q566.20 521.15 565.09 522.59Q563.99 524.03 562.00 524.80Q560.00 525.57 557.22 525.57ZM557.22 524.03L557.22 524.03Q560.77 524.03 562.64 522.69Q564.52 521.34 564.52 519.13L564.52 519.13Q564.52 517.41 563.44 516.52Q562.36 515.63 560.72 515.27Q559.09 514.91 557.44 514.79Q555.78 514.67 554.63 514.53L554.63 514.53Q552.71 515.06 551.15 516.13Q549.59 517.22 549.59 519.23L549.59 519.23Q549.59 521.34 551.58 522.69Q553.57 524.03 557.22 524.03ZM556.98 507.57L556.98 507.57Q559.81 507.57 561.42 505.77Q563.03 503.97 563.03 501.28L563.03 501.28L563.03 499.12Q563.03 496.48 561.42 494.70Q559.81 492.93 556.93 492.93L556.93 492.93Q554.05 492.93 552.47 494.70Q550.88 496.48 550.88 499.12L550.88 499.12L550.88 501.23Q550.88 503.92 552.49 505.74Q554.10 507.57 556.98 507.57ZM579.92 514.48L579.92 514.48Q577.09 514.48 574.91 513.38Q572.72 512.27 571.48 510.33Q570.23 508.38 570.23 505.74L570.23 505.74L570.23 499.74Q570.23 497.44 571.40 495.50Q572.58 493.55 574.52 492.40Q576.47 491.25 578.77 491.25L578.77 491.25Q581.03 491.25 582.97 492.38Q584.92 493.50 586.09 495.45Q587.27 497.39 587.27 499.89L587.27 499.89Q587.27 501.62 586.69 502.38Q586.12 503.15 585.23 503.32Q584.34 503.49 583.28 503.49L583.28 503.49L571.91 503.49L571.91 505.74Q571.91 509.01 574.21 510.90Q576.52 512.80 580.02 512.80L580.02 512.80Q582.04 512.80 583.09 512.30Q584.15 511.79 584.70 511.31Q585.25 510.83 585.68 510.83L585.68 510.83Q585.92 510.83 586.12 510.98Q586.31 511.12 586.43 511.31Q586.55 511.50 586.55 511.70L586.55 511.70Q586.55 512.13 585.76 512.80Q584.96 513.47 583.48 513.98Q581.99 514.48 579.92 514.48ZM571.91 499.74L571.91 501.81L582.71 501.81Q584.48 501.81 585.04 501.47Q585.59 501.14 585.59 500.03L585.59 500.03Q585.59 498.30 584.75 496.67Q583.91 495.04 582.37 493.98Q580.84 492.93 578.77 492.93L578.77 492.93Q576.85 492.93 575.29 493.89Q573.73 494.85 572.82 496.38Q571.91 497.92 571.91 499.74L571.91 499.74ZM593.22 514.19L593.22 514.19Q592.88 514.19 592.64 513.93Q592.40 513.66 592.40 513.33L592.40 513.33L592.40 492.35Q592.40 491.97 592.64 491.75Q592.88 491.54 593.22 491.54L593.22 491.54Q593.60 491.54 593.84 491.75Q594.08 491.97 594.08 492.35L594.08 492.35L594.08 494.90Q594.90 493.50 596.51 492.38Q598.12 491.25 600.52 491.25L600.52 491.25Q602.87 491.25 604.84 492.42Q606.80 493.60 607.98 495.54Q609.16 497.49 609.16 499.89L609.16 499.89L609.16 513.33Q609.16 513.76 608.89 513.98Q608.63 514.19 608.29 514.19L608.29 514.19Q608.00 514.19 607.74 513.98Q607.48 513.76 607.48 513.33L607.48 513.33L607.48 499.89Q607.48 498.11 606.54 496.53Q605.60 494.94 604.07 493.94Q602.53 492.93 600.66 492.93L600.66 492.93Q599.03 492.93 597.52 493.77Q596.00 494.61 595.04 496.14Q594.08 497.68 594.08 499.89L594.08 499.89L594.08 513.33Q594.08 513.66 593.84 513.93Q593.60 514.19 593.22 514.19ZM623.51 514.19L622.40 514.19Q619.00 514.19 617.20 512.61Q615.40 511.02 615.40 507.52L615.40 507.52L615.40 481.26Q615.40 480.88 615.66 480.66Q615.92 480.45 616.21 480.45L616.21 480.45Q616.55 480.45 616.81 480.66Q617.08 480.88 617.08 481.26L617.08 481.26L617.08 491.54L623.56 491.54Q623.89 491.54 624.13 491.78Q624.37 492.02 624.37 492.40L624.37 492.40Q624.37 492.74 624.13 492.98Q623.89 493.22 623.56 493.22L623.56 493.22L617.08 493.22L617.08 507.52Q617.08 510.26 618.28 511.38Q619.48 512.51 622.40 512.51L622.40 512.51L623.51 512.51Q623.84 512.51 624.08 512.73Q624.32 512.94 624.32 513.33L624.32 513.33Q624.32 513.66 624.08 513.93Q623.84 514.19 623.51 514.19L623.51 514.19ZM634.12 514.48L634.12 514.48Q631.96 514.48 630.40 513.93Q628.84 513.38 627.97 512.66Q627.11 511.94 627.11 511.36L627.11 511.36Q627.11 511.12 627.20 510.95Q627.30 510.78 627.47 510.66Q627.64 510.54 627.78 510.54L627.78 510.54Q628.21 510.54 628.81 511.10Q629.41 511.65 630.61 512.22Q631.81 512.80 634.07 512.80L634.07 512.80Q637.09 512.80 638.39 511.62Q639.68 510.45 639.68 508.82L639.68 508.82Q639.68 506.94 638.82 505.91Q637.96 504.88 636.56 504.33Q635.17 503.78 633.64 503.34Q632.10 502.91 630.71 502.31Q629.32 501.71 628.45 500.58Q627.59 499.46 627.59 497.49L627.59 497.49Q627.59 496.05 628.33 494.61Q629.08 493.17 630.64 492.21Q632.20 491.25 634.69 491.25L634.69 491.25Q636.13 491.25 637.48 491.56Q638.82 491.87 639.68 492.33Q640.55 492.78 640.55 493.26L640.55 493.26Q640.55 493.41 640.43 493.65Q640.31 493.89 640.14 494.06Q639.97 494.22 639.73 494.22L639.73 494.22Q639.44 494.22 638.82 493.89Q638.20 493.55 637.19 493.24Q636.18 492.93 634.74 492.93L634.74 492.93Q632.72 492.93 631.52 493.67Q630.32 494.42 629.80 495.45Q629.27 496.48 629.27 497.44L629.27 497.44Q629.27 499.02 630.13 499.89Q631.00 500.75 632.39 501.23Q633.78 501.71 635.32 502.14Q636.85 502.58 638.24 503.27Q639.64 503.97 640.50 505.24Q641.36 506.51 641.36 508.72L641.36 508.72Q641.36 511.36 639.44 512.92Q637.52 514.48 634.12 514.48ZM661.14 514.48L661.14 514.48Q658.36 514.48 656.41 512.92Q654.47 511.36 654.47 508.14L654.47 508.14Q654.47 505.60 655.88 504.23Q657.30 502.86 659.82 502.34Q662.34 501.81 665.65 501.81L665.65 501.81L668.34 501.81L668.34 500.46Q668.34 498.64 667.72 496.91Q667.09 495.18 665.70 494.06Q664.31 492.93 662.00 492.93L662.00 492.93Q660.52 492.93 659.51 493.24Q658.50 493.55 657.90 493.89Q657.30 494.22 657.01 494.22L657.01 494.22Q656.63 494.22 656.39 493.86Q656.15 493.50 656.15 493.26L656.15 493.26Q656.15 492.78 657.04 492.33Q657.92 491.87 659.29 491.56Q660.66 491.25 662.10 491.25L662.10 491.25Q665.08 491.25 666.80 492.57Q668.53 493.89 669.28 495.98Q670.02 498.06 670.02 500.46L670.02 500.46L670.02 513.33Q670.02 513.66 669.80 513.93Q669.59 514.19 669.20 514.19L669.20 514.19Q668.87 514.19 668.60 513.93Q668.34 513.66 668.34 513.33L668.34 513.33L668.34 510.83Q667.14 512.22 665.34 513.35Q663.54 514.48 661.14 514.48ZM661.09 512.80L661.09 512.80Q662.92 512.80 664.57 511.91Q666.23 511.02 667.28 509.78Q668.34 508.53 668.34 507.52L668.34 507.52L668.34 503.49L665.70 503.49Q663.25 503.49 661.07 503.78Q658.88 504.06 657.52 505.05Q656.15 506.03 656.15 508.14L656.15 508.14Q656.15 510.54 657.59 511.67Q659.03 512.80 661.09 512.80ZM677.17 514.19L677.17 514.19Q676.84 514.19 676.60 513.93Q676.36 513.66 676.36 513.33L676.36 513.33L676.36 492.35Q676.36 491.97 676.60 491.75Q676.84 491.54 677.17 491.54L677.17 491.54Q677.56 491.54 677.80 491.75Q678.04 491.97 678.04 492.35L678.04 492.35L678.04 494.90Q678.61 493.94 679.52 493.12Q680.44 492.30 681.73 491.78Q683.03 491.25 684.71 491.25L684.71 491.25L686.48 491.25Q686.82 491.25 687.06 491.49Q687.30 491.73 687.30 492.11L687.30 492.11Q687.30 492.45 687.06 492.69Q686.82 492.93 686.48 492.93L686.48 492.93L684.71 492.93Q683.03 492.93 681.49 493.77Q679.96 494.61 679.00 496.14Q678.04 497.68 678.04 499.89L678.04 499.89L678.04 513.33Q678.04 513.66 677.80 513.93Q677.56 514.19 677.17 514.19ZM698.77 514.48L698.77 514.48Q695.94 514.48 693.76 513.38Q691.57 512.27 690.32 510.33Q689.08 508.38 689.08 505.74L689.08 505.74L689.08 499.74Q689.08 497.44 690.25 495.50Q691.43 493.55 693.37 492.40Q695.32 491.25 697.62 491.25L697.62 491.25Q699.88 491.25 701.82 492.38Q703.76 493.50 704.94 495.45Q706.12 497.39 706.12 499.89L706.12 499.89Q706.12 501.62 705.54 502.38Q704.96 503.15 704.08 503.32Q703.19 503.49 702.13 503.49L702.13 503.49L690.76 503.49L690.76 505.74Q690.76 509.01 693.06 510.90Q695.36 512.80 698.87 512.80L698.87 512.80Q700.88 512.80 701.94 512.30Q703.00 511.79 703.55 511.31Q704.10 510.83 704.53 510.83L704.53 510.83Q704.77 510.83 704.96 510.98Q705.16 511.12 705.28 511.31Q705.40 511.50 705.40 511.70L705.40 511.70Q705.40 512.13 704.60 512.80Q703.81 513.47 702.32 513.98Q700.84 514.48 698.77 514.48ZM690.76 499.74L690.76 501.81L701.56 501.81Q703.33 501.81 703.88 501.47Q704.44 501.14 704.44 500.03L704.44 500.03Q704.44 498.30 703.60 496.67Q702.76 495.04 701.22 493.98Q699.68 492.93 697.62 492.93L697.62 492.93Q695.70 492.93 694.14 493.89Q692.58 494.85 691.67 496.38Q690.76 497.92 690.76 499.74L690.76 499.74ZM727.00 514.48L727.00 514.48Q726.66 514.48 726.52 514.31Q726.37 514.14 726.18 513.66L726.18 513.66L718.69 493.02Q718.64 492.93 718.57 492.71Q718.50 492.50 718.50 492.40L718.50 492.40Q718.50 492.16 718.62 491.97Q718.74 491.78 718.93 491.66Q719.12 491.54 719.36 491.54L719.36 491.54Q719.60 491.54 719.84 491.68Q720.08 491.82 720.18 492.06L720.18 492.06L726.95 510.83L732.47 493.46Q732.56 493.17 732.78 493.00Q733.00 492.83 733.33 492.83L733.33 492.83Q733.67 492.83 733.88 493.00Q734.10 493.17 734.20 493.46L734.20 493.46L739.52 511.07L746.44 492.06Q746.58 491.54 747.20 491.54L747.20 491.54Q747.44 491.54 747.64 491.63Q747.83 491.73 747.95 491.90Q748.07 492.06 748.07 492.35L748.07 492.35Q748.07 492.50 748.00 492.71Q747.92 492.93 747.88 493.02L747.88 493.02L740.34 513.90Q740.24 514.24 740.05 514.36Q739.86 514.48 739.62 514.48L739.62 514.48Q739.33 514.48 739.21 514.36Q739.09 514.24 738.95 513.95L738.95 513.95L733.33 495.95L727.81 513.66Q727.67 514.10 727.48 514.29Q727.28 514.48 727.00 514.48ZM753.11 514.19L753.11 514.19Q752.77 514.19 752.53 513.93Q752.29 513.66 752.29 513.33L752.29 513.33L752.29 478.14Q752.29 477.76 752.53 477.54Q752.77 477.33 753.11 477.33L753.11 477.33Q753.49 477.33 753.73 477.54Q753.97 477.76 753.97 478.14L753.97 478.14L753.97 494.90Q754.79 493.50 756.40 492.38Q758.00 491.25 760.40 491.25L760.40 491.25Q762.76 491.25 764.72 492.42Q766.69 493.60 767.87 495.54Q769.04 497.49 769.04 499.89L769.04 499.89L769.04 513.33Q769.04 513.76 768.78 513.98Q768.52 514.19 768.18 514.19L768.18 514.19Q767.89 514.19 767.63 513.98Q767.36 513.76 767.36 513.33L767.36 513.33L767.36 499.89Q767.36 498.11 766.43 496.53Q765.49 494.94 763.96 493.94Q762.42 492.93 760.55 492.93L760.55 492.93Q758.92 492.93 757.40 493.77Q755.89 494.61 754.93 496.14Q753.97 497.68 753.97 499.89L753.97 499.89L753.97 513.33Q753.97 513.66 753.73 513.93Q753.49 514.19 753.11 514.19ZM783.01 514.48L783.01 514.48Q780.76 514.48 778.81 513.25Q776.87 512.03 775.69 510.04Q774.52 508.05 774.52 505.74L774.52 505.74L774.52 499.89Q774.52 497.58 775.67 495.62Q776.82 493.65 778.76 492.45Q780.71 491.25 783.01 491.25L783.01 491.25Q785.32 491.25 787.26 492.42Q789.20 493.60 790.38 495.54Q791.56 497.49 791.56 499.89L791.56 499.89L791.56 505.74Q791.56 508.00 790.38 510.02Q789.20 512.03 787.26 513.25Q785.32 514.48 783.01 514.48ZM783.01 512.80L783.01 512.80Q784.93 512.80 786.47 511.79Q788.00 510.78 788.94 509.15Q789.88 507.52 789.88 505.74L789.88 505.74L789.88 499.89Q789.88 498.11 788.96 496.53Q788.05 494.94 786.49 493.94Q784.93 492.93 783.01 492.93L783.01 492.93Q781.09 492.93 779.56 493.94Q778.02 494.94 777.11 496.53Q776.20 498.11 776.20 499.89L776.20 499.89L776.20 505.74Q776.20 507.52 777.11 509.15Q778.02 510.78 779.58 511.79Q781.14 512.80 783.01 512.80ZM814.84 514.19L813.73 514.19Q810.32 514.19 808.52 512.61Q806.72 511.02 806.72 507.52L806.72 507.52L806.72 481.26Q806.72 480.88 806.99 480.66Q807.25 480.45 807.54 480.45L807.54 480.45Q807.88 480.45 808.14 480.66Q808.40 480.88 808.40 481.26L808.40 481.26L808.40 491.54L814.88 491.54Q815.22 491.54 815.46 491.78Q815.70 492.02 815.70 492.40L815.70 492.40Q815.70 492.74 815.46 492.98Q815.22 493.22 814.88 493.22L814.88 493.22L808.40 493.22L808.40 507.52Q808.40 510.26 809.60 511.38Q810.80 512.51 813.73 512.51L813.73 512.51L814.84 512.51Q815.17 512.51 815.41 512.73Q815.65 512.94 815.65 513.33L815.65 513.33Q815.65 513.66 815.41 513.93Q815.17 514.19 814.84 514.19L814.84 514.19ZM820.74 514.19L820.74 514.19Q820.40 514.19 820.16 513.93Q819.92 513.66 819.92 513.33L819.92 513.33L819.92 478.14Q819.92 477.76 820.16 477.54Q820.40 477.33 820.74 477.33L820.74 477.33Q821.12 477.33 821.36 477.54Q821.60 477.76 821.60 478.14L821.60 478.14L821.60 494.90Q822.42 493.50 824.03 492.38Q825.64 491.25 828.04 491.25L828.04 491.25Q830.39 491.25 832.36 492.42Q834.32 493.60 835.50 495.54Q836.68 497.49 836.68 499.89L836.68 499.89L836.68 513.33Q836.68 513.76 836.41 513.98Q836.15 514.19 835.81 514.19L835.81 514.19Q835.52 514.19 835.26 513.98Q835.00 513.76 835.00 513.33L835.00 513.33L835.00 499.89Q835.00 498.11 834.06 496.53Q833.12 494.94 831.59 493.94Q830.05 492.93 828.18 492.93L828.18 492.93Q826.55 492.93 825.04 493.77Q823.52 494.61 822.56 496.14Q821.60 497.68 821.60 499.89L821.60 499.89L821.60 513.33Q821.60 513.66 821.36 513.93Q821.12 514.19 820.74 514.19ZM851.89 514.48L851.89 514.48Q849.06 514.48 846.88 513.38Q844.69 512.27 843.44 510.33Q842.20 508.38 842.20 505.74L842.20 505.74L842.20 499.74Q842.20 497.44 843.37 495.50Q844.55 493.55 846.49 492.40Q848.44 491.25 850.74 491.25L850.74 491.25Q853.00 491.25 854.94 492.38Q856.88 493.50 858.06 495.45Q859.24 497.39 859.24 499.89L859.24 499.89Q859.24 501.62 858.66 502.38Q858.08 503.15 857.20 503.32Q856.31 503.49 855.25 503.49L855.25 503.49L843.88 503.49L843.88 505.74Q843.88 509.01 846.18 510.90Q848.48 512.80 851.99 512.80L851.99 512.80Q854.00 512.80 855.06 512.30Q856.12 511.79 856.67 511.31Q857.22 510.83 857.65 510.83L857.65 510.83Q857.89 510.83 858.08 510.98Q858.28 511.12 858.40 511.31Q858.52 511.50 858.52 511.70L858.52 511.70Q858.52 512.13 857.72 512.80Q856.93 513.47 855.44 513.98Q853.96 514.48 851.89 514.48ZM843.88 499.74L843.88 501.81L854.68 501.81Q856.45 501.81 857.00 501.47Q857.56 501.14 857.56 500.03L857.56 500.03Q857.56 498.30 856.72 496.67Q855.88 495.04 854.34 493.98Q852.80 492.93 850.74 492.93L850.74 492.93Q848.82 492.93 847.26 493.89Q845.70 494.85 844.79 496.38Q843.88 497.92 843.88 499.74L843.88 499.74ZM862.84 525.57L862.84 525.57Q862.50 525.57 862.26 525.33Q862.02 525.09 862.02 524.75L862.02 524.75Q862.02 524.42 862.19 524.15Q862.36 523.89 862.74 523.89L862.74 523.89Q864.04 523.89 865.07 522.95Q866.10 522.01 866.94 520.46Q867.78 518.89 868.45 517.10Q869.12 515.30 869.75 513.57L869.75 513.57L862.07 492.35Q861.97 492.16 861.97 492.06L861.97 492.06Q861.97 491.82 862.09 491.66Q862.21 491.49 862.43 491.37Q862.64 491.25 862.88 491.25L862.88 491.25Q863.12 491.25 863.36 491.39Q863.60 491.54 863.65 491.78L863.65 491.78L870.61 510.98L877.52 491.78Q877.62 491.54 877.84 491.39Q878.05 491.25 878.29 491.25L878.29 491.25Q878.53 491.25 878.72 491.34Q878.92 491.44 879.04 491.61Q879.16 491.78 879.16 492.06L879.16 492.06Q879.16 492.26 879.11 492.35L879.11 492.35L871.43 513.57Q870.80 515.34 869.99 517.43Q869.17 519.52 868.14 521.37Q867.11 523.22 865.79 524.39Q864.47 525.57 862.84 525.57ZM898.50 514.48L898.50 514.48Q896.34 514.48 894.78 513.93Q893.22 513.38 892.36 512.66Q891.49 511.94 891.49 511.36L891.49 511.36Q891.49 511.12 891.59 510.95Q891.68 510.78 891.85 510.66Q892.02 510.54 892.16 510.54L892.16 510.54Q892.60 510.54 893.20 511.10Q893.80 511.65 895.00 512.22Q896.20 512.80 898.45 512.80L898.45 512.80Q901.48 512.80 902.77 511.62Q904.07 510.45 904.07 508.82L904.07 508.82Q904.07 506.94 903.20 505.91Q902.34 504.88 900.95 504.33Q899.56 503.78 898.02 503.34Q896.48 502.91 895.09 502.31Q893.70 501.71 892.84 500.58Q891.97 499.46 891.97 497.49L891.97 497.49Q891.97 496.05 892.72 494.61Q893.46 493.17 895.02 492.21Q896.58 491.25 899.08 491.25L899.08 491.25Q900.52 491.25 901.86 491.56Q903.20 491.87 904.07 492.33Q904.93 492.78 904.93 493.26L904.93 493.26Q904.93 493.41 904.81 493.65Q904.69 493.89 904.52 494.06Q904.36 494.22 904.12 494.22L904.12 494.22Q903.83 494.22 903.20 493.89Q902.58 493.55 901.57 493.24Q900.56 492.93 899.12 492.93L899.12 492.93Q897.11 492.93 895.91 493.67Q894.71 494.42 894.18 495.45Q893.65 496.48 893.65 497.44L893.65 497.44Q893.65 499.02 894.52 499.89Q895.38 500.75 896.77 501.23Q898.16 501.71 899.70 502.14Q901.24 502.58 902.63 503.27Q904.02 503.97 904.88 505.24Q905.75 506.51 905.75 508.72L905.75 508.72Q905.75 511.36 903.83 512.92Q901.91 514.48 898.50 514.48ZM915.92 514.48L915.92 514.48Q913.14 514.48 911.20 512.92Q909.25 511.36 909.25 508.14L909.25 508.14Q909.25 505.60 910.67 504.23Q912.08 502.86 914.60 502.34Q917.12 501.81 920.44 501.81L920.44 501.81L923.12 501.81L923.12 500.46Q923.12 498.64 922.50 496.91Q921.88 495.18 920.48 494.06Q919.09 492.93 916.79 492.93L916.79 492.93Q915.30 492.93 914.29 493.24Q913.28 493.55 912.68 493.89Q912.08 494.22 911.80 494.22L911.80 494.22Q911.41 494.22 911.17 493.86Q910.93 493.50 910.93 493.26L910.93 493.26Q910.93 492.78 911.82 492.33Q912.71 491.87 914.08 491.56Q915.44 491.25 916.88 491.25L916.88 491.25Q919.86 491.25 921.59 492.57Q923.32 493.89 924.06 495.98Q924.80 498.06 924.80 500.46L924.80 500.46L924.80 513.33Q924.80 513.66 924.59 513.93Q924.37 514.19 923.99 514.19L923.99 514.19Q923.65 514.19 923.39 513.93Q923.12 513.66 923.12 513.33L923.12 513.33L923.12 510.83Q921.92 512.22 920.12 513.35Q918.32 514.48 915.92 514.48ZM915.88 512.80L915.88 512.80Q917.70 512.80 919.36 511.91Q921.01 511.02 922.07 509.78Q923.12 508.53 923.12 507.52L923.12 507.52L923.12 503.49L920.48 503.49Q918.04 503.49 915.85 503.78Q913.67 504.06 912.30 505.05Q910.93 506.03 910.93 508.14L910.93 508.14Q910.93 510.54 912.37 511.67Q913.81 512.80 915.88 512.80ZM929.27 525.57L929.27 525.57Q928.93 525.57 928.69 525.33Q928.45 525.09 928.45 524.75L928.45 524.75Q928.45 524.42 928.62 524.15Q928.79 523.89 929.17 523.89L929.17 523.89Q930.47 523.89 931.50 522.95Q932.53 522.01 933.37 520.46Q934.21 518.89 934.88 517.10Q935.56 515.30 936.18 513.57L936.18 513.57L928.50 492.35Q928.40 492.16 928.40 492.06L928.40 492.06Q928.40 491.82 928.52 491.66Q928.64 491.49 928.86 491.37Q929.08 491.25 929.32 491.25L929.32 491.25Q929.56 491.25 929.80 491.39Q930.04 491.54 930.08 491.78L930.08 491.78L937.04 510.98L943.96 491.78Q944.05 491.54 944.27 491.39Q944.48 491.25 944.72 491.25L944.72 491.25Q944.96 491.25 945.16 491.34Q945.35 491.44 945.47 491.61Q945.59 491.78 945.59 492.06L945.59 492.06Q945.59 492.26 945.54 492.35L945.54 492.35L937.86 513.57Q937.24 515.34 936.42 517.43Q935.60 519.52 934.57 521.37Q933.54 523.22 932.22 524.39Q930.90 525.57 929.27 525.57ZM967.38 514.19L966.28 514.19Q962.87 514.19 961.07 512.61Q959.27 511.02 959.27 507.52L959.27 507.52L959.27 481.26Q959.27 480.88 959.53 480.66Q959.80 480.45 960.08 480.45L960.08 480.45Q960.42 480.45 960.68 480.66Q960.95 480.88 960.95 481.26L960.95 481.26L960.95 491.54L967.43 491.54Q967.76 491.54 968.00 491.78Q968.24 492.02 968.24 492.40L968.24 492.40Q968.24 492.74 968.00 492.98Q967.76 493.22 967.43 493.22L967.43 493.22L960.95 493.22L960.95 507.52Q960.95 510.26 962.15 511.38Q963.35 512.51 966.28 512.51L966.28 512.51L967.38 512.51Q967.72 512.51 967.96 512.73Q968.20 512.94 968.20 513.33L968.20 513.33Q968.20 513.66 967.96 513.93Q967.72 514.19 967.38 514.19L967.38 514.19ZM973.28 514.19L973.28 514.19Q972.95 514.19 972.71 513.93Q972.47 513.66 972.47 513.33L972.47 513.33L972.47 478.14Q972.47 477.76 972.71 477.54Q972.95 477.33 973.28 477.33L973.28 477.33Q973.67 477.33 973.91 477.54Q974.15 477.76 974.15 478.14L974.15 478.14L974.15 494.90Q974.96 493.50 976.57 492.38Q978.18 491.25 980.58 491.25L980.58 491.25Q982.93 491.25 984.90 492.42Q986.87 493.60 988.04 495.54Q989.22 497.49 989.22 499.89L989.22 499.89L989.22 513.33Q989.22 513.76 988.96 513.98Q988.69 514.19 988.36 514.19L988.36 514.19Q988.07 514.19 987.80 513.98Q987.54 513.76 987.54 513.33L987.54 513.33L987.54 499.89Q987.54 498.11 986.60 496.53Q985.67 494.94 984.13 493.94Q982.60 492.93 980.72 492.93L980.72 492.93Q979.09 492.93 977.58 493.77Q976.07 494.61 975.11 496.14Q974.15 497.68 974.15 499.89L974.15 499.89L974.15 513.33Q974.15 513.66 973.91 513.93Q973.67 514.19 973.28 514.19ZM1004.44 514.48L1004.44 514.48Q1001.60 514.48 999.42 513.38Q997.24 512.27 995.99 510.33Q994.74 508.38 994.74 505.74L994.74 505.74L994.74 499.74Q994.74 497.44 995.92 495.50Q997.09 493.55 999.04 492.40Q1000.98 491.25 1003.28 491.25L1003.28 491.25Q1005.54 491.25 1007.48 492.38Q1009.43 493.50 1010.60 495.45Q1011.78 497.39 1011.78 499.89L1011.78 499.89Q1011.78 501.62 1011.20 502.38Q1010.63 503.15 1009.74 503.32Q1008.85 503.49 1007.80 503.49L1007.80 503.49L996.42 503.49L996.42 505.74Q996.42 509.01 998.72 510.90Q1001.03 512.80 1004.53 512.80L1004.53 512.80Q1006.55 512.80 1007.60 512.30Q1008.66 511.79 1009.21 511.31Q1009.76 510.83 1010.20 510.83L1010.20 510.83Q1010.44 510.83 1010.63 510.98Q1010.82 511.12 1010.94 511.31Q1011.06 511.50 1011.06 511.70L1011.06 511.70Q1011.06 512.13 1010.27 512.80Q1009.48 513.47 1007.99 513.98Q1006.50 514.48 1004.44 514.48ZM996.42 499.74L996.42 501.81L1007.22 501.81Q1009.00 501.81 1009.55 501.47Q1010.10 501.14 1010.10 500.03L1010.10 500.03Q1010.10 498.30 1009.26 496.67Q1008.42 495.04 1006.88 493.98Q1005.35 492.93 1003.28 492.93L1003.28 492.93Q1001.36 492.93 999.80 493.89Q998.24 494.85 997.33 496.38Q996.42 497.92 996.42 499.74L996.42 499.74ZM1015.38 525.57L1015.38 525.57Q1015.04 525.57 1014.80 525.33Q1014.56 525.09 1014.56 524.75L1014.56 524.75Q1014.56 524.42 1014.73 524.15Q1014.90 523.89 1015.28 523.89L1015.28 523.89Q1016.58 523.89 1017.61 522.95Q1018.64 522.01 1019.48 520.46Q1020.32 518.89 1021.00 517.10Q1021.67 515.30 1022.29 513.57L1022.29 513.57L1014.61 492.35Q1014.52 492.16 1014.52 492.06L1014.52 492.06Q1014.52 491.82 1014.64 491.66Q1014.76 491.49 1014.97 491.37Q1015.19 491.25 1015.43 491.25L1015.43 491.25Q1015.67 491.25 1015.91 491.39Q1016.15 491.54 1016.20 491.78L1016.20 491.78L1023.16 510.98L1030.07 491.78Q1030.16 491.54 1030.38 491.39Q1030.60 491.25 1030.84 491.25L1030.84 491.25Q1031.08 491.25 1031.27 491.34Q1031.46 491.44 1031.58 491.61Q1031.70 491.78 1031.70 492.06L1031.70 492.06Q1031.70 492.26 1031.65 492.35L1031.65 492.35L1023.97 513.57Q1023.35 515.34 1022.53 517.43Q1021.72 519.52 1020.68 521.37Q1019.65 523.22 1018.33 524.39Q1017.01 525.57 1015.38 525.57ZM1050.56 514.48L1050.56 514.48Q1047.78 514.48 1045.84 512.92Q1043.89 511.36 1043.89 508.14L1043.89 508.14Q1043.89 505.60 1045.31 504.23Q1046.72 502.86 1049.24 502.34Q1051.76 501.81 1055.08 501.81L1055.08 501.81L1057.76 501.81L1057.76 500.46Q1057.76 498.64 1057.14 496.91Q1056.52 495.18 1055.12 494.06Q1053.73 492.93 1051.43 492.93L1051.43 492.93Q1049.94 492.93 1048.93 493.24Q1047.92 493.55 1047.32 493.89Q1046.72 494.22 1046.44 494.22L1046.44 494.22Q1046.05 494.22 1045.81 493.86Q1045.57 493.50 1045.57 493.26L1045.57 493.26Q1045.57 492.78 1046.46 492.33Q1047.35 491.87 1048.72 491.56Q1050.08 491.25 1051.52 491.25L1051.52 491.25Q1054.50 491.25 1056.23 492.57Q1057.96 493.89 1058.70 495.98Q1059.44 498.06 1059.44 500.46L1059.44 500.46L1059.44 513.33Q1059.44 513.66 1059.23 513.93Q1059.01 514.19 1058.63 514.19L1058.63 514.19Q1058.29 514.19 1058.03 513.93Q1057.76 513.66 1057.76 513.33L1057.76 513.33L1057.76 510.83Q1056.56 512.22 1054.76 513.35Q1052.96 514.48 1050.56 514.48ZM1050.52 512.80L1050.52 512.80Q1052.34 512.80 1054.00 511.91Q1055.65 511.02 1056.71 509.78Q1057.76 508.53 1057.76 507.52L1057.76 507.52L1057.76 503.49L1055.12 503.49Q1052.68 503.49 1050.49 503.78Q1048.31 504.06 1046.94 505.05Q1045.57 506.03 1045.57 508.14L1045.57 508.14Q1045.57 510.54 1047.01 511.67Q1048.45 512.80 1050.52 512.80ZM1066.60 514.19L1066.60 514.19Q1066.26 514.19 1066.02 513.93Q1065.78 513.66 1065.78 513.33L1065.78 513.33L1065.78 492.35Q1065.78 491.97 1066.02 491.75Q1066.26 491.54 1066.60 491.54L1066.60 491.54Q1066.98 491.54 1067.22 491.75Q1067.46 491.97 1067.46 492.35L1067.46 492.35L1067.46 494.90Q1068.04 493.94 1068.95 493.12Q1069.86 492.30 1071.16 491.78Q1072.45 491.25 1074.13 491.25L1074.13 491.25L1075.91 491.25Q1076.24 491.25 1076.48 491.49Q1076.72 491.73 1076.72 492.11L1076.72 492.11Q1076.72 492.45 1076.48 492.69Q1076.24 492.93 1075.91 492.93L1075.91 492.93L1074.13 492.93Q1072.45 492.93 1070.92 493.77Q1069.38 494.61 1068.42 496.14Q1067.46 497.68 1067.46 499.89L1067.46 499.89L1067.46 513.33Q1067.46 513.66 1067.22 513.93Q1066.98 514.19 1066.60 514.19ZM1088.20 514.48L1088.20 514.48Q1085.36 514.48 1083.18 513.38Q1081.00 512.27 1079.75 510.33Q1078.50 508.38 1078.50 505.74L1078.50 505.74L1078.50 499.74Q1078.50 497.44 1079.68 495.50Q1080.85 493.55 1082.80 492.40Q1084.74 491.25 1087.04 491.25L1087.04 491.25Q1089.30 491.25 1091.24 492.38Q1093.19 493.50 1094.36 495.45Q1095.54 497.39 1095.54 499.89L1095.54 499.89Q1095.54 501.62 1094.96 502.38Q1094.39 503.15 1093.50 503.32Q1092.61 503.49 1091.56 503.49L1091.56 503.49L1080.18 503.49L1080.18 505.74Q1080.18 509.01 1082.48 510.90Q1084.79 512.80 1088.29 512.80L1088.29 512.80Q1090.31 512.80 1091.36 512.30Q1092.42 511.79 1092.97 511.31Q1093.52 510.83 1093.96 510.83L1093.96 510.83Q1094.20 510.83 1094.39 510.98Q1094.58 511.12 1094.70 511.31Q1094.82 511.50 1094.82 511.70L1094.82 511.70Q1094.82 512.13 1094.03 512.80Q1093.24 513.47 1091.75 513.98Q1090.26 514.48 1088.20 514.48ZM1080.18 499.74L1080.18 501.81L1090.98 501.81Q1092.76 501.81 1093.31 501.47Q1093.86 501.14 1093.86 500.03L1093.86 500.03Q1093.86 498.30 1093.02 496.67Q1092.18 495.04 1090.64 493.98Q1089.11 492.93 1087.04 492.93L1087.04 492.93Q1085.12 492.93 1083.56 493.89Q1082.00 494.85 1081.09 496.38Q1080.18 497.92 1080.18 499.74L1080.18 499.74ZM1101.30 514.48L1101.30 514.48Q1100.53 514.48 1100.05 513.95Q1099.57 513.42 1099.57 512.75L1099.57 512.75Q1099.57 512.03 1100.05 511.53Q1100.53 511.02 1101.30 511.02L1101.30 511.02Q1101.97 511.02 1102.48 511.53Q1102.98 512.03 1102.98 512.75L1102.98 512.75Q1102.98 513.42 1102.48 513.95Q1101.97 514.48 1101.30 514.48Z" style="fill:rgb(186,186,186);"/>
    </g>
</svg>
