<?xml version="1.0" encoding="UTF-8" standalone="no"?>
<!DOCTYPE svg PUBLIC "-//W3C//DTD SVG 1.1//EN" "http://www.w3.org/Graphics/SVG/1.1/DTD/svg11.dtd">
<svg width="100%" height="100%" viewBox="0 0 1200 630" version="1.1" xmlns="http://www.w3.org/2000/svg" xmlns:xlink="http://www.w3.org/1999/xlink" xml:space="preserve" xmlns:serif="http://www.serif.com/" style="fill-rule:evenodd;clip-rule:evenodd;stroke-linecap:round;stroke-linejoin:round;stroke-miterlimit:1.5;">
    <path d="M159,235C102.532,279.762 135.928,367.877 181.596,369.286C207.015,370.07 203.664,394.474 240.231,417.392C260.568,430.138 298.76,358.779 346.273,369.459C395.059,380.426 385.238,464.273 478.254,467.827C525.132,469.619 564.435,432.602 582.254,414.392C595.148,401.216 607.334,381.45 620.867,386.392C656.261,399.315 638.992,474.607 671.867,465.847C705.638,456.849 687.265,402.202 713.795,386.392C736.761,372.705 758.765,392.464 777.213,409.205C828.125,455.409 862.809,432.864 877.745,418.864C915.641,383.343 937.933,381.45 985.102,392.743C1018.574,400.757 1039.793,430.057 1086.88,417.731" style="fill:none;stroke:rgb(97,211,151);stroke-width:5.83px;"/>
    <g transform="matrix(1.084697,0,0,1.084697,9.208029,-112.806353)">
        <path d="M189.338,539.578C179.479,539.578 171.946,537.286 166.739,532.704C161.531,528.122 158.928,520.762 158.928,510.625L158.928,396.691C158.928,395.58 159.31,394.712 160.073,394.087C160.837,393.462 161.635,393.15 162.469,393.15C163.441,393.15 164.309,393.462 165.072,394.087C165.836,394.712 166.218,395.58 166.218,396.691L166.218,441.265L194.337,441.265C195.309,441.265 196.142,441.612 196.836,442.306C197.531,443 197.878,443.903 197.878,445.014C197.878,445.986 197.531,446.819 196.836,447.513C196.142,448.208 195.309,448.555 194.337,448.555L166.218,448.555L166.218,510.625C166.218,518.54 167.954,524.129 171.425,527.393C174.897,530.656 180.868,532.287 189.338,532.287L194.129,532.287C195.101,532.287 195.934,532.6 196.628,533.225C197.322,533.85 197.67,534.717 197.67,535.828C197.67,536.8 197.322,537.668 196.628,538.432C195.934,539.196 195.101,539.578 194.129,539.578L189.338,539.578Z" style="fill:rgb(244,176,73);fill-rule:nonzero;"/>
        <path d="M252.242,540.827C244.049,540.827 236.793,539.23 230.475,536.037C224.157,532.843 219.193,528.434 215.583,522.81C211.972,517.186 210.167,510.556 210.167,502.919L210.167,476.882C210.167,470.217 211.868,464.072 215.27,458.449C218.672,452.825 223.185,448.347 228.809,445.014C234.433,441.681 240.577,440.015 247.243,440.015C253.769,440.015 259.844,441.647 265.468,444.91C271.092,448.173 275.605,452.617 279.007,458.24C282.409,463.864 284.11,470.286 284.11,477.507C284.11,482.506 283.277,486.116 281.61,488.338C279.944,490.56 277.826,491.914 275.258,492.4C272.689,492.886 269.877,493.129 266.822,493.129L217.457,493.129L217.457,502.919C217.457,512.361 220.79,519.825 227.455,525.31C234.12,530.795 242.521,533.537 252.658,533.537C258.49,533.537 262.934,532.808 265.989,531.35C269.044,529.892 271.369,528.469 272.966,527.08C274.563,525.692 275.987,524.997 277.236,524.997C277.931,524.997 278.555,525.206 279.111,525.622C279.666,526.039 280.118,526.525 280.465,527.08C280.812,527.636 280.986,528.191 280.986,528.746C280.986,529.996 279.84,531.593 277.549,533.537C275.258,535.481 271.96,537.182 267.655,538.64C263.35,540.098 258.213,540.827 252.242,540.827ZM217.457,485.839L264.322,485.839C269.46,485.839 272.828,485.353 274.424,484.381C276.021,483.409 276.82,481.326 276.82,478.132C276.82,473.133 275.605,468.273 273.175,463.552C270.745,458.831 267.308,454.942 262.864,451.888C258.421,448.833 253.214,447.305 247.243,447.305C241.688,447.305 236.655,448.694 232.142,451.471C227.629,454.248 224.053,457.858 221.415,462.302C218.776,466.746 217.457,471.606 217.457,476.882L217.457,485.839Z" style="fill:rgb(244,176,73);fill-rule:nonzero;"/>
        <path d="M336.391,539.578C326.532,539.578 318.998,537.286 313.791,532.704C308.584,528.122 305.98,520.762 305.98,510.625L305.98,396.691C305.98,395.58 306.362,394.712 307.126,394.087C307.89,393.462 308.688,393.15 309.521,393.15C310.493,393.15 311.361,393.462 312.125,394.087C312.889,394.712 313.27,395.58 313.27,396.691L313.27,441.265L341.39,441.265C342.362,441.265 343.195,441.612 343.889,442.306C344.583,443 344.931,443.903 344.931,445.014C344.931,445.986 344.583,446.819 343.889,447.513C343.195,448.208 342.362,448.555 341.39,448.555L313.27,448.555L313.27,510.625C313.27,518.54 315.006,524.129 318.478,527.393C321.949,530.656 327.92,532.287 336.391,532.287L341.181,532.287C342.153,532.287 342.986,532.6 343.681,533.225C344.375,533.85 344.722,534.717 344.722,535.828C344.722,536.8 344.375,537.668 343.681,538.432C342.986,539.196 342.153,539.578 341.181,539.578L336.391,539.578Z" style="fill:rgb(244,176,73);fill-rule:nonzero;"/>
        <path d="M366.801,539.578C365.829,539.578 364.996,539.196 364.301,538.432C363.607,537.668 363.26,536.8 363.26,535.828L363.26,383.152C363.26,382.041 363.607,381.173 364.301,380.548C364.996,379.923 365.829,379.611 366.801,379.611C367.912,379.611 368.814,379.923 369.509,380.548C370.203,381.173 370.55,382.041 370.55,383.152L370.55,455.845C372.911,451.818 376.417,448.173 381.069,444.91C385.721,441.647 391.518,440.015 398.461,440.015C405.265,440.015 411.514,441.716 417.207,445.118C422.9,448.52 427.448,453.033 430.85,458.657C434.252,464.281 435.953,470.564 435.953,477.507L435.953,535.828C435.953,537.078 435.571,538.015 434.808,538.64C434.044,539.265 433.176,539.578 432.204,539.578C431.371,539.578 430.572,539.265 429.809,538.64C429.045,538.015 428.663,537.078 428.663,535.828L428.663,477.507C428.663,472.369 427.309,467.509 424.601,462.927C421.894,458.345 418.318,454.595 413.874,451.679C409.431,448.763 404.501,447.305 399.086,447.305C394.365,447.305 389.817,448.52 385.443,450.95C381.069,453.38 377.493,456.817 374.716,461.261C371.939,465.704 370.55,471.12 370.55,477.507L370.55,535.828C370.55,536.8 370.203,537.668 369.509,538.432C368.814,539.196 367.912,539.578 366.801,539.578Z" style="fill:rgb(244,176,73);fill-rule:nonzero;"/>
        <path d="M501.981,540.827C493.788,540.827 486.533,539.23 480.215,536.037C473.897,532.843 468.932,528.434 465.322,522.81C461.712,517.186 459.907,510.556 459.907,502.919L459.907,476.882C459.907,470.217 461.608,464.072 465.01,458.449C468.412,452.825 472.925,448.347 478.548,445.014C484.172,441.681 490.317,440.015 496.982,440.015C503.509,440.015 509.584,441.647 515.207,444.91C520.831,448.173 525.344,452.617 528.746,458.24C532.148,463.864 533.849,470.286 533.849,477.507C533.849,482.506 533.016,486.116 531.35,488.338C529.684,490.56 527.566,491.914 524.997,492.4C522.428,492.886 519.616,493.129 516.561,493.129L467.197,493.129L467.197,502.919C467.197,512.361 470.529,519.825 477.195,525.31C483.86,530.795 492.261,533.537 502.398,533.537C508.23,533.537 512.673,532.808 515.728,531.35C518.783,529.892 521.109,528.469 522.706,527.08C524.303,525.692 525.726,524.997 526.976,524.997C527.67,524.997 528.295,525.206 528.85,525.622C529.406,526.039 529.857,526.525 530.204,527.08C530.551,527.636 530.725,528.191 530.725,528.746C530.725,529.996 529.579,531.593 527.288,533.537C524.997,535.481 521.699,537.182 517.395,538.64C513.09,540.098 507.952,540.827 501.981,540.827ZM467.197,485.839L514.062,485.839C519.2,485.839 522.567,485.353 524.164,484.381C525.761,483.409 526.559,481.326 526.559,478.132C526.559,473.133 525.344,468.273 522.914,463.552C520.484,458.831 517.047,454.942 512.604,451.888C508.16,448.833 502.953,447.305 496.982,447.305C491.428,447.305 486.394,448.694 481.881,451.471C477.368,454.248 473.792,457.858 471.154,462.302C468.516,466.746 467.197,471.606 467.197,476.882L467.197,485.839Z" style="fill:rgb(244,176,73);fill-rule:nonzero;"/>
        <path d="M559.677,539.578C558.705,539.578 557.872,539.196 557.178,538.432C556.484,537.668 556.136,536.8 556.136,535.828L556.136,444.806C556.136,443.695 556.484,442.827 557.178,442.202C557.872,441.577 558.705,441.265 559.677,441.265C560.788,441.265 561.691,441.577 562.385,442.202C563.079,442.827 563.427,443.695 563.427,444.806L563.427,455.845C565.093,453.068 567.245,450.499 569.884,448.138C572.522,445.778 575.716,443.834 579.465,442.306C583.214,440.779 587.519,440.015 592.379,440.015L600.086,440.015C601.058,440.015 601.891,440.362 602.585,441.056C603.279,441.751 603.626,442.653 603.626,443.764C603.626,444.736 603.279,445.569 602.585,446.264C601.891,446.958 601.058,447.305 600.086,447.305L592.379,447.305C587.519,447.305 582.867,448.52 578.423,450.95C573.98,453.38 570.37,456.817 567.592,461.261C564.815,465.704 563.427,471.12 563.427,477.507L563.427,535.828C563.427,536.8 563.079,537.668 562.385,538.432C561.691,539.196 560.788,539.578 559.677,539.578Z" style="fill:rgb(244,176,73);fill-rule:nonzero;"/>
        <path d="M613.624,540.827C611.403,540.827 609.597,540.064 608.209,538.536C606.82,537.009 606.126,535.273 606.126,533.329C606.126,531.246 606.82,529.475 608.209,528.017C609.597,526.559 611.403,525.83 613.624,525.83C615.568,525.83 617.269,526.559 618.728,528.017C620.186,529.475 620.915,531.246 620.915,533.329C620.915,535.273 620.186,537.009 618.728,538.536C617.269,540.064 615.568,540.827 613.624,540.827Z" style="fill:rgb(244,176,73);fill-rule:nonzero;"/>
        <path d="M647.992,539.578C647.02,539.578 646.187,539.196 645.493,538.432C644.798,537.668 644.451,536.8 644.451,535.828L644.451,444.806C644.451,443.695 644.798,442.827 645.493,442.202C646.187,441.577 647.02,441.265 647.992,441.265C649.103,441.265 650.006,441.577 650.7,442.202C651.394,442.827 651.741,443.695 651.741,444.806L651.741,455.845C654.102,451.818 657.608,448.173 662.26,444.91C666.912,441.647 672.709,440.015 679.652,440.015C686.456,440.015 692.705,441.716 698.398,445.118C704.092,448.52 708.639,453.033 712.041,458.657C715.443,464.281 717.144,470.564 717.144,477.507L717.144,535.828C717.144,537.078 716.763,538.015 715.999,538.64C715.235,539.265 714.367,539.578 713.395,539.578C712.562,539.578 711.764,539.265 711,538.64C710.236,538.015 709.854,537.078 709.854,535.828L709.854,477.507C709.854,472.369 708.5,467.509 705.793,462.927C703.085,458.345 699.509,454.595 695.066,451.679C690.622,448.763 685.693,447.305 680.277,447.305C675.556,447.305 671.008,448.52 666.634,450.95C662.26,453.38 658.684,456.817 655.907,461.261C653.13,465.704 651.741,471.12 651.741,477.507L651.741,535.828C651.741,536.8 651.394,537.668 650.7,538.432C650.006,539.196 649.103,539.578 647.992,539.578Z" style="fill:rgb(244,176,73);fill-rule:nonzero;"/>
        <path d="M766.717,540.827C758.664,540.827 751.825,538.571 746.201,534.058C740.577,529.545 737.765,522.637 737.765,513.333C737.765,505.973 739.813,500.315 743.91,496.357C748.006,492.4 753.699,489.657 760.989,488.13C768.28,486.602 776.715,485.839 786.297,485.839L797.961,485.839L797.961,480.007C797.961,474.73 797.058,469.592 795.253,464.593C793.448,459.594 790.532,455.463 786.505,452.2C782.478,448.937 777.132,447.305 770.467,447.305C766.162,447.305 762.552,447.756 759.636,448.659C756.72,449.562 754.394,450.499 752.658,451.471C750.922,452.443 749.638,452.929 748.805,452.929C747.694,452.929 746.791,452.408 746.097,451.367C745.402,450.325 745.055,449.457 745.055,448.763C745.055,447.375 746.34,446.021 748.909,444.702C751.478,443.382 754.741,442.271 758.698,441.369C762.656,440.466 766.717,440.015 770.883,440.015C779.493,440.015 786.297,441.924 791.296,445.743C796.295,449.562 799.87,454.491 802.023,460.532C804.175,466.572 805.251,473.064 805.251,480.007L805.251,535.828C805.251,536.8 804.939,537.668 804.314,538.432C803.689,539.196 802.821,539.578 801.71,539.578C800.738,539.578 799.87,539.196 799.106,538.432C798.343,537.668 797.961,536.8 797.961,535.828L797.961,524.997C794.489,529.024 790.15,532.669 784.943,535.932C779.736,539.196 773.66,540.827 766.717,540.827ZM766.509,533.537C771.786,533.537 776.819,532.253 781.61,529.684C786.401,527.115 790.324,524.025 793.379,520.415C796.433,516.805 797.961,513.541 797.961,510.625L797.961,493.129L786.505,493.129C779.423,493.129 772.723,493.545 766.405,494.379C760.087,495.212 754.949,497.052 750.992,499.898C747.034,502.745 745.055,507.223 745.055,513.333C745.055,520.276 747.138,525.379 751.304,528.642C755.47,531.906 760.538,533.537 766.509,533.537Z" style="fill:rgb(244,176,73);fill-rule:nonzero;"/>
        <path d="M836.286,539.578C835.314,539.578 834.481,539.196 833.787,538.432C833.092,537.668 832.745,536.8 832.745,535.828L832.745,444.806C832.745,443.695 833.092,442.827 833.787,442.202C834.481,441.577 835.314,441.265 836.286,441.265C837.397,441.265 838.3,441.577 838.994,442.202C839.688,442.827 840.035,443.695 840.035,444.806L840.035,455.845C842.396,451.818 845.902,448.173 850.554,444.91C855.206,441.647 861.003,440.015 867.946,440.015C875.167,440.015 881.52,441.959 887.005,445.847C892.49,449.735 896.551,454.734 899.19,460.844C902.8,453.762 907.487,448.52 913.249,445.118C919.012,441.716 924.879,440.015 930.85,440.015C936.682,440.015 942.202,441.473 947.409,444.389C952.616,447.305 956.851,451.54 960.115,457.095C963.378,462.649 965.009,469.453 965.009,477.507L965.009,535.828C965.009,536.8 964.662,537.668 963.968,538.432C963.274,539.196 962.371,539.578 961.26,539.578C960.288,539.578 959.455,539.196 958.761,538.432C958.066,537.668 957.719,536.8 957.719,535.828L957.719,477.507C957.719,470.842 956.365,465.287 953.658,460.844C950.95,456.4 947.513,453.033 943.347,450.742C939.181,448.451 934.946,447.305 930.642,447.305C925.92,447.305 921.442,448.52 917.207,450.95C912.972,453.38 909.465,456.748 906.688,461.052C903.911,465.357 902.522,470.425 902.522,476.257L902.522,536.037C902.522,537.286 902.141,538.189 901.377,538.744C900.613,539.3 899.745,539.578 898.773,539.578C897.94,539.578 897.142,539.3 896.378,538.744C895.614,538.189 895.232,537.286 895.232,536.037L895.232,476.466C895.232,470.911 894.017,465.947 891.587,461.573C889.157,457.199 885.929,453.727 881.902,451.159C877.875,448.59 873.362,447.305 868.363,447.305C863.78,447.305 859.302,448.52 854.928,450.95C850.554,453.38 846.978,456.817 844.201,461.261C841.424,465.704 840.035,471.12 840.035,477.507L840.035,535.828C840.035,536.8 839.688,537.668 838.994,538.432C838.3,539.196 837.397,539.578 836.286,539.578Z" style="fill:rgb(244,176,73);fill-rule:nonzero;"/>
        <path d="M1031.037,540.827C1022.844,540.827 1015.589,539.23 1009.271,536.037C1002.953,532.843 997.989,528.434 994.378,522.81C990.768,517.186 988.963,510.556 988.963,502.919L988.963,476.882C988.963,470.217 990.664,464.072 994.066,458.449C997.468,452.825 1001.981,448.347 1007.605,445.014C1013.228,441.681 1019.373,440.015 1026.038,440.015C1032.565,440.015 1038.64,441.647 1044.264,444.91C1049.887,448.173 1054.4,452.617 1057.802,458.24C1061.205,463.864 1062.906,470.286 1062.906,477.507C1062.906,482.506 1062.072,486.116 1060.406,488.338C1058.74,490.56 1056.622,491.914 1054.053,492.4C1051.484,492.886 1048.672,493.129 1045.618,493.129L996.253,493.129L996.253,502.919C996.253,512.361 999.585,519.825 1006.251,525.31C1012.916,530.795 1021.317,533.537 1031.454,533.537C1037.286,533.537 1041.729,532.808 1044.784,531.35C1047.839,529.892 1050.165,528.469 1051.762,527.08C1053.359,525.692 1054.782,524.997 1056.032,524.997C1056.726,524.997 1057.351,525.206 1057.907,525.622C1058.462,526.039 1058.913,526.525 1059.26,527.08C1059.608,527.636 1059.781,528.191 1059.781,528.746C1059.781,529.996 1058.636,531.593 1056.344,533.537C1054.053,535.481 1050.755,537.182 1046.451,538.64C1042.146,540.098 1037.008,540.827 1031.037,540.827ZM996.253,485.839L1043.118,485.839C1048.256,485.839 1051.623,485.353 1053.22,484.381C1054.817,483.409 1055.615,481.326 1055.615,478.132C1055.615,473.133 1054.4,468.273 1051.97,463.552C1049.54,458.831 1046.104,454.942 1041.66,451.888C1037.216,448.833 1032.009,447.305 1026.038,447.305C1020.484,447.305 1015.45,448.694 1010.937,451.471C1006.424,454.248 1002.849,457.858 1000.21,462.302C997.572,466.746 996.253,471.606 996.253,476.882L996.253,485.839Z" style="fill:rgb(244,176,73);fill-rule:nonzero;"/>
    </g>
    <g transform="matrix(-0.216053,0.381875,-0.381875,-0.216053,547.957027,126.54681)">
        <g transform="matrix(0.937198,0,0,0.9407,44.253404,27.768669)">
            <path d="M712,555.12L712,803.011C712,832.329 688.109,856.131 658.682,856.131L351.318,856.131C321.891,856.131 298,832.329 298,803.011L298,555.12C298,525.802 321.891,502 351.318,502L658.682,502C688.109,502 712,525.802 712,555.12Z" style="fill:rgb(97,211,151);"/>
        </g>
        <g transform="matrix(0.160984,0.032598,-0.130076,0.642381,252.145265,198.305579)">
            <path d="M712,517.563L712,840.568C712,849.157 684.174,856.131 649.9,856.131L360.1,856.131C325.826,856.131 298,849.157 298,840.568L298,517.563C298,508.973 325.826,502 360.1,502L649.9,502C684.174,502 712,508.973 712,517.563Z" style="fill:rgb(97,211,151);"/>
        </g>
        <g transform="matrix(0.223176,0,0,0.559408,326.325838,575.04571)">
            <path d="M712,526.775L712,831.356C712,845.029 684.174,856.131 649.9,856.131L360.1,856.131C325.826,856.131 298,845.029 298,831.356L298,526.775C298,513.101 325.826,502 360.1,502L649.9,502C684.174,502 712,513.101 712,526.775Z" style="fill:rgb(97,211,151);"/>
        </g>
        <g transform="matrix(0.223176,0,0,0.559408,502.229849,574.620076)">
            <path d="M712,526.775L712,831.356C712,845.029 684.174,856.131 649.9,856.131L360.1,856.131C325.826,856.131 298,845.029 298,831.356L298,526.775C298,513.101 325.826,502 360.1,502L649.9,502C684.174,502 712,513.101 712,526.775Z" style="fill:rgb(97,211,151);"/>
        </g>
        <g transform="matrix(1.514064,0.306584,-0.306584,1.514064,-432.237604,402.889865)">
            <circle cx="461.5" cy="179.5" r="17.5" style="fill:rgb(97,211,151);stroke:rgb(97,211,151);stroke-width:23.98px;"/>
        </g>
        <g transform="matrix(0.1563,-0.050485,0.201451,0.623691,581.809421,250.652575)">
            <path d="M712,517.563L712,840.568C712,849.157 684.174,856.131 649.9,856.131L360.1,856.131C325.826,856.131 298,849.157 298,840.568L298,517.563C298,508.973 325.826,502 360.1,502L649.9,502C684.174,502 712,508.973 712,517.563Z" style="fill:rgb(97,211,151);"/>
        </g>
        <g transform="matrix(1.470013,-0.47481,0.47481,1.470013,85.524898,764.399899)">
            <circle cx="461.5" cy="179.5" r="17.5" style="fill:rgb(97,211,151);stroke:rgb(97,211,151);stroke-width:23.98px;"/>
        </g>
        <g transform="matrix(0.181587,0,0,0.25904,560.0132,218.352177)">
            <path d="M712,545.532L712,812.598C712,836.625 684.174,856.131 649.9,856.131L360.1,856.131C325.826,856.131 298,836.625 298,812.598L298,545.532C298,521.506 325.826,502 360.1,502L649.9,502C684.174,502 712,521.506 712,545.532Z" style="fill:rgb(97,211,151);"/>
        </g>
        <g transform="matrix(0.181587,0,0,0.25904,295.607615,218.352177)">
            <path d="M712,545.532L712,812.598C712,836.625 684.174,856.131 649.9,856.131L360.1,856.131C325.826,856.131 298,836.625 298,812.598L298,545.532C298,521.506 325.826,502 360.1,502L649.9,502C684.174,502 712,521.506 712,545.532Z" style="fill:rgb(97,211,151);"/>
        </g>
        <g transform="matrix(0.051505,0,0,0.244312,492.969037,45.261322)">
            <path d="M712,515.092L712,843.039C712,850.265 684.174,856.131 649.9,856.131L360.1,856.131C325.826,856.131 298,850.265 298,843.039L298,515.092C298,507.866 325.826,502 360.1,502L649.9,502C684.174,502 712,507.866 712,515.092Z" style="fill:rgb(97,211,151);"/>
        </g>
        <g transform="matrix(1.066152,0,0,1.09336,26.950073,-42.56589)">
            <circle cx="461.5" cy="179.5" r="17.5" style="fill:rgb(97,211,151);stroke:rgb(97,211,151);stroke-width:34.3px;"/>
        </g>
        <g transform="matrix(1.066152,0,0,1.09336,-24.266172,-65.438453)">
            <path d="M372,493C372,493 371.946,467 371.795,434.948C371.639,401.743 372.672,360.897 389.743,328.143C414.118,281.374 451.13,264.429 509.538,263.992C570.826,263.534 606.1,284.285 629.802,328C651.314,367.677 646.06,409.614 646.643,436.947C647.034,455.299 647.295,493 647.295,493L372,493Z" style="fill:rgb(31,31,31);stroke:rgb(97,211,151);stroke-width:34.3px;"/>
        </g>
        <g transform="matrix(-0.237785,0,0,-0.176653,638.6795,474.633833)">
            <path d="M372,493C372,493 371.946,467 371.795,434.948C371.639,401.743 372.672,360.897 389.743,328.143C414.118,281.374 451.13,264.429 509.538,263.992C570.826,263.534 606.1,284.285 629.802,328C651.314,367.677 646.06,409.614 646.643,436.947C647.034,455.299 647.295,493 647.295,493L372,493Z" style="fill:rgb(244,176,73);stroke:rgb(244,176,73);stroke-width:176.82px;"/>
        </g>
        <g transform="matrix(1,0,0,1,-10.000287,142.492483)">
            <circle cx="461.5" cy="179.5" r="17.5" style="fill:rgb(244,176,73);stroke:rgb(244,176,73);stroke-width:37.04px;"/>
        </g>
        <g transform="matrix(1,0,0,1,122.999713,142.492483)">
            <circle cx="461.5" cy="179.5" r="17.5" style="fill:rgb(244,176,73);stroke:rgb(244,176,73);stroke-width:37.04px;"/>
        </g>
        <g transform="matrix(1.126471,0,0,1,-72.905582,-7)">
            <path d="M550.308,756L498,756L511.077,686L537.231,686L550.308,756Z" style="fill:rgb(244,176,73);stroke:rgb(244,176,73);stroke-width:34.77px;"/>
        </g>
        <g transform="matrix(1,0,0,1,42.769214,23.796142)">
            <circle cx="474.769" cy="642.769" r="32.769" style="fill:rgb(244,176,73);stroke:rgb(244,176,73);stroke-width:37.04px;"/>
        </g>
    </g>
    <g transform="matrix(0.993437,0,0,0.993437,66.259754,13.954331)">
        <g transform="matrix(48,0,0,48,1105.138941,514.191176)">
        </g>
        <text x="113.603px" y="514.191px" style="font-family:'Dosis-ExtraLight', 'Dosis';font-weight:200;font-size:48px;fill:rgb(186,186,186);">cat<tspan x="165.731px " y="514.191px ">c</tspan>h the drift: verify AI agents ar<tspan x="686.627px " y="514.191px ">e</tspan> who they sa<tspan x="927.539px " y="514.191px ">y</tspan> they ar<tspan x="1076.051px " y="514.191px ">e</tspan>.</text>
    </g>
</svg>
